<svg xmlns="http://www.w3.org/2000/svg" xmlns:xlink="http://www.w3.org/1999/xlink" width="2000" zoomAndPan="magnify" viewBox="0 0 1500 1499.999933" height="2000" preserveAspectRatio="xMidYMid meet" version="1.0"><defs><g/><clipPath id="00f8ba6de6"><path d="M 382 568 L 1121 568 L 1121 997 L 382 997 Z M 382 568 " clip-rule="nonzero"/></clipPath><clipPath id="b0f4890d50"><path d="M 502.785156 373.539062 L 1171.046875 631.300781 L 997.226562 1081.941406 L 328.964844 824.175781 Z M 502.785156 373.539062 " clip-rule="nonzero"/></clipPath><clipPath id="2c526a0695"><path d="M 502.785156 373.539062 L 1171.046875 631.300781 L 997.226562 1081.941406 L 328.964844 824.175781 Z M 502.785156 373.539062 " clip-rule="nonzero"/></clipPath><clipPath id="7e492a6687"><path d="M 1115.445312 734.15625 C 1132.074219 677.660156 1103.671875 616.558594 1050.03125 592.523438 C 1008.621094 573.816406 962.789062 580.753906 929.394531 605.867188 C 912.75 618.289062 889.726562 617.308594 873.554688 604.082031 C 861.105469 593.808594 846.519531 585.144531 830.644531 579.019531 C 784.082031 561.058594 734.179688 566.734375 694.03125 590.453125 C 670.769531 604.273438 641.902344 603.472656 618.566406 589.910156 C 608.433594 583.875 597.261719 578.957031 585.578125 575.363281 C 509.828125 551.917969 427.730469 589.847656 396.085938 662.433594 C 360.03125 744.871094 400.332031 839.738281 483.402344 871.777344 C 517.792969 885.042969 553.867188 885.285156 586.289062 875.296875 C 619.074219 865.152344 654.117188 879.882812 669.660156 910.496094 C 687.847656 946.078125 719.535156 975.019531 761.09375 988.617188 C 837.492188 1013.527344 921.75 975.519531 953.539062 901.773438 C 957.171875 893.144531 960.070312 884.839844 962.277344 875.964844 C 969.492188 846.230469 992.804688 823.613281 1022.960938 817.921875 C 1065.148438 810.1875 1102.210938 779.503906 1115.445312 734.15625 Z M 1115.445312 734.15625 " clip-rule="nonzero"/></clipPath><clipPath id="eff7872285"><path d="M 605 511 L 674 511 L 674 580 L 605 580 Z M 605 511 " clip-rule="nonzero"/></clipPath><clipPath id="4221387e36"><path d="M 502.785156 373.539062 L 1171.046875 631.300781 L 997.226562 1081.941406 L 328.964844 824.175781 Z M 502.785156 373.539062 " clip-rule="nonzero"/></clipPath><clipPath id="08da77b0aa"><path d="M 502.785156 373.539062 L 1171.046875 631.300781 L 997.226562 1081.941406 L 328.964844 824.175781 Z M 502.785156 373.539062 " clip-rule="nonzero"/></clipPath><clipPath id="3ce5d53a76"><path d="M 670.773438 557.773438 C 670.375 558.804688 669.929688 559.816406 669.433594 560.800781 C 668.933594 561.789062 668.390625 562.75 667.800781 563.683594 C 667.207031 564.617188 666.574219 565.519531 665.894531 566.390625 C 665.214844 567.261719 664.492188 568.097656 663.730469 568.898438 C 662.96875 569.699219 662.167969 570.460938 661.332031 571.179688 C 660.496094 571.902344 659.625 572.582031 658.722656 573.21875 C 657.820312 573.855469 656.886719 574.445312 655.925781 574.992188 C 654.960938 575.535156 653.976562 576.03125 652.964844 576.480469 C 651.957031 576.925781 650.925781 577.324219 649.878906 577.671875 C 648.828125 578.019531 647.765625 578.3125 646.6875 578.554688 C 645.605469 578.796875 644.519531 578.984375 643.421875 579.121094 C 642.328125 579.253906 641.226562 579.335938 640.121094 579.363281 C 639.015625 579.390625 637.914062 579.363281 636.808594 579.28125 C 635.707031 579.203125 634.613281 579.066406 633.523438 578.878906 C 632.433594 578.6875 631.359375 578.445312 630.292969 578.152344 C 629.226562 577.859375 628.179688 577.511719 627.148438 577.113281 C 626.117188 576.714844 625.109375 576.269531 624.121094 575.773438 C 623.132812 575.273438 622.171875 574.730469 621.238281 574.140625 C 620.304688 573.546875 619.402344 572.914062 618.53125 572.234375 C 617.660156 571.554688 616.824219 570.832031 616.023438 570.070312 C 615.226562 569.308594 614.464844 568.507812 613.742188 567.671875 C 613.019531 566.835938 612.339844 565.964844 611.703125 565.0625 C 611.066406 564.15625 610.476562 563.226562 609.933594 562.265625 C 609.386719 561.300781 608.890625 560.316406 608.445312 559.304688 C 607.996094 558.296875 607.597656 557.265625 607.253906 556.214844 C 606.90625 555.167969 606.609375 554.101562 606.367188 553.023438 C 606.125 551.945312 605.9375 550.859375 605.804688 549.761719 C 605.667969 548.664062 605.585938 547.566406 605.558594 546.460938 C 605.53125 545.355469 605.558594 544.25 605.640625 543.148438 C 605.722656 542.046875 605.855469 540.953125 606.046875 539.863281 C 606.234375 538.773438 606.476562 537.699219 606.769531 536.632812 C 607.066406 535.566406 607.414062 534.519531 607.808594 533.488281 C 608.207031 532.457031 608.65625 531.449219 609.152344 530.460938 C 609.648438 529.472656 610.191406 528.511719 610.785156 527.578125 C 611.375 526.644531 612.011719 525.742188 612.691406 524.871094 C 613.371094 524 614.089844 523.164062 614.851562 522.363281 C 615.617188 521.5625 616.414062 520.804688 617.25 520.082031 C 618.089844 519.359375 618.957031 518.679688 619.863281 518.042969 C 620.765625 517.40625 621.699219 516.816406 622.660156 516.273438 C 623.621094 515.726562 624.605469 515.230469 625.617188 514.785156 C 626.628906 514.335938 627.65625 513.9375 628.707031 513.59375 C 629.757812 513.246094 630.820312 512.949219 631.898438 512.707031 C 632.976562 512.464844 634.0625 512.277344 635.160156 512.140625 C 636.257812 512.007812 637.359375 511.925781 638.464844 511.898438 C 639.566406 511.871094 640.671875 511.898438 641.773438 511.980469 C 642.875 512.0625 643.972656 512.195312 645.058594 512.386719 C 646.148438 512.574219 647.226562 512.816406 648.292969 513.109375 C 649.355469 513.40625 650.402344 513.75 651.433594 514.148438 C 652.464844 514.546875 653.476562 514.996094 654.460938 515.492188 C 655.449219 515.988281 656.410156 516.53125 657.34375 517.125 C 658.277344 517.714844 659.179688 518.351562 660.050781 519.03125 C 660.921875 519.710938 661.757812 520.429688 662.558594 521.191406 C 663.359375 521.953125 664.121094 522.753906 664.84375 523.589844 C 665.5625 524.429688 666.242188 525.296875 666.878906 526.203125 C 667.515625 527.105469 668.105469 528.039062 668.652344 529 C 669.195312 529.960938 669.691406 530.945312 670.140625 531.957031 C 670.585938 532.96875 670.984375 533.996094 671.332031 535.046875 C 671.679688 536.097656 671.972656 537.160156 672.214844 538.238281 C 672.457031 539.316406 672.644531 540.402344 672.78125 541.5 C 672.917969 542.597656 672.996094 543.699219 673.023438 544.804688 C 673.050781 545.90625 673.023438 547.011719 672.945312 548.113281 C 672.863281 549.214844 672.726562 550.3125 672.539062 551.398438 C 672.347656 552.488281 672.109375 553.566406 671.8125 554.628906 C 671.519531 555.695312 671.171875 556.742188 670.773438 557.773438 Z M 670.773438 557.773438 " clip-rule="nonzero"/></clipPath><clipPath id="39db5aa9a3"><path d="M 823 506 L 864 506 L 864 547 L 823 547 Z M 823 506 " clip-rule="nonzero"/></clipPath><clipPath id="2ad79b5d5e"><path d="M 502.785156 373.539062 L 1171.046875 631.300781 L 997.226562 1081.941406 L 328.964844 824.175781 Z M 502.785156 373.539062 " clip-rule="nonzero"/></clipPath><clipPath id="601edea263"><path d="M 502.785156 373.539062 L 1171.046875 631.300781 L 997.226562 1081.941406 L 328.964844 824.175781 Z M 502.785156 373.539062 " clip-rule="nonzero"/></clipPath><clipPath id="816b8b2aa2"><path d="M 862.628906 533.917969 C 862.394531 534.53125 862.125 535.132812 861.828125 535.722656 C 861.535156 536.3125 861.207031 536.886719 860.855469 537.441406 C 860.503906 538 860.125 538.539062 859.71875 539.058594 C 859.3125 539.578125 858.882812 540.074219 858.429688 540.554688 C 857.972656 541.03125 857.496094 541.484375 856.996094 541.917969 C 856.496094 542.347656 855.980469 542.75 855.441406 543.132812 C 854.902344 543.511719 854.34375 543.863281 853.769531 544.1875 C 853.195312 544.511719 852.609375 544.808594 852.003906 545.078125 C 851.402344 545.34375 850.789062 545.582031 850.164062 545.789062 C 849.535156 545.996094 848.902344 546.171875 848.257812 546.316406 C 847.613281 546.460938 846.964844 546.570312 846.3125 546.652344 C 845.65625 546.734375 845 546.78125 844.339844 546.796875 C 843.683594 546.8125 843.023438 546.796875 842.367188 546.75 C 841.707031 546.703125 841.054688 546.621094 840.40625 546.507812 C 839.753906 546.394531 839.113281 546.25 838.476562 546.074219 C 837.84375 545.898438 837.21875 545.691406 836.601562 545.457031 C 835.988281 545.21875 835.382812 544.953125 834.796875 544.65625 C 834.207031 544.359375 833.632812 544.035156 833.078125 543.679688 C 832.519531 543.328125 831.980469 542.949219 831.460938 542.542969 C 830.941406 542.136719 830.441406 541.707031 829.964844 541.253906 C 829.488281 540.796875 829.035156 540.320312 828.601562 539.820312 C 828.171875 539.324219 827.765625 538.804688 827.386719 538.265625 C 827.007812 537.726562 826.65625 537.167969 826.332031 536.59375 C 826.003906 536.023438 825.710938 535.433594 825.441406 534.832031 C 825.175781 534.226562 824.9375 533.613281 824.730469 532.988281 C 824.523438 532.359375 824.347656 531.726562 824.203125 531.082031 C 824.058594 530.441406 823.945312 529.792969 823.867188 529.136719 C 823.785156 528.480469 823.738281 527.824219 823.722656 527.167969 C 823.703125 526.507812 823.71875 525.847656 823.769531 525.191406 C 823.816406 524.535156 823.898438 523.878906 824.011719 523.230469 C 824.125 522.582031 824.269531 521.9375 824.445312 521.300781 C 824.621094 520.667969 824.828125 520.042969 825.0625 519.425781 C 825.300781 518.8125 825.566406 518.210938 825.863281 517.621094 C 826.160156 517.03125 826.484375 516.457031 826.839844 515.902344 C 827.191406 515.34375 827.570312 514.804688 827.976562 514.285156 C 828.382812 513.765625 828.8125 513.269531 829.265625 512.789062 C 829.71875 512.3125 830.199219 511.859375 830.695312 511.429688 C 831.195312 510.996094 831.714844 510.59375 832.253906 510.210938 C 832.792969 509.832031 833.351562 509.480469 833.921875 509.15625 C 834.496094 508.832031 835.085938 508.535156 835.6875 508.265625 C 836.289062 508 836.90625 507.761719 837.53125 507.554688 C 838.15625 507.347656 838.792969 507.171875 839.4375 507.027344 C 840.078125 506.882812 840.726562 506.773438 841.382812 506.691406 C 842.035156 506.609375 842.695312 506.5625 843.351562 506.546875 C 844.011719 506.53125 844.671875 506.546875 845.328125 506.59375 C 845.984375 506.644531 846.640625 506.722656 847.289062 506.835938 C 847.9375 506.949219 848.582031 507.09375 849.214844 507.269531 C 849.851562 507.445312 850.476562 507.652344 851.09375 507.886719 C 851.707031 508.125 852.308594 508.394531 852.898438 508.6875 C 853.488281 508.984375 854.058594 509.308594 854.617188 509.664062 C 855.175781 510.015625 855.714844 510.394531 856.234375 510.800781 C 856.753906 511.207031 857.25 511.636719 857.730469 512.089844 C 858.207031 512.546875 858.660156 513.023438 859.089844 513.523438 C 859.523438 514.019531 859.925781 514.539062 860.308594 515.078125 C 860.6875 515.617188 861.039062 516.175781 861.363281 516.75 C 861.6875 517.320312 861.984375 517.910156 862.253906 518.511719 C 862.519531 519.117188 862.757812 519.730469 862.964844 520.355469 C 863.167969 520.984375 863.34375 521.617188 863.488281 522.261719 C 863.632812 522.902344 863.746094 523.554688 863.828125 524.207031 C 863.910156 524.863281 863.957031 525.519531 863.972656 526.175781 C 863.988281 526.835938 863.972656 527.496094 863.925781 528.152344 C 863.875 528.808594 863.796875 529.464844 863.683594 530.113281 C 863.570312 530.761719 863.425781 531.40625 863.25 532.042969 C 863.074219 532.675781 862.867188 533.300781 862.628906 533.917969 Z M 862.628906 533.917969 " clip-rule="nonzero"/></clipPath><clipPath id="4675395e4f"><path d="M 1003 861 L 1068 861 L 1068 925 L 1003 925 Z M 1003 861 " clip-rule="nonzero"/></clipPath><clipPath id="2bb3c8369d"><path d="M 502.785156 373.539062 L 1171.046875 631.300781 L 997.226562 1081.941406 L 328.964844 824.175781 Z M 502.785156 373.539062 " clip-rule="nonzero"/></clipPath><clipPath id="d689bc3ba6"><path d="M 502.785156 373.539062 L 1171.046875 631.300781 L 997.226562 1081.941406 L 328.964844 824.175781 Z M 502.785156 373.539062 " clip-rule="nonzero"/></clipPath><clipPath id="fe2b3314f4"><path d="M 1065.261719 904.445312 C 1064.886719 905.414062 1064.46875 906.363281 1064 907.292969 C 1063.53125 908.222656 1063.019531 909.125 1062.464844 910.003906 C 1061.90625 910.882812 1061.308594 911.734375 1060.667969 912.554688 C 1060.027344 913.375 1059.351562 914.160156 1058.632812 914.914062 C 1057.917969 915.667969 1057.164062 916.382812 1056.375 917.0625 C 1055.589844 917.742188 1054.769531 918.382812 1053.917969 918.980469 C 1053.070312 919.578125 1052.191406 920.136719 1051.285156 920.648438 C 1050.382812 921.160156 1049.453125 921.628906 1048.503906 922.050781 C 1047.550781 922.46875 1046.582031 922.84375 1045.59375 923.171875 C 1044.605469 923.496094 1043.605469 923.773438 1042.589844 924 C 1041.578125 924.230469 1040.550781 924.40625 1039.519531 924.535156 C 1038.488281 924.664062 1037.453125 924.738281 1036.414062 924.765625 C 1035.371094 924.789062 1034.332031 924.765625 1033.296875 924.6875 C 1032.257812 924.609375 1031.226562 924.484375 1030.203125 924.304688 C 1029.179688 924.128906 1028.164062 923.902344 1027.164062 923.625 C 1026.160156 923.347656 1025.171875 923.019531 1024.203125 922.644531 C 1023.234375 922.273438 1022.28125 921.851562 1021.355469 921.382812 C 1020.425781 920.914062 1019.519531 920.402344 1018.640625 919.847656 C 1017.761719 919.289062 1016.914062 918.691406 1016.09375 918.050781 C 1015.273438 917.414062 1014.488281 916.734375 1013.734375 916.015625 C 1012.980469 915.300781 1012.265625 914.546875 1011.585938 913.757812 C 1010.90625 912.972656 1010.265625 912.152344 1009.667969 911.300781 C 1009.070312 910.453125 1008.511719 909.574219 1008 908.667969 C 1007.488281 907.765625 1007.019531 906.835938 1006.597656 905.886719 C 1006.175781 904.933594 1005.804688 903.964844 1005.476562 902.976562 C 1005.152344 901.992188 1004.875 900.988281 1004.644531 899.972656 C 1004.417969 898.960938 1004.242188 897.9375 1004.113281 896.902344 C 1003.984375 895.871094 1003.910156 894.835938 1003.882812 893.796875 C 1003.859375 892.753906 1003.882812 891.71875 1003.960938 890.679688 C 1004.035156 889.644531 1004.164062 888.613281 1004.339844 887.585938 C 1004.519531 886.5625 1004.746094 885.546875 1005.023438 884.546875 C 1005.300781 883.542969 1005.628906 882.558594 1006.003906 881.585938 C 1006.375 880.617188 1006.796875 879.667969 1007.265625 878.738281 C 1007.734375 877.808594 1008.246094 876.90625 1008.800781 876.027344 C 1009.359375 875.148438 1009.957031 874.296875 1010.59375 873.476562 C 1011.234375 872.65625 1011.914062 871.871094 1012.632812 871.117188 C 1013.347656 870.363281 1014.101562 869.648438 1014.886719 868.96875 C 1015.675781 868.289062 1016.496094 867.648438 1017.34375 867.050781 C 1018.195312 866.453125 1019.074219 865.894531 1019.976562 865.382812 C 1020.882812 864.871094 1021.8125 864.402344 1022.761719 863.980469 C 1023.714844 863.5625 1024.683594 863.1875 1025.667969 862.859375 C 1026.65625 862.535156 1027.660156 862.257812 1028.671875 862.03125 C 1029.6875 861.800781 1030.710938 861.625 1031.746094 861.496094 C 1032.777344 861.371094 1033.8125 861.292969 1034.851562 861.265625 C 1035.890625 861.242188 1036.929688 861.265625 1037.96875 861.34375 C 1039.003906 861.421875 1040.035156 861.546875 1041.0625 861.726562 C 1042.085938 861.902344 1043.101562 862.128906 1044.101562 862.40625 C 1045.105469 862.683594 1046.089844 863.011719 1047.0625 863.386719 C 1048.03125 863.761719 1048.980469 864.179688 1049.910156 864.648438 C 1050.839844 865.117188 1051.742188 865.628906 1052.621094 866.183594 C 1053.5 866.742188 1054.351562 867.339844 1055.171875 867.980469 C 1055.992188 868.617188 1056.777344 869.296875 1057.53125 870.015625 C 1058.285156 870.730469 1059 871.484375 1059.679688 872.273438 C 1060.359375 873.058594 1060.996094 873.878906 1061.597656 874.730469 C 1062.195312 875.578125 1062.75 876.457031 1063.265625 877.363281 C 1063.777344 878.265625 1064.242188 879.195312 1064.664062 880.144531 C 1065.085938 881.097656 1065.460938 882.066406 1065.789062 883.054688 C 1066.113281 884.039062 1066.390625 885.042969 1066.617188 886.058594 C 1066.847656 887.070312 1067.023438 888.09375 1067.152344 889.128906 C 1067.277344 890.160156 1067.355469 891.195312 1067.378906 892.234375 C 1067.40625 893.277344 1067.378906 894.3125 1067.304688 895.351562 C 1067.226562 896.390625 1067.101562 897.417969 1066.921875 898.445312 C 1066.746094 899.46875 1066.515625 900.484375 1066.238281 901.484375 C 1065.960938 902.488281 1065.636719 903.472656 1065.261719 904.445312 Z M 1065.261719 904.445312 " clip-rule="nonzero"/></clipPath><clipPath id="1b56f83e80"><rect x="0" width="296" y="0" height="265"/></clipPath><clipPath id="9a1b2132c0"><rect x="0" width="434" y="0" height="302"/></clipPath><clipPath id="e432cff3c2"><rect x="0" width="232" y="0" height="103"/></clipPath></defs><g clip-path="url(#00f8ba6de6)"><g clip-path="url(#b0f4890d50)"><g clip-path="url(#2c526a0695)"><g clip-path="url(#7e492a6687)"><path fill="#4b5ae4" d="M 460.023438 292.695312 L 205.039062 953.742188 L 1032.082031 1272.753906 L 1287.066406 611.703125 Z M 460.023438 292.695312 " fill-opacity="1" fill-rule="nonzero"/></g></g></g></g><g clip-path="url(#eff7872285)"><g clip-path="url(#4221387e36)"><g clip-path="url(#08da77b0aa)"><g clip-path="url(#3ce5d53a76)"><path fill="#4b5ae4" d="M 614.277344 489.199219 L 582.859375 570.648438 L 664.308594 602.0625 L 695.722656 520.617188 Z M 614.277344 489.199219 " fill-opacity="1" fill-rule="nonzero"/></g></g></g></g><g clip-path="url(#39db5aa9a3)"><g clip-path="url(#2ad79b5d5e)"><g clip-path="url(#601edea263)"><g clip-path="url(#816b8b2aa2)"><path fill="#4b5ae4" d="M 828.921875 493.003906 L 810.179688 541.597656 L 858.773438 560.339844 L 877.515625 511.746094 Z M 828.921875 493.003906 " fill-opacity="1" fill-rule="nonzero"/></g></g></g></g><g clip-path="url(#4675395e4f)"><g clip-path="url(#2bb3c8369d)"><g clip-path="url(#d689bc3ba6)"><g clip-path="url(#fe2b3314f4)"><path fill="#4b5ae4" d="M 1012.089844 839.90625 L 982.519531 916.558594 L 1059.175781 946.128906 L 1088.742188 869.472656 Z M 1012.089844 839.90625 " fill-opacity="1" fill-rule="nonzero"/></g></g></g></g><g transform="matrix(1, 0, 0, 1, 432, 619)"><g clip-path="url(#1b56f83e80)"><g fill="#fcfdf2" fill-opacity="1"><g transform="translate(38.871778, 201.395992)"><g><path d="M 16.71875 -3.9375 C 12.71875 -2.988281 9.457031 -3.085938 6.9375 -4.234375 C 4.414062 -5.390625 2.476562 -7.148438 1.125 -9.515625 C -0.21875 -11.890625 -1.171875 -14.425781 -1.734375 -17.125 C -2.304688 -19.820312 -2.609375 -22.179688 -2.640625 -24.203125 C -2.941406 -32.265625 -2.28125 -40.40625 -0.65625 -48.625 C 0.96875 -56.851562 2.160156 -64.90625 2.921875 -72.78125 C 3.460938 -79.132812 3.851562 -85.347656 4.09375 -91.421875 C 4.332031 -97.503906 4.648438 -103.722656 5.046875 -110.078125 C 5.097656 -111.679688 5.203125 -114.785156 5.359375 -119.390625 C 5.515625 -123.992188 5.90625 -129.273438 6.53125 -135.234375 C 7.164062 -141.191406 8.28125 -146.9375 9.875 -152.46875 C 11.476562 -158 13.847656 -162.4375 16.984375 -165.78125 C 19.285156 -168.351562 22.5 -170.125 26.625 -171.09375 C 29.65625 -171.8125 32.71875 -171.914062 35.8125 -171.40625 C 38.90625 -170.90625 41.410156 -169.648438 43.328125 -167.640625 C 50.984375 -160.429688 57.289062 -152.289062 62.25 -143.21875 C 67.207031 -134.15625 72.40625 -125.179688 77.84375 -116.296875 C 80.695312 -111.585938 84.316406 -106.519531 88.703125 -101.09375 C 93.097656 -95.664062 97.546875 -90.175781 102.046875 -84.625 C 106.546875 -79.082031 110.515625 -73.628906 113.953125 -68.265625 C 117.390625 -62.910156 119.726562 -57.910156 120.96875 -53.265625 C 121.914062 -49.847656 122.398438 -46.21875 122.421875 -42.375 C 122.453125 -38.539062 121.796875 -35.160156 120.453125 -32.234375 C 119.109375 -29.304688 116.71875 -27.4375 113.28125 -26.625 L 83.78125 -19.703125 C 80.476562 -18.921875 77.5625 -19.898438 75.03125 -22.640625 C 72.5 -25.378906 70.296875 -29.175781 68.421875 -34.03125 C 66.554688 -38.894531 64.941406 -44.21875 63.578125 -50 C 62.222656 -55.78125 61.101562 -61.328125 60.21875 -66.640625 C 59.34375 -71.953125 58.660156 -76.398438 58.171875 -79.984375 C 57.691406 -83.566406 57.316406 -85.617188 57.046875 -86.140625 C 56.515625 -87.179688 55.285156 -87.765625 53.359375 -87.890625 C 51.441406 -88.015625 49.316406 -87.804688 46.984375 -87.265625 C 44.640625 -86.710938 42.40625 -85.859375 40.28125 -84.703125 C 38.15625 -83.546875 36.914062 -82.207031 36.5625 -80.6875 C 36.488281 -80.375 37.296875 -78.632812 38.984375 -75.46875 C 40.671875 -72.3125 42.75 -68.265625 45.21875 -63.328125 C 47.6875 -58.398438 50 -53.175781 52.15625 -47.65625 C 54.320312 -42.132812 55.898438 -36.804688 56.890625 -31.671875 C 57.890625 -26.535156 57.769531 -22.113281 56.53125 -18.40625 C 55.300781 -14.707031 52.484375 -12.335938 48.078125 -11.296875 Z M 31.984375 -146.453125 C 29.984375 -145.691406 28.585938 -143.765625 27.796875 -140.671875 C 27.003906 -137.578125 26.710938 -134.019531 26.921875 -130 C 27.140625 -125.988281 27.59375 -122.210938 28.28125 -118.671875 C 28.96875 -115.140625 29.707031 -112.59375 30.5 -111.03125 C 31.269531 -109.625 32.613281 -108.707031 34.53125 -108.28125 C 36.445312 -107.851562 38.441406 -107.882812 40.515625 -108.375 C 42.847656 -108.914062 44.992188 -109.960938 46.953125 -111.515625 C 48.910156 -113.078125 49.882812 -114.796875 49.875 -116.671875 C 49.894531 -118.429688 49.3125 -121.054688 48.125 -124.546875 C 46.945312 -128.046875 45.421875 -131.601562 43.546875 -135.21875 C 41.679688 -138.84375 39.71875 -141.789062 37.65625 -144.0625 C 35.59375 -146.34375 33.703125 -147.140625 31.984375 -146.453125 Z M 31.984375 -146.453125 "/></g></g></g><g fill="#fcfdf2" fill-opacity="1"><g transform="translate(154.804976, 173.995636)"><g><path d="M 19.15625 -97.296875 C 19.101562 -101.703125 18.660156 -106.488281 17.828125 -111.65625 C 17.003906 -116.832031 16.207031 -122.003906 15.4375 -127.171875 C 14.664062 -132.347656 14.289062 -137.132812 14.3125 -141.53125 C 14.34375 -145.925781 15.082031 -149.550781 16.53125 -152.40625 C 17.976562 -155.257812 20.570312 -157.023438 24.3125 -157.703125 C 25.882812 -157.847656 27.3125 -157.972656 28.59375 -158.078125 C 29.882812 -158.191406 31.097656 -158.195312 32.234375 -158.09375 C 36.734375 -157.71875 40.082031 -156.296875 42.28125 -153.828125 C 44.476562 -151.367188 46.023438 -148.296875 46.921875 -144.609375 C 47.816406 -140.921875 48.394531 -136.898438 48.65625 -132.546875 C 48.914062 -128.191406 49.296875 -123.9375 49.796875 -119.78125 C 51.429688 -105.59375 53.316406 -94.007812 55.453125 -85.03125 C 57.585938 -76.0625 60.207031 -71.445312 63.3125 -71.1875 C 65.269531 -71.007812 67.015625 -72.84375 68.546875 -76.6875 C 70.085938 -80.539062 71.671875 -85.335938 73.296875 -91.078125 C 74.921875 -96.816406 76.675781 -102.375 78.5625 -107.75 C 80.570312 -113.113281 82.085938 -118.410156 83.109375 -123.640625 C 84.128906 -128.878906 85.207031 -133.644531 86.34375 -137.9375 C 87.488281 -142.238281 89.160156 -145.609375 91.359375 -148.046875 C 93.554688 -150.484375 96.835938 -151.515625 101.203125 -151.140625 C 106.410156 -150.691406 110.238281 -149.050781 112.6875 -146.21875 C 115.144531 -143.382812 116.578125 -139.785156 116.984375 -135.421875 C 117.390625 -131.066406 117.160156 -126.335938 116.296875 -121.234375 C 115.441406 -116.128906 114.226562 -111.019531 112.65625 -105.90625 C 111.082031 -100.789062 109.539062 -96.03125 108.03125 -91.625 C 106.519531 -87.21875 105.429688 -83.617188 104.765625 -80.828125 C 103.679688 -76.390625 102.671875 -71.160156 101.734375 -65.140625 C 100.796875 -59.117188 99.6875 -52.796875 98.40625 -46.171875 C 97.125 -39.546875 95.46875 -33.09375 93.4375 -26.8125 C 91.414062 -20.53125 88.738281 -14.90625 85.40625 -9.9375 C 82.082031 -4.976562 77.859375 -1.160156 72.734375 1.515625 C 67.617188 4.203125 61.328125 5.226562 53.859375 4.59375 C 44.992188 3.84375 38.09375 1.203125 33.15625 -3.328125 C 28.21875 -7.867188 24.707031 -13.703125 22.625 -20.828125 C 20.539062 -27.953125 19.300781 -35.820312 18.90625 -44.4375 C 18.507812 -53.050781 18.484375 -61.914062 18.828125 -71.03125 C 19.179688 -80.15625 19.289062 -88.910156 19.15625 -97.296875 Z M 19.15625 -97.296875 "/></g></g></g></g></g><g transform="matrix(1, 0, 0, 1, 662, 604)"><g clip-path="url(#9a1b2132c0)"><g fill="#fcfdf2" fill-opacity="1"><g transform="translate(37.358096, 209.590426)"><g><path d="M 14.015625 -25.34375 C 11.421875 -34.3125 9.957031 -43.890625 9.625 -54.078125 C 9.289062 -64.273438 9.878906 -74.441406 11.390625 -84.578125 C 12.910156 -94.722656 15.21875 -104.316406 18.3125 -113.359375 C 21.414062 -122.410156 25.09375 -130.191406 29.34375 -136.703125 C 31.71875 -140.285156 34.757812 -143.515625 38.46875 -146.390625 C 42.1875 -149.265625 46.222656 -151.460938 50.578125 -152.984375 C 54.941406 -154.515625 59.234375 -155.050781 63.453125 -154.59375 C 64.992188 -154.4375 65.972656 -154.332031 66.390625 -154.28125 C 66.816406 -154.238281 67.238281 -154.191406 67.65625 -154.140625 C 68.082031 -154.097656 69.066406 -153.992188 70.609375 -153.828125 C 77.773438 -153.066406 83.875 -151.28125 88.90625 -148.46875 C 93.9375 -145.65625 97.554688 -142.28125 99.765625 -138.34375 C 101.972656 -134.414062 102.222656 -130.476562 100.515625 -126.53125 C 99.535156 -123.9375 97.59375 -122.367188 94.6875 -121.828125 C 91.789062 -121.296875 88.515625 -121.226562 84.859375 -121.625 C 82.179688 -121.90625 79.550781 -122.285156 76.96875 -122.765625 C 74.394531 -123.242188 71.988281 -123.601562 69.75 -123.84375 C 67.78125 -124.0625 66.109375 -124.066406 64.734375 -123.859375 C 63.367188 -123.648438 62.625 -122.984375 62.5 -121.859375 C 62.164062 -120.054688 63.226562 -118.703125 65.6875 -117.796875 C 68.144531 -116.890625 71.179688 -116.066406 74.796875 -115.328125 C 78.421875 -114.597656 82.046875 -113.609375 85.671875 -112.359375 C 89.304688 -111.109375 92.265625 -109.222656 94.546875 -106.703125 C 96.835938 -104.191406 97.742188 -100.6875 97.265625 -96.1875 C 96.859375 -92.382812 95.679688 -89.695312 93.734375 -88.125 C 91.796875 -86.5625 89.359375 -85.648438 86.421875 -85.390625 C 83.484375 -85.140625 80.472656 -85.21875 77.390625 -85.625 C 74.304688 -86.03125 71.316406 -86.316406 68.421875 -86.484375 C 65.523438 -86.648438 63.140625 -86.296875 61.265625 -85.421875 C 59.398438 -84.554688 58.328125 -82.796875 58.046875 -80.140625 C 57.484375 -74.941406 58.851562 -70.53125 62.15625 -66.90625 C 65.46875 -63.28125 70.359375 -61.125 76.828125 -60.4375 C 77.378906 -60.375 77.972656 -60.304688 78.609375 -60.234375 C 79.242188 -60.171875 79.847656 -60.175781 80.421875 -60.25 C 80.703125 -60.21875 81.050781 -60.179688 81.46875 -60.140625 C 81.894531 -60.097656 82.242188 -60.0625 82.515625 -60.03125 C 87.859375 -59.457031 92.175781 -57.320312 95.46875 -53.625 C 98.769531 -49.9375 100.992188 -45.4375 102.140625 -40.125 C 103.285156 -34.8125 103.367188 -29.257812 102.390625 -23.46875 C 101.410156 -17.675781 99.3125 -12.359375 96.09375 -7.515625 C 92.882812 -2.671875 88.570312 1.128906 83.15625 3.890625 C 77.75 6.648438 71.109375 7.609375 63.234375 6.765625 L 43.625 4.671875 C 40.113281 4.296875 36.34375 2.722656 32.3125 -0.046875 C 28.28125 -2.828125 24.613281 -6.421875 21.3125 -10.828125 C 18.019531 -15.234375 15.585938 -20.070312 14.015625 -25.34375 Z M 14.015625 -25.34375 "/></g></g></g><g fill="#fcfdf2" fill-opacity="1"><g transform="translate(148.594706, 221.990581)"><g><path d="M 34.53125 -4.0625 C 26.945312 -3.175781 20.835938 -3.382812 16.203125 -4.6875 C 11.578125 -6 8.070312 -7.972656 5.6875 -10.609375 C 3.3125 -13.242188 1.644531 -16.207031 0.6875 -19.5 C -0.269531 -22.800781 -0.921875 -25.925781 -1.265625 -28.875 C -1.835938 -33.789062 -1.878906 -39.015625 -1.390625 -44.546875 C -0.910156 -50.085938 -0.296875 -55.707031 0.453125 -61.40625 C 1.203125 -67.113281 1.628906 -72.539062 1.734375 -77.6875 C 1.816406 -83.101562 1.335938 -88.703125 0.296875 -94.484375 C -0.742188 -100.265625 -1.863281 -105.863281 -3.0625 -111.28125 C -3.457031 -113.363281 -4.097656 -116.378906 -4.984375 -120.328125 C -5.878906 -124.273438 -6.597656 -128.53125 -7.140625 -133.09375 C -7.679688 -137.65625 -7.738281 -142.0625 -7.3125 -146.3125 C -6.882812 -150.5625 -5.597656 -154.160156 -3.453125 -157.109375 C -1.304688 -160.066406 1.9375 -161.800781 6.28125 -162.3125 C 9.09375 -162.644531 11.960938 -162.414062 14.890625 -161.625 C 17.828125 -160.832031 19.648438 -160.476562 20.359375 -160.5625 C 21.335938 -160.675781 22.425781 -161.085938 23.625 -161.796875 C 24.820312 -162.515625 26.828125 -163.320312 29.640625 -164.21875 C 32.460938 -165.113281 36.609375 -165.882812 42.078125 -166.53125 C 47.273438 -167.132812 52.820312 -166.828125 58.71875 -165.609375 C 64.625 -164.390625 70.222656 -161.847656 75.515625 -157.984375 C 80.804688 -154.128906 85.257812 -148.609375 88.875 -141.421875 C 92.5 -134.242188 94.625 -124.992188 95.25 -113.671875 C 95.632812 -105.609375 94.476562 -98.21875 91.78125 -91.5 C 89.082031 -84.78125 84.164062 -79.722656 77.03125 -76.328125 C 81.664062 -75.578125 86.78125 -74.109375 92.375 -71.921875 C 97.96875 -69.734375 103.257812 -66.765625 108.25 -63.015625 C 113.25 -59.265625 117.414062 -54.703125 120.75 -49.328125 C 124.09375 -43.953125 125.898438 -37.726562 126.171875 -30.65625 C 126.347656 -25.550781 125.054688 -21.734375 122.296875 -19.203125 C 119.535156 -16.671875 116.25 -14.929688 112.4375 -13.984375 C 108.632812 -13.046875 105.117188 -12.382812 101.890625 -12 C 96.140625 -11.320312 91.566406 -11.492188 88.171875 -12.515625 C 84.773438 -13.535156 82.164062 -15.148438 80.34375 -17.359375 C 78.519531 -19.566406 77.023438 -22.023438 75.859375 -24.734375 C 74.390625 -28.679688 72.253906 -33.15625 69.453125 -38.15625 C 66.660156 -43.164062 63.703125 -48.050781 60.578125 -52.8125 C 57.453125 -57.570312 54.570312 -61.460938 51.9375 -64.484375 C 49.3125 -67.515625 47.367188 -68.957031 46.109375 -68.8125 C 45.554688 -68.75 45.238281 -68.429688 45.15625 -67.859375 C 44.644531 -66.085938 45.117188 -64.148438 46.578125 -62.046875 C 48.046875 -59.941406 49.867188 -57.488281 52.046875 -54.6875 C 54.222656 -51.894531 56.304688 -48.691406 58.296875 -45.078125 C 60.285156 -41.460938 61.5625 -37.269531 62.125 -32.5 C 62.757812 -28.3125 62.382812 -24.210938 61 -20.203125 C 59.625 -16.203125 56.863281 -12.75 52.71875 -9.84375 C 48.582031 -6.9375 42.519531 -5.007812 34.53125 -4.0625 Z M 44.625 -144.859375 C 42.53125 -144.460938 41.097656 -143.007812 40.328125 -140.5 C 39.566406 -137.988281 39.347656 -135.007812 39.671875 -131.5625 C 40.003906 -128.113281 40.753906 -124.75 41.921875 -121.46875 C 43.097656 -118.195312 44.664062 -115.5 46.625 -113.375 C 48.582031 -111.257812 50.820312 -110.351562 53.34375 -110.65625 C 54.039062 -110.738281 54.59375 -110.875 55 -111.0625 C 58.695312 -112.351562 60.773438 -114.945312 61.234375 -118.84375 C 61.703125 -122.75 61.125 -126.738281 59.5 -130.8125 C 58.039062 -134.757812 55.96875 -138.175781 53.28125 -141.0625 C 50.59375 -143.957031 47.921875 -145.25 45.265625 -144.9375 C 45.117188 -144.914062 45.007812 -144.898438 44.9375 -144.890625 C 44.863281 -144.878906 44.757812 -144.867188 44.625 -144.859375 Z M 44.625 -144.859375 "/></g></g></g><g fill="#fcfdf2" fill-opacity="1"><g transform="translate(289.645646, 203.55549)"><g><path d="M -44.34375 -129.875 C -47.113281 -131.988281 -49.070312 -134.753906 -50.21875 -138.171875 C -51.363281 -141.597656 -51.210938 -144.988281 -49.765625 -148.34375 C -48.316406 -151.695312 -45.347656 -154.222656 -40.859375 -155.921875 C -40.191406 -156.171875 -39.515625 -156.382812 -38.828125 -156.5625 C -38.148438 -156.75 -37.382812 -156.925781 -36.53125 -157.09375 C -32.894531 -157.875 -28.921875 -157.457031 -24.609375 -155.84375 C -20.296875 -154.226562 -16.015625 -152.113281 -11.765625 -149.5 C -7.515625 -146.882812 -3.515625 -144.207031 0.234375 -141.46875 C 3.992188 -138.738281 7.296875 -136.515625 10.140625 -134.796875 C 12.984375 -133.085938 15.0625 -132.484375 16.375 -132.984375 C 17.96875 -133.585938 19.398438 -135.597656 20.671875 -139.015625 C 21.941406 -142.441406 23.1875 -146.617188 24.40625 -151.546875 C 25.632812 -156.484375 27.140625 -161.476562 28.921875 -166.53125 C 30.703125 -171.59375 32.882812 -176.085938 35.46875 -180.015625 C 38.0625 -183.953125 41.34375 -186.675781 45.3125 -188.1875 C 47.019531 -188.832031 49.019531 -189.140625 51.3125 -189.109375 C 55.875 -189.015625 59.164062 -187.007812 61.1875 -183.09375 C 63.207031 -179.175781 63.640625 -174.050781 62.484375 -167.71875 C 61.335938 -161.382812 58.320312 -154.5 53.4375 -147.0625 C 49.90625 -141.632812 47.078125 -135.945312 44.953125 -130 C 42.828125 -124.050781 42.78125 -117.609375 44.8125 -110.671875 C 46.21875 -105.765625 48.832031 -100.671875 52.65625 -95.390625 C 56.476562 -90.109375 60.644531 -84.8125 65.15625 -79.5 C 69.675781 -74.195312 73.90625 -69.039062 77.84375 -64.03125 C 81.78125 -59.03125 84.742188 -54.300781 86.734375 -49.84375 C 88.722656 -45.382812 89 -41.367188 87.5625 -37.796875 C 86.125 -34.222656 82.234375 -31.234375 75.890625 -28.828125 L 39.828125 -15.125 C 35.472656 -13.46875 31.9375 -13.519531 29.21875 -15.28125 C 26.507812 -17.050781 24.382812 -20.0625 22.84375 -24.3125 C 21.3125 -28.570312 20.039062 -33.609375 19.03125 -39.421875 C 18.03125 -45.242188 17.054688 -51.488281 16.109375 -58.15625 C 15.171875 -64.820312 14.050781 -71.460938 12.75 -78.078125 C 11.457031 -84.691406 9.59375 -90.785156 7.15625 -96.359375 C 5.019531 -101.609375 1.796875 -105.828125 -2.515625 -109.015625 C -6.828125 -112.210938 -11.546875 -114.878906 -16.671875 -117.015625 C -21.796875 -119.160156 -26.796875 -121.191406 -31.671875 -123.109375 C -36.554688 -125.035156 -40.78125 -127.289062 -44.34375 -129.875 Z M -44.34375 -129.875 "/></g></g></g></g></g><g transform="matrix(1, 0, 0, 1, 692, 851)"><g clip-path="url(#e432cff3c2)"><g fill="#fcfdf2" fill-opacity="1"><g transform="translate(12.845948, 35.644579)"><g><path d="M 25.625 -5.484375 C 27.46875 -3.554688 28.378906 -1.4375 28.359375 0.875 C 28.335938 3.195312 27.234375 5.40625 25.046875 7.5 L 15.703125 16.421875 L 13.203125 13.8125 L 22.15625 5.25 C 23.738281 3.738281 24.570312 2.1875 24.65625 0.59375 C 24.738281 -1 24.128906 -2.476562 22.828125 -3.84375 C 21.492188 -5.226562 20 -5.910156 18.34375 -5.890625 C 16.695312 -5.878906 15.046875 -5.082031 13.390625 -3.5 L 4.640625 4.859375 L 2.125 2.21875 L 17.96875 -12.921875 L 20.484375 -10.28125 L 18.234375 -8.125 C 19.535156 -8.375 20.832031 -8.265625 22.125 -7.796875 C 23.425781 -7.328125 24.59375 -6.554688 25.625 -5.484375 Z M 25.625 -5.484375 "/></g></g></g><g fill="#fcfdf2" fill-opacity="1"><g transform="translate(32.709144, 55.259677)"><g><path d="M 19.359375 -17.265625 C 18.816406 -17.679688 18.5 -18.226562 18.40625 -18.90625 C 18.3125 -19.582031 18.476562 -20.195312 18.90625 -20.75 C 19.320312 -21.300781 19.863281 -21.617188 20.53125 -21.703125 C 21.207031 -21.796875 21.816406 -21.632812 22.359375 -21.21875 C 22.890625 -20.8125 23.195312 -20.273438 23.28125 -19.609375 C 23.363281 -18.953125 23.195312 -18.347656 22.78125 -17.796875 C 22.351562 -17.242188 21.804688 -16.914062 21.140625 -16.8125 C 20.484375 -16.707031 19.890625 -16.859375 19.359375 -17.265625 Z M 18.609375 -13.375 L 5.34375 4.0625 L 2.453125 1.859375 L 15.71875 -15.578125 Z M 18.609375 -13.375 "/></g></g></g><g fill="#fcfdf2" fill-opacity="1"><g transform="translate(42.172265, 62.921536)"><g><path d="M 6.765625 -8.828125 C 7.847656 -10.816406 9.1875 -12.335938 10.78125 -13.390625 C 12.382812 -14.453125 14.117188 -15.003906 15.984375 -15.046875 C 17.859375 -15.097656 19.707031 -14.628906 21.53125 -13.640625 C 23.894531 -12.347656 25.53125 -10.710938 26.4375 -8.734375 C 27.34375 -6.753906 27.492188 -4.613281 26.890625 -2.3125 L 23.4375 -4.171875 C 23.75 -5.535156 23.613281 -6.8125 23.03125 -8 C 22.457031 -9.195312 21.46875 -10.175781 20.0625 -10.9375 C 18.238281 -11.925781 16.421875 -12.101562 14.609375 -11.46875 C 12.804688 -10.832031 11.28125 -9.363281 10.03125 -7.0625 C 8.769531 -4.738281 8.359375 -2.640625 8.796875 -0.765625 C 9.234375 1.109375 10.363281 2.539062 12.1875 3.53125 C 13.59375 4.289062 14.941406 4.597656 16.234375 4.453125 C 17.523438 4.316406 18.675781 3.738281 19.6875 2.71875 L 23.140625 4.578125 C 21.546875 6.265625 19.65625 7.273438 17.46875 7.609375 C 15.289062 7.953125 13.039062 7.492188 10.71875 6.234375 C 8.894531 5.242188 7.492188 3.953125 6.515625 2.359375 C 5.546875 0.773438 5.070312 -0.976562 5.09375 -2.90625 C 5.113281 -4.84375 5.671875 -6.816406 6.765625 -8.828125 Z M 6.765625 -8.828125 "/></g></g></g><g fill="#fcfdf2" fill-opacity="1"><g transform="translate(66.386369, 75.737077)"><g><path d="M 25.4375 -4.921875 C 25.25 -4.253906 25.003906 -3.566406 24.703125 -2.859375 L 7.875 -7.703125 C 7.414062 -5.597656 7.660156 -3.773438 8.609375 -2.234375 C 9.566406 -0.691406 10.96875 0.34375 12.8125 0.875 C 14.332031 1.3125 15.695312 1.320312 16.90625 0.90625 C 18.125 0.488281 19.109375 -0.242188 19.859375 -1.296875 L 23.609375 -0.203125 C 22.460938 1.648438 20.863281 2.960938 18.8125 3.734375 C 16.757812 4.515625 14.476562 4.546875 11.96875 3.828125 C 9.96875 3.253906 8.304688 2.289062 6.984375 0.9375 C 5.671875 -0.414062 4.804688 -2.046875 4.390625 -3.953125 C 3.972656 -5.859375 4.078125 -7.898438 4.703125 -10.078125 C 5.328125 -12.253906 6.3125 -14.035156 7.65625 -15.421875 C 9 -16.816406 10.582031 -17.726562 12.40625 -18.15625 C 14.238281 -18.582031 16.179688 -18.5 18.234375 -17.90625 C 20.234375 -17.332031 21.875 -16.390625 23.15625 -15.078125 C 24.445312 -13.765625 25.289062 -12.222656 25.6875 -10.453125 C 26.082031 -8.691406 26 -6.847656 25.4375 -4.921875 Z M 22.03125 -6.703125 C 22.414062 -8.035156 22.453125 -9.269531 22.140625 -10.40625 C 21.828125 -11.539062 21.238281 -12.5 20.375 -13.28125 C 19.507812 -14.070312 18.460938 -14.644531 17.234375 -15 C 15.472656 -15.507812 13.804688 -15.378906 12.234375 -14.609375 C 10.660156 -13.847656 9.5 -12.492188 8.75 -10.546875 Z M 22.03125 -6.703125 "/></g></g></g><g fill="#fcfdf2" fill-opacity="1"><g transform="translate(92.641269, 82.545604)"><g/></g></g><g fill="#fcfdf2" fill-opacity="1"><g transform="translate(105.705338, 84.63986)"><g><path d="M 5.921875 -18.15625 C 6.578125 -19.4375 7.597656 -20.53125 8.984375 -21.4375 C 10.367188 -22.34375 12.007812 -22.835938 13.90625 -22.921875 C 15.84375 -23.003906 17.625 -22.613281 19.25 -21.75 C 20.882812 -20.894531 22.191406 -19.640625 23.171875 -17.984375 C 24.148438 -16.328125 24.6875 -14.378906 24.78125 -12.140625 C 24.882812 -9.941406 24.523438 -7.957031 23.703125 -6.1875 C 22.878906 -4.414062 21.691406 -3.015625 20.140625 -1.984375 C 18.597656 -0.953125 16.859375 -0.394531 14.921875 -0.3125 C 13.046875 -0.226562 11.378906 -0.570312 9.921875 -1.34375 C 8.460938 -2.113281 7.332031 -3.109375 6.53125 -4.328125 L 7.1875 10.078125 L 3.546875 10.234375 L 2.09375 -22.03125 L 5.734375 -22.1875 Z M 21.078125 -11.984375 C 21.003906 -13.640625 20.609375 -15.0625 19.890625 -16.25 C 19.171875 -17.445312 18.226562 -18.335938 17.0625 -18.921875 C 15.894531 -19.515625 14.632812 -19.78125 13.28125 -19.71875 C 11.945312 -19.664062 10.726562 -19.285156 9.625 -18.578125 C 8.519531 -17.878906 7.660156 -16.894531 7.046875 -15.625 C 6.429688 -14.351562 6.160156 -12.90625 6.234375 -11.28125 C 6.304688 -9.625 6.703125 -8.191406 7.421875 -6.984375 C 8.148438 -5.785156 9.097656 -4.882812 10.265625 -4.28125 C 11.429688 -3.6875 12.679688 -3.414062 14.015625 -3.46875 C 15.367188 -3.53125 16.597656 -3.910156 17.703125 -4.609375 C 18.804688 -5.316406 19.664062 -6.300781 20.28125 -7.5625 C 20.894531 -8.832031 21.160156 -10.304688 21.078125 -11.984375 Z M 21.078125 -11.984375 "/></g></g></g><g fill="#fcfdf2" fill-opacity="1"><g transform="translate(135.999307, 82.812361)"><g><path d="M 7.3125 -25.265625 C 8.90625 -25.722656 10.4375 -25.796875 11.90625 -25.484375 C 13.382812 -25.171875 14.679688 -24.4375 15.796875 -23.28125 C 16.921875 -22.132812 17.757812 -20.585938 18.3125 -18.640625 L 21.84375 -6.21875 L 18.375 -5.234375 L 14.984375 -17.15625 C 14.390625 -19.257812 13.40625 -20.71875 12.03125 -21.53125 C 10.664062 -22.34375 9.078125 -22.492188 7.265625 -21.984375 C 5.410156 -21.453125 4.101562 -20.453125 3.34375 -18.984375 C 2.59375 -17.523438 2.53125 -15.691406 3.15625 -13.484375 L 6.46875 -1.84375 L 2.953125 -0.84375 L -5.140625 -29.3125 L -1.625 -30.3125 L 1.328125 -19.921875 C 1.710938 -21.191406 2.425781 -22.289062 3.46875 -23.21875 C 4.519531 -24.15625 5.800781 -24.835938 7.3125 -25.265625 Z M 7.3125 -25.265625 "/></g></g></g><g fill="#fcfdf2" fill-opacity="1"><g transform="translate(163.630397, 74.570459)"><g><path d="M 11.25 -5.78125 C 9.445312 -4.789062 7.59375 -4.300781 5.6875 -4.3125 C 3.78125 -4.332031 1.992188 -4.863281 0.328125 -5.90625 C -1.328125 -6.957031 -2.707031 -8.476562 -3.8125 -10.46875 C -4.882812 -12.425781 -5.410156 -14.390625 -5.390625 -16.359375 C -5.367188 -18.335938 -4.84375 -20.132812 -3.8125 -21.75 C -2.789062 -23.363281 -1.367188 -24.671875 0.453125 -25.671875 C 2.273438 -26.671875 4.144531 -27.175781 6.0625 -27.1875 C 7.976562 -27.195312 9.773438 -26.6875 11.453125 -25.65625 C 13.128906 -24.632812 14.507812 -23.132812 15.59375 -21.15625 C 16.695312 -19.164062 17.222656 -17.175781 17.171875 -15.1875 C 17.128906 -13.207031 16.582031 -11.394531 15.53125 -9.75 C 14.488281 -8.101562 13.0625 -6.78125 11.25 -5.78125 Z M 9.703125 -8.578125 C 10.835938 -9.210938 11.757812 -10.070312 12.46875 -11.15625 C 13.1875 -12.25 13.554688 -13.503906 13.578125 -14.921875 C 13.609375 -16.335938 13.195312 -17.816406 12.34375 -19.359375 C 11.5 -20.898438 10.472656 -22.035156 9.265625 -22.765625 C 8.066406 -23.503906 6.832031 -23.863281 5.5625 -23.84375 C 4.300781 -23.832031 3.097656 -23.515625 1.953125 -22.890625 C 0.785156 -22.242188 -0.132812 -21.390625 -0.8125 -20.328125 C -1.5 -19.273438 -1.835938 -18.050781 -1.828125 -16.65625 C -1.816406 -15.269531 -1.390625 -13.804688 -0.546875 -12.265625 C 0.316406 -10.691406 1.328125 -9.523438 2.484375 -8.765625 C 3.648438 -8.003906 4.851562 -7.625 6.09375 -7.625 C 7.34375 -7.632812 8.546875 -7.953125 9.703125 -8.578125 Z M 9.703125 -8.578125 "/></g></g></g><g fill="#fcfdf2" fill-opacity="1"><g transform="translate(187.955428, 60.352028)"><g><path d="M -6.09375 -19.40625 L 2.046875 -9.390625 C 2.722656 -8.554688 3.375 -8.113281 4 -8.0625 C 4.632812 -8.007812 5.390625 -8.335938 6.265625 -9.046875 L 8.34375 -10.734375 L 10.28125 -8.34375 L 7.734375 -6.265625 C 6.160156 -4.992188 4.6875 -4.398438 3.3125 -4.484375 C 1.9375 -4.566406 0.578125 -5.4375 -0.765625 -7.09375 L -8.90625 -17.109375 L -11.109375 -15.328125 L -13 -17.671875 L -10.796875 -19.453125 L -14.265625 -23.734375 L -11.453125 -26.03125 L -7.984375 -21.75 L -3.53125 -25.359375 L -1.640625 -23.015625 Z M -6.09375 -19.40625 "/></g></g></g><g fill="#fcfdf2" fill-opacity="1"><g transform="translate(201.486565, 49.691104)"><g><path d="M 8.515625 -9.34375 C 7.171875 -7.789062 5.601562 -6.6875 3.8125 -6.03125 C 2.019531 -5.375 0.164062 -5.242188 -1.75 -5.640625 C -3.664062 -6.046875 -5.488281 -6.988281 -7.21875 -8.46875 C -8.914062 -9.9375 -10.097656 -11.597656 -10.765625 -13.453125 C -11.429688 -15.316406 -11.5625 -17.179688 -11.15625 -19.046875 C -10.757812 -20.921875 -9.882812 -22.648438 -8.53125 -24.234375 C -7.175781 -25.804688 -5.601562 -26.925781 -3.8125 -27.59375 C -2.019531 -28.269531 -0.160156 -28.421875 1.765625 -28.046875 C 3.703125 -27.671875 5.523438 -26.742188 7.234375 -25.265625 C 8.960938 -23.785156 10.148438 -22.109375 10.796875 -20.234375 C 11.453125 -18.359375 11.570312 -16.46875 11.15625 -14.5625 C 10.75 -12.65625 9.867188 -10.914062 8.515625 -9.34375 Z M 6.09375 -11.4375 C 6.9375 -12.425781 7.5 -13.550781 7.78125 -14.8125 C 8.070312 -16.082031 7.984375 -17.382812 7.515625 -18.71875 C 7.054688 -20.0625 6.15625 -21.304688 4.8125 -22.453125 C 3.476562 -23.597656 2.117188 -24.304688 0.734375 -24.578125 C -0.640625 -24.859375 -1.914062 -24.769531 -3.09375 -24.3125 C -4.28125 -23.851562 -5.304688 -23.125 -6.171875 -22.125 C -7.035156 -21.113281 -7.597656 -19.992188 -7.859375 -18.765625 C -8.128906 -17.546875 -8.019531 -16.28125 -7.53125 -14.96875 C -7.039062 -13.664062 -6.128906 -12.441406 -4.796875 -11.296875 C -3.429688 -10.128906 -2.070312 -9.390625 -0.71875 -9.078125 C 0.632812 -8.773438 1.894531 -8.84375 3.0625 -9.28125 C 4.226562 -9.726562 5.238281 -10.445312 6.09375 -11.4375 Z M 6.09375 -11.4375 "/></g></g></g></g></g></svg>