<svg xmlns="http://www.w3.org/2000/svg" xmlns:xlink="http://www.w3.org/1999/xlink" width="2000" zoomAndPan="magnify" viewBox="0 0 1500 1499.999933" height="2000" preserveAspectRatio="xMidYMid meet" version="1.0"><defs><g/><clipPath id="c705100959"><rect x="0" width="1379" y="0" height="701"/></clipPath><clipPath id="43049585e0"><path d="M 172.328125 409.484375 L 470.078125 409.484375 L 470.078125 693.734375 L 172.328125 693.734375 Z M 172.328125 409.484375 " clip-rule="nonzero"/></clipPath><clipPath id="14a9b398b6"><path d="M 1081.96875 666.457031 L 1379.71875 666.457031 L 1379.71875 950.703125 L 1081.96875 950.703125 Z M 1081.96875 666.457031 " clip-rule="nonzero"/></clipPath><clipPath id="5012e1ab9f"><rect x="0" width="494" y="0" height="178"/></clipPath></defs><g transform="matrix(1, 0, 0, 1, 70, 380)"><g clip-path="url(#c705100959)"><g fill="#cf005e" fill-opacity="1"><g transform="translate(96.690359, 588.441189)"><g><path d="M 194.015625 -14.625 C 179.484375 -13.707031 166.34375 -16.722656 154.59375 -23.671875 C 142.84375 -30.617188 133.929688 -40.019531 127.859375 -51.875 C 121.796875 -63.738281 119.820312 -76.8125 121.9375 -91.09375 C 123.300781 -100.9375 127.28125 -110.539062 133.875 -119.90625 C 140.46875 -129.28125 149.785156 -137.59375 161.828125 -144.84375 C 155.929688 -131.40625 153.328125 -120.816406 154.015625 -113.078125 C 154.710938 -105.335938 157.742188 -100.070312 163.109375 -97.28125 C 168.472656 -94.488281 174.757812 -93.566406 181.96875 -94.515625 C 183.28125 -94.691406 184.507812 -94.851562 185.65625 -95 C 186.800781 -95.15625 188.007812 -95.484375 189.28125 -95.984375 C 203.09375 -99.816406 213.898438 -106.242188 221.703125 -115.265625 C 229.515625 -124.296875 234.273438 -134.335938 235.984375 -145.390625 C 237.691406 -156.453125 236.0625 -166.898438 231.09375 -176.734375 C 226.125 -186.578125 217.6875 -194.296875 205.78125 -199.890625 C 193.875 -205.492188 178.398438 -207.203125 159.359375 -205.015625 C 148.710938 -179.609375 140.519531 -159.613281 134.78125 -145.03125 C 129.050781 -130.445312 124.71875 -119.125 121.78125 -111.0625 C 118.851562 -103.007812 116.140625 -95.820312 113.640625 -89.5 C 107.835938 -75.394531 101.914062 -62.195312 95.875 -49.90625 C 89.832031 -37.613281 83.078125 -27.554688 75.609375 -19.734375 C 68.148438 -11.910156 59.179688 -7.304688 48.703125 -5.921875 C 32.984375 -3.847656 20.394531 -5.1875 10.9375 -9.9375 C 1.488281 -14.6875 -5.910156 -21.539062 -11.265625 -30.5 C -16.617188 -39.46875 -21.316406 -49.179688 -25.359375 -59.640625 C -21.671875 -59.453125 -18.078125 -59.34375 -14.578125 -59.3125 C -11.078125 -59.28125 -7.691406 -59.476562 -4.421875 -59.90625 C 6.054688 -61.289062 15.785156 -64.570312 24.765625 -69.75 C 33.753906 -74.9375 41.910156 -81.347656 49.234375 -88.984375 C 60.660156 -100.828125 70.84375 -115.171875 79.78125 -132.015625 C 88.71875 -148.859375 97.222656 -167.0625 105.296875 -186.625 C 113.378906 -206.1875 121.429688 -225.992188 129.453125 -246.046875 C 137.472656 -266.097656 146.179688 -285.328125 155.578125 -303.734375 C 164.972656 -322.140625 175.585938 -338.289062 187.421875 -352.1875 C 194.597656 -360.800781 201.175781 -367.082031 207.15625 -371.03125 C 213.132812 -374.988281 218.414062 -377.269531 223 -377.875 C 227.914062 -378.53125 232.132812 -377.507812 235.65625 -374.8125 C 239.175781 -372.113281 241.941406 -368.226562 243.953125 -363.15625 C 238.472656 -361.769531 232.335938 -357.125 225.546875 -349.21875 C 218.765625 -341.320312 211.957031 -331.675781 205.125 -320.28125 C 198.289062 -308.882812 191.800781 -296.78125 185.65625 -283.96875 C 179.519531 -271.15625 174.21875 -258.957031 169.75 -247.375 C 165.289062 -235.789062 162.25 -226.054688 160.625 -218.171875 C 166.65625 -217.960938 172.625 -218.25 178.53125 -219.03125 C 194.894531 -221.195312 209.796875 -226.914062 223.234375 -236.1875 C 236.671875 -245.46875 248.039062 -257.140625 257.34375 -271.203125 C 266.65625 -285.265625 273.21875 -300.539062 277.03125 -317.03125 C 284.476562 -349.007812 281.488281 -372.941406 268.0625 -388.828125 C 254.632812 -404.710938 232.367188 -411.769531 201.265625 -410 C 178.117188 -408.613281 157.867188 -403.601562 140.515625 -394.96875 C 123.171875 -386.34375 108.96875 -375.96875 97.90625 -363.84375 C 86.84375 -351.71875 79.515625 -339.671875 75.921875 -327.703125 C 72.335938 -315.734375 72.835938 -305.632812 77.421875 -297.40625 C 82.003906 -289.1875 91.160156 -284.816406 104.890625 -284.296875 C 98.203125 -269.421875 90.414062 -258.394531 81.53125 -251.21875 C 72.644531 -244.039062 63.945312 -239.890625 55.4375 -238.765625 C 44.300781 -237.296875 34.195312 -239.957031 25.125 -246.75 C 16.0625 -253.550781 9.972656 -263.078125 6.859375 -275.328125 C 3.742188 -287.585938 5.226562 -300.945312 11.3125 -315.40625 C 19.894531 -336.21875 32.84375 -354.265625 50.15625 -369.546875 C 67.46875 -384.835938 87 -397.164062 108.75 -406.53125 C 130.5 -415.894531 152.1875 -422.003906 173.8125 -424.859375 C 197.070312 -427.929688 218.273438 -426.984375 237.421875 -422.015625 C 256.566406 -417.046875 273 -409.300781 286.71875 -398.78125 C 300.4375 -388.269531 310.800781 -376.0625 317.8125 -362.15625 C 324.820312 -348.25 327.820312 -333.734375 326.8125 -318.609375 C 325.789062 -301.148438 319.035156 -284.179688 306.546875 -267.703125 C 294.066406 -251.222656 274.75 -237.253906 248.59375 -225.796875 C 262.4375 -221.960938 272.765625 -214.410156 279.578125 -203.140625 C 286.398438 -191.878906 290.394531 -178.660156 291.5625 -163.484375 C 292.738281 -148.304688 291.582031 -132.492188 288.09375 -116.046875 C 283.65625 -99.140625 277.234375 -83.378906 268.828125 -68.765625 C 260.429688 -54.160156 250.285156 -42.070312 238.390625 -32.5 C 226.492188 -22.925781 213.335938 -17.1875 198.921875 -15.28125 Z M 194.015625 -14.625 "/></g></g></g><g fill="#cf005e" fill-opacity="1"><g transform="translate(402.24064, 548.070781)"><g><path d="M 38.328125 -5.0625 C 28.492188 -3.757812 19.835938 -6.195312 12.359375 -12.375 C 4.878906 -18.550781 -0.945312 -27.363281 -5.125 -38.8125 C -9.3125 -50.257812 -11.273438 -63.25 -11.015625 -77.78125 C -10.765625 -92.3125 -7.644531 -107.140625 -1.65625 -122.265625 C 4.0625 -137.015625 11.660156 -152.015625 21.140625 -167.265625 C 30.628906 -182.515625 41.644531 -195.628906 54.1875 -206.609375 C 66.726562 -217.597656 79.914062 -223.675781 93.75 -224.84375 C 103.351562 -225.4375 111.660156 -223.113281 118.671875 -217.875 C 125.691406 -212.632812 130.019531 -205.128906 131.65625 -195.359375 C 133.539062 -201.265625 135.59375 -207.78125 137.8125 -214.90625 C 140.03125 -222.039062 140.113281 -227.132812 138.0625 -230.1875 L 197.5 -238.046875 C 194.101562 -235.921875 189.867188 -230.109375 184.796875 -220.609375 C 179.722656 -211.109375 174.484375 -199.671875 169.078125 -186.296875 C 163.679688 -172.921875 158.695312 -159.601562 154.125 -146.34375 C 147.613281 -127.476562 145.273438 -113.003906 147.109375 -102.921875 C 148.953125 -92.835938 153.429688 -87.347656 160.546875 -86.453125 C 167.660156 -85.554688 175.941406 -89.0625 185.390625 -96.96875 C 194.847656 -104.882812 203.773438 -117.398438 212.171875 -134.515625 L 225.21875 -122.734375 C 214.769531 -101.023438 203.347656 -82.1875 190.953125 -66.21875 C 178.566406 -50.25 166.4375 -37.984375 154.5625 -29.421875 C 142.695312 -20.859375 132.097656 -16.628906 122.765625 -16.734375 C 113.742188 -16.867188 106.890625 -22.039062 102.203125 -32.25 C 97.523438 -42.457031 96.421875 -58.390625 98.890625 -80.046875 C 94.847656 -67.847656 89.726562 -56.175781 83.53125 -45.03125 C 77.332031 -33.882812 70.378906 -24.71875 62.671875 -17.53125 C 54.960938 -10.34375 46.847656 -6.1875 38.328125 -5.0625 Z M 50.015625 -71.578125 C 58.210938 -72.660156 66.164062 -76.796875 73.875 -83.984375 C 81.59375 -91.171875 88.835938 -100.039062 95.609375 -110.59375 C 102.378906 -121.15625 107.875 -131.882812 112.09375 -142.78125 C 118.570312 -159.289062 121.238281 -171.882812 120.09375 -180.5625 C 118.945312 -189.25 114.472656 -195.410156 106.671875 -199.046875 C 98.984375 -201.703125 91.398438 -200.453125 83.921875 -195.296875 C 76.441406 -190.140625 69.554688 -182.976562 63.265625 -173.8125 C 56.984375 -164.644531 51.519531 -154.925781 46.875 -144.65625 C 41.144531 -132.570312 36.96875 -120.6875 34.34375 -109 C 31.71875 -97.320312 31.625 -87.894531 34.0625 -80.71875 C 36.507812 -73.539062 41.828125 -70.492188 50.015625 -71.578125 Z M 50.015625 -71.578125 "/></g></g></g><g fill="#cf005e" fill-opacity="1"><g transform="translate(616.913115, 519.707478)"><g><path d="M 41.171875 -70.421875 C 42.523438 -70.265625 44.347656 -70.335938 46.640625 -70.640625 C 56.140625 -71.898438 65.351562 -77.203125 74.28125 -86.546875 C 83.21875 -95.890625 91.015625 -106.914062 97.671875 -119.625 C 104.328125 -132.34375 108.578125 -144.316406 110.421875 -155.546875 C 102.804688 -147.546875 94.265625 -144.085938 84.796875 -145.171875 C 90.210938 -149.554688 93.742188 -155.601562 95.390625 -163.3125 C 97.046875 -171.019531 96.882812 -177.910156 94.90625 -183.984375 C 92.9375 -190.066406 88.675781 -192.675781 82.125 -191.8125 L 80.15625 -191.5625 C 71.5 -189.070312 63.410156 -183.5 55.890625 -174.84375 C 48.367188 -166.1875 41.953125 -156.085938 36.640625 -144.546875 C 31.328125 -133.015625 27.664062 -121.617188 25.65625 -110.359375 C 23.644531 -99.109375 23.800781 -89.71875 26.125 -82.1875 C 28.457031 -74.65625 33.472656 -70.734375 41.171875 -70.421875 Z M 167.34375 -224.078125 C 176.445312 -228.265625 185.273438 -235.835938 193.828125 -246.796875 C 202.378906 -257.765625 209.90625 -270.175781 216.40625 -284.03125 C 222.90625 -297.882812 227.929688 -311.539062 231.484375 -325 C 235.046875 -338.46875 236.535156 -349.914062 235.953125 -359.34375 C 235.367188 -368.769531 232.144531 -374.257812 226.28125 -375.8125 C 222.84375 -376.695312 219.132812 -373.875 215.15625 -367.34375 C 211.1875 -360.820312 207.023438 -351.941406 202.671875 -340.703125 C 198.328125 -329.460938 193.976562 -316.972656 189.625 -303.234375 C 185.269531 -289.503906 181.257812 -275.726562 177.59375 -261.90625 C 173.925781 -248.09375 170.507812 -235.484375 167.34375 -224.078125 Z M 32.921875 -4.34375 C 22.804688 -2.675781 13.304688 -4.585938 4.421875 -10.078125 C -4.460938 -15.566406 -11.414062 -24.0625 -16.4375 -35.5625 C -21.457031 -47.0625 -23.707031 -60.925781 -23.1875 -77.15625 C -22.664062 -93.394531 -18.050781 -111.421875 -9.34375 -131.234375 C -2.96875 -146.066406 4.910156 -160.1875 14.296875 -173.59375 C 23.679688 -187 34.125 -198.125 45.625 -206.96875 C 57.132812 -215.820312 69.109375 -221.070312 81.546875 -222.71875 C 88.753906 -223.675781 96.34375 -223.015625 104.3125 -220.734375 C 112.28125 -218.460938 117.597656 -213.5 120.265625 -205.84375 C 123.835938 -216.65625 126.863281 -226.550781 129.34375 -235.53125 C 131.820312 -244.519531 134.476562 -254.035156 137.3125 -264.078125 C 140.15625 -274.128906 143.492188 -286.070312 147.328125 -299.90625 C 154.566406 -325.851562 162.054688 -346.085938 169.796875 -360.609375 C 177.546875 -375.128906 185.425781 -385.5 193.4375 -391.71875 C 201.457031 -397.9375 209.226562 -401.539062 216.75 -402.53125 C 222.644531 -403.3125 228.175781 -403.046875 233.34375 -401.734375 C 245.695312 -399.046875 254.226562 -392.507812 258.9375 -382.125 C 263.644531 -371.75 265.226562 -359.128906 263.6875 -344.265625 C 262.15625 -329.398438 258.40625 -313.65625 252.4375 -297.03125 C 246.46875 -280.414062 238.75 -264.398438 229.28125 -248.984375 C 219.820312 -233.578125 209.4375 -220.125 198.125 -208.625 C 186.8125 -197.132812 175.296875 -189.117188 163.578125 -184.578125 C 161.492188 -177.628906 159.757812 -168.648438 158.375 -157.640625 C 157 -146.628906 156.460938 -135.5625 156.765625 -124.4375 C 157.066406 -113.3125 158.847656 -104.210938 162.109375 -97.140625 C 165.378906 -90.078125 170.457031 -87 177.34375 -87.90625 C 188.46875 -89.382812 199.507812 -94.675781 210.46875 -103.78125 C 221.4375 -112.894531 230.179688 -125.550781 236.703125 -141.75 L 248.984375 -128.375 C 237.535156 -98.875 223.226562 -74.070312 206.0625 -53.96875 C 188.894531 -33.875 169.664062 -22.421875 148.375 -19.609375 C 136.257812 -18.003906 126.132812 -22.742188 118 -33.828125 C 109.863281 -44.921875 105.410156 -58.414062 104.640625 -74.3125 C 102.109375 -63.320312 96.769531 -52.703125 88.625 -42.453125 C 80.476562 -32.210938 71.351562 -23.675781 61.25 -16.84375 C 51.15625 -10.007812 41.710938 -5.84375 32.921875 -4.34375 Z M 32.921875 -4.34375 "/></g></g></g><g fill="#cf005e" fill-opacity="1"><g transform="translate(854.182125, 488.358638)"><g><path d="M 41.171875 -70.421875 C 42.523438 -70.265625 44.347656 -70.335938 46.640625 -70.640625 C 56.140625 -71.898438 65.351562 -77.203125 74.28125 -86.546875 C 83.21875 -95.890625 91.015625 -106.914062 97.671875 -119.625 C 104.328125 -132.34375 108.578125 -144.316406 110.421875 -155.546875 C 102.804688 -147.546875 94.265625 -144.085938 84.796875 -145.171875 C 90.210938 -149.554688 93.742188 -155.601562 95.390625 -163.3125 C 97.046875 -171.019531 96.882812 -177.910156 94.90625 -183.984375 C 92.9375 -190.066406 88.675781 -192.675781 82.125 -191.8125 L 80.15625 -191.5625 C 71.5 -189.070312 63.410156 -183.5 55.890625 -174.84375 C 48.367188 -166.1875 41.953125 -156.085938 36.640625 -144.546875 C 31.328125 -133.015625 27.664062 -121.617188 25.65625 -110.359375 C 23.644531 -99.109375 23.800781 -89.71875 26.125 -82.1875 C 28.457031 -74.65625 33.472656 -70.734375 41.171875 -70.421875 Z M 167.34375 -224.078125 C 176.445312 -228.265625 185.273438 -235.835938 193.828125 -246.796875 C 202.378906 -257.765625 209.90625 -270.175781 216.40625 -284.03125 C 222.90625 -297.882812 227.929688 -311.539062 231.484375 -325 C 235.046875 -338.46875 236.535156 -349.914062 235.953125 -359.34375 C 235.367188 -368.769531 232.144531 -374.257812 226.28125 -375.8125 C 222.84375 -376.695312 219.132812 -373.875 215.15625 -367.34375 C 211.1875 -360.820312 207.023438 -351.941406 202.671875 -340.703125 C 198.328125 -329.460938 193.976562 -316.972656 189.625 -303.234375 C 185.269531 -289.503906 181.257812 -275.726562 177.59375 -261.90625 C 173.925781 -248.09375 170.507812 -235.484375 167.34375 -224.078125 Z M 32.921875 -4.34375 C 22.804688 -2.675781 13.304688 -4.585938 4.421875 -10.078125 C -4.460938 -15.566406 -11.414062 -24.0625 -16.4375 -35.5625 C -21.457031 -47.0625 -23.707031 -60.925781 -23.1875 -77.15625 C -22.664062 -93.394531 -18.050781 -111.421875 -9.34375 -131.234375 C -2.96875 -146.066406 4.910156 -160.1875 14.296875 -173.59375 C 23.679688 -187 34.125 -198.125 45.625 -206.96875 C 57.132812 -215.820312 69.109375 -221.070312 81.546875 -222.71875 C 88.753906 -223.675781 96.34375 -223.015625 104.3125 -220.734375 C 112.28125 -218.460938 117.597656 -213.5 120.265625 -205.84375 C 123.835938 -216.65625 126.863281 -226.550781 129.34375 -235.53125 C 131.820312 -244.519531 134.476562 -254.035156 137.3125 -264.078125 C 140.15625 -274.128906 143.492188 -286.070312 147.328125 -299.90625 C 154.566406 -325.851562 162.054688 -346.085938 169.796875 -360.609375 C 177.546875 -375.128906 185.425781 -385.5 193.4375 -391.71875 C 201.457031 -397.9375 209.226562 -401.539062 216.75 -402.53125 C 222.644531 -403.3125 228.175781 -403.046875 233.34375 -401.734375 C 245.695312 -399.046875 254.226562 -392.507812 258.9375 -382.125 C 263.644531 -371.75 265.226562 -359.128906 263.6875 -344.265625 C 262.15625 -329.398438 258.40625 -313.65625 252.4375 -297.03125 C 246.46875 -280.414062 238.75 -264.398438 229.28125 -248.984375 C 219.820312 -233.578125 209.4375 -220.125 198.125 -208.625 C 186.8125 -197.132812 175.296875 -189.117188 163.578125 -184.578125 C 161.492188 -177.628906 159.757812 -168.648438 158.375 -157.640625 C 157 -146.628906 156.460938 -135.5625 156.765625 -124.4375 C 157.066406 -113.3125 158.847656 -104.210938 162.109375 -97.140625 C 165.378906 -90.078125 170.457031 -87 177.34375 -87.90625 C 188.46875 -89.382812 199.507812 -94.675781 210.46875 -103.78125 C 221.4375 -112.894531 230.179688 -125.550781 236.703125 -141.75 L 248.984375 -128.375 C 237.535156 -98.875 223.226562 -74.070312 206.0625 -53.96875 C 188.894531 -33.875 169.664062 -22.421875 148.375 -19.609375 C 136.257812 -18.003906 126.132812 -22.742188 118 -33.828125 C 109.863281 -44.921875 105.410156 -58.414062 104.640625 -74.3125 C 102.109375 -63.320312 96.769531 -52.703125 88.625 -42.453125 C 80.476562 -32.210938 71.351562 -23.675781 61.25 -16.84375 C 51.15625 -10.007812 41.710938 -5.84375 32.921875 -4.34375 Z M 32.921875 -4.34375 "/></g></g></g><g fill="#cf005e" fill-opacity="1"><g transform="translate(1080.642394, 458.437889)"><g><path d="M 58.59375 -233.6875 C 51.394531 -232.726562 46.191406 -234.285156 42.984375 -238.359375 C 39.773438 -242.441406 38.378906 -247.34375 38.796875 -253.0625 C 39.210938 -258.789062 41.335938 -264.15625 45.171875 -269.15625 C 49.003906 -274.15625 54.363281 -277.109375 61.25 -278.015625 C 68.445312 -278.972656 73.648438 -277.414062 76.859375 -273.34375 C 80.066406 -269.269531 81.460938 -264.367188 81.046875 -258.640625 C 80.640625 -252.921875 78.515625 -247.554688 74.671875 -242.546875 C 70.828125 -237.546875 65.46875 -234.59375 58.59375 -233.6875 Z M 22.5 0.015625 C 5.769531 -0.421875 -5.382812 -10.4375 -10.96875 -30.03125 C -16.550781 -49.632812 -13.289062 -77.894531 -1.1875 -114.8125 L 26.265625 -198.421875 C 26.765625 -202.160156 27.019531 -205.273438 27.03125 -207.765625 C 27.039062 -210.265625 26.21875 -212.738281 24.5625 -215.1875 L 80.640625 -222.09375 L 46.1875 -119.578125 C 39.3125 -101.003906 38.070312 -87.675781 42.46875 -79.59375 C 46.863281 -71.507812 53.648438 -68.070312 62.828125 -69.28125 C 71.671875 -70.445312 81.410156 -75.5625 92.046875 -84.625 C 102.679688 -93.695312 111.460938 -106.03125 118.390625 -121.625 L 130.234375 -107.703125 C 120.492188 -83.085938 109.273438 -62.6875 96.578125 -46.5 C 83.878906 -30.320312 71.113281 -18.46875 58.28125 -10.9375 C 45.457031 -3.414062 33.53125 0.234375 22.5 0.015625 Z M 22.5 0.015625 "/></g></g></g><g fill="#cf005e" fill-opacity="1"><g transform="translate(1194.608575, 443.380265)"><g><path d="M 32.921875 -4.34375 C 19.160156 -2.53125 8.078125 -5.066406 -0.328125 -11.953125 C -8.734375 -18.835938 -14.597656 -28.554688 -17.921875 -41.109375 C -21.253906 -53.671875 -22.273438 -67.695312 -20.984375 -83.1875 C -19.703125 -98.6875 -16.429688 -114.289062 -11.171875 -130 C -6.585938 -143.269531 -0.613281 -156.054688 6.75 -168.359375 C 14.125 -180.660156 22.632812 -191.28125 32.28125 -200.21875 C 41.9375 -209.164062 52.34375 -215.539062 63.5 -219.34375 C 74.664062 -223.15625 86.160156 -223.171875 97.984375 -219.390625 C 109.453125 -215.898438 117.242188 -209.265625 121.359375 -199.484375 C 125.484375 -189.703125 126.5625 -179.015625 124.59375 -167.421875 C 122.632812 -155.835938 118.425781 -145.453125 111.96875 -136.265625 C 105.84375 -127.117188 97.34375 -120.160156 86.46875 -115.390625 C 75.601562 -110.628906 64.941406 -108.722656 54.484375 -109.671875 C 44.035156 -110.628906 35.8125 -114.875 29.8125 -122.40625 C 25.71875 -110.539062 24.851562 -100.679688 27.21875 -92.828125 C 29.59375 -84.972656 34.171875 -79.328125 40.953125 -75.890625 C 47.742188 -72.460938 55.582031 -71.164062 64.46875 -72 C 76.632812 -73.28125 89.148438 -78.1875 102.015625 -86.71875 C 114.878906 -95.25 125.226562 -107.695312 133.0625 -124.0625 C 135.257812 -122.675781 137.539062 -121.222656 139.90625 -119.703125 C 142.269531 -118.179688 144.5625 -116.570312 146.78125 -114.875 C 140.351562 -98.03125 131.289062 -81.5 119.59375 -65.28125 C 107.90625 -49.070312 94.628906 -35.40625 79.765625 -24.28125 C 64.910156 -13.15625 49.296875 -6.507812 32.921875 -4.34375 Z M 59.421875 -132.828125 C 64.210938 -134.453125 68.59375 -137.273438 72.5625 -141.296875 C 76.53125 -145.316406 80.195312 -149.722656 83.5625 -154.515625 C 86.507812 -159.898438 88.972656 -165.800781 90.953125 -172.21875 C 92.941406 -178.644531 93.765625 -184.421875 93.421875 -189.546875 C 93.085938 -194.671875 90.84375 -197.789062 86.6875 -198.90625 C 83.238281 -199.78125 78.957031 -198.128906 73.84375 -193.953125 C 68.726562 -189.785156 63.550781 -184.1875 58.3125 -177.15625 C 53.082031 -170.132812 48.546875 -162.867188 44.703125 -155.359375 C 40.859375 -147.859375 38.328125 -141.195312 37.109375 -135.375 C 45.003906 -131.082031 52.441406 -130.234375 59.421875 -132.828125 Z M 59.421875 -132.828125 "/></g></g></g><g fill="#fc94c3" fill-opacity="1"><g transform="translate(73.091772, 570.350722)"><g><path d="M 194.015625 -14.625 C 179.484375 -13.707031 166.34375 -16.722656 154.59375 -23.671875 C 142.84375 -30.617188 133.929688 -40.019531 127.859375 -51.875 C 121.796875 -63.738281 119.820312 -76.8125 121.9375 -91.09375 C 123.300781 -100.9375 127.28125 -110.539062 133.875 -119.90625 C 140.46875 -129.28125 149.785156 -137.59375 161.828125 -144.84375 C 155.929688 -131.40625 153.328125 -120.816406 154.015625 -113.078125 C 154.710938 -105.335938 157.742188 -100.070312 163.109375 -97.28125 C 168.472656 -94.488281 174.757812 -93.566406 181.96875 -94.515625 C 183.28125 -94.691406 184.507812 -94.851562 185.65625 -95 C 186.800781 -95.15625 188.007812 -95.484375 189.28125 -95.984375 C 203.09375 -99.816406 213.898438 -106.242188 221.703125 -115.265625 C 229.515625 -124.296875 234.273438 -134.335938 235.984375 -145.390625 C 237.691406 -156.453125 236.0625 -166.898438 231.09375 -176.734375 C 226.125 -186.578125 217.6875 -194.296875 205.78125 -199.890625 C 193.875 -205.492188 178.398438 -207.203125 159.359375 -205.015625 C 148.710938 -179.609375 140.519531 -159.613281 134.78125 -145.03125 C 129.050781 -130.445312 124.71875 -119.125 121.78125 -111.0625 C 118.851562 -103.007812 116.140625 -95.820312 113.640625 -89.5 C 107.835938 -75.394531 101.914062 -62.195312 95.875 -49.90625 C 89.832031 -37.613281 83.078125 -27.554688 75.609375 -19.734375 C 68.148438 -11.910156 59.179688 -7.304688 48.703125 -5.921875 C 32.984375 -3.847656 20.394531 -5.1875 10.9375 -9.9375 C 1.488281 -14.6875 -5.910156 -21.539062 -11.265625 -30.5 C -16.617188 -39.46875 -21.316406 -49.179688 -25.359375 -59.640625 C -21.671875 -59.453125 -18.078125 -59.34375 -14.578125 -59.3125 C -11.078125 -59.28125 -7.691406 -59.476562 -4.421875 -59.90625 C 6.054688 -61.289062 15.785156 -64.570312 24.765625 -69.75 C 33.753906 -74.9375 41.910156 -81.347656 49.234375 -88.984375 C 60.660156 -100.828125 70.84375 -115.171875 79.78125 -132.015625 C 88.71875 -148.859375 97.222656 -167.0625 105.296875 -186.625 C 113.378906 -206.1875 121.429688 -225.992188 129.453125 -246.046875 C 137.472656 -266.097656 146.179688 -285.328125 155.578125 -303.734375 C 164.972656 -322.140625 175.585938 -338.289062 187.421875 -352.1875 C 194.597656 -360.800781 201.175781 -367.082031 207.15625 -371.03125 C 213.132812 -374.988281 218.414062 -377.269531 223 -377.875 C 227.914062 -378.53125 232.132812 -377.507812 235.65625 -374.8125 C 239.175781 -372.113281 241.941406 -368.226562 243.953125 -363.15625 C 238.472656 -361.769531 232.335938 -357.125 225.546875 -349.21875 C 218.765625 -341.320312 211.957031 -331.675781 205.125 -320.28125 C 198.289062 -308.882812 191.800781 -296.78125 185.65625 -283.96875 C 179.519531 -271.15625 174.21875 -258.957031 169.75 -247.375 C 165.289062 -235.789062 162.25 -226.054688 160.625 -218.171875 C 166.65625 -217.960938 172.625 -218.25 178.53125 -219.03125 C 194.894531 -221.195312 209.796875 -226.914062 223.234375 -236.1875 C 236.671875 -245.46875 248.039062 -257.140625 257.34375 -271.203125 C 266.65625 -285.265625 273.21875 -300.539062 277.03125 -317.03125 C 284.476562 -349.007812 281.488281 -372.941406 268.0625 -388.828125 C 254.632812 -404.710938 232.367188 -411.769531 201.265625 -410 C 178.117188 -408.613281 157.867188 -403.601562 140.515625 -394.96875 C 123.171875 -386.34375 108.96875 -375.96875 97.90625 -363.84375 C 86.84375 -351.71875 79.515625 -339.671875 75.921875 -327.703125 C 72.335938 -315.734375 72.835938 -305.632812 77.421875 -297.40625 C 82.003906 -289.1875 91.160156 -284.816406 104.890625 -284.296875 C 98.203125 -269.421875 90.414062 -258.394531 81.53125 -251.21875 C 72.644531 -244.039062 63.945312 -239.890625 55.4375 -238.765625 C 44.300781 -237.296875 34.195312 -239.957031 25.125 -246.75 C 16.0625 -253.550781 9.972656 -263.078125 6.859375 -275.328125 C 3.742188 -287.585938 5.226562 -300.945312 11.3125 -315.40625 C 19.894531 -336.21875 32.84375 -354.265625 50.15625 -369.546875 C 67.46875 -384.835938 87 -397.164062 108.75 -406.53125 C 130.5 -415.894531 152.1875 -422.003906 173.8125 -424.859375 C 197.070312 -427.929688 218.273438 -426.984375 237.421875 -422.015625 C 256.566406 -417.046875 273 -409.300781 286.71875 -398.78125 C 300.4375 -388.269531 310.800781 -376.0625 317.8125 -362.15625 C 324.820312 -348.25 327.820312 -333.734375 326.8125 -318.609375 C 325.789062 -301.148438 319.035156 -284.179688 306.546875 -267.703125 C 294.066406 -251.222656 274.75 -237.253906 248.59375 -225.796875 C 262.4375 -221.960938 272.765625 -214.410156 279.578125 -203.140625 C 286.398438 -191.878906 290.394531 -178.660156 291.5625 -163.484375 C 292.738281 -148.304688 291.582031 -132.492188 288.09375 -116.046875 C 283.65625 -99.140625 277.234375 -83.378906 268.828125 -68.765625 C 260.429688 -54.160156 250.285156 -42.070312 238.390625 -32.5 C 226.492188 -22.925781 213.335938 -17.1875 198.921875 -15.28125 Z M 194.015625 -14.625 "/></g></g></g><g fill="#fc94c3" fill-opacity="1"><g transform="translate(378.642053, 529.980315)"><g><path d="M 38.328125 -5.0625 C 28.492188 -3.757812 19.835938 -6.195312 12.359375 -12.375 C 4.878906 -18.550781 -0.945312 -27.363281 -5.125 -38.8125 C -9.3125 -50.257812 -11.273438 -63.25 -11.015625 -77.78125 C -10.765625 -92.3125 -7.644531 -107.140625 -1.65625 -122.265625 C 4.0625 -137.015625 11.660156 -152.015625 21.140625 -167.265625 C 30.628906 -182.515625 41.644531 -195.628906 54.1875 -206.609375 C 66.726562 -217.597656 79.914062 -223.675781 93.75 -224.84375 C 103.351562 -225.4375 111.660156 -223.113281 118.671875 -217.875 C 125.691406 -212.632812 130.019531 -205.128906 131.65625 -195.359375 C 133.539062 -201.265625 135.59375 -207.78125 137.8125 -214.90625 C 140.03125 -222.039062 140.113281 -227.132812 138.0625 -230.1875 L 197.5 -238.046875 C 194.101562 -235.921875 189.867188 -230.109375 184.796875 -220.609375 C 179.722656 -211.109375 174.484375 -199.671875 169.078125 -186.296875 C 163.679688 -172.921875 158.695312 -159.601562 154.125 -146.34375 C 147.613281 -127.476562 145.273438 -113.003906 147.109375 -102.921875 C 148.953125 -92.835938 153.429688 -87.347656 160.546875 -86.453125 C 167.660156 -85.554688 175.941406 -89.0625 185.390625 -96.96875 C 194.847656 -104.882812 203.773438 -117.398438 212.171875 -134.515625 L 225.21875 -122.734375 C 214.769531 -101.023438 203.347656 -82.1875 190.953125 -66.21875 C 178.566406 -50.25 166.4375 -37.984375 154.5625 -29.421875 C 142.695312 -20.859375 132.097656 -16.628906 122.765625 -16.734375 C 113.742188 -16.867188 106.890625 -22.039062 102.203125 -32.25 C 97.523438 -42.457031 96.421875 -58.390625 98.890625 -80.046875 C 94.847656 -67.847656 89.726562 -56.175781 83.53125 -45.03125 C 77.332031 -33.882812 70.378906 -24.71875 62.671875 -17.53125 C 54.960938 -10.34375 46.847656 -6.1875 38.328125 -5.0625 Z M 50.015625 -71.578125 C 58.210938 -72.660156 66.164062 -76.796875 73.875 -83.984375 C 81.59375 -91.171875 88.835938 -100.039062 95.609375 -110.59375 C 102.378906 -121.15625 107.875 -131.882812 112.09375 -142.78125 C 118.570312 -159.289062 121.238281 -171.882812 120.09375 -180.5625 C 118.945312 -189.25 114.472656 -195.410156 106.671875 -199.046875 C 98.984375 -201.703125 91.398438 -200.453125 83.921875 -195.296875 C 76.441406 -190.140625 69.554688 -182.976562 63.265625 -173.8125 C 56.984375 -164.644531 51.519531 -154.925781 46.875 -144.65625 C 41.144531 -132.570312 36.96875 -120.6875 34.34375 -109 C 31.71875 -97.320312 31.625 -87.894531 34.0625 -80.71875 C 36.507812 -73.539062 41.828125 -70.492188 50.015625 -71.578125 Z M 50.015625 -71.578125 "/></g></g></g><g fill="#fc94c3" fill-opacity="1"><g transform="translate(593.314528, 501.617011)"><g><path d="M 41.171875 -70.421875 C 42.523438 -70.265625 44.347656 -70.335938 46.640625 -70.640625 C 56.140625 -71.898438 65.351562 -77.203125 74.28125 -86.546875 C 83.21875 -95.890625 91.015625 -106.914062 97.671875 -119.625 C 104.328125 -132.34375 108.578125 -144.316406 110.421875 -155.546875 C 102.804688 -147.546875 94.265625 -144.085938 84.796875 -145.171875 C 90.210938 -149.554688 93.742188 -155.601562 95.390625 -163.3125 C 97.046875 -171.019531 96.882812 -177.910156 94.90625 -183.984375 C 92.9375 -190.066406 88.675781 -192.675781 82.125 -191.8125 L 80.15625 -191.5625 C 71.5 -189.070312 63.410156 -183.5 55.890625 -174.84375 C 48.367188 -166.1875 41.953125 -156.085938 36.640625 -144.546875 C 31.328125 -133.015625 27.664062 -121.617188 25.65625 -110.359375 C 23.644531 -99.109375 23.800781 -89.71875 26.125 -82.1875 C 28.457031 -74.65625 33.472656 -70.734375 41.171875 -70.421875 Z M 167.34375 -224.078125 C 176.445312 -228.265625 185.273438 -235.835938 193.828125 -246.796875 C 202.378906 -257.765625 209.90625 -270.175781 216.40625 -284.03125 C 222.90625 -297.882812 227.929688 -311.539062 231.484375 -325 C 235.046875 -338.46875 236.535156 -349.914062 235.953125 -359.34375 C 235.367188 -368.769531 232.144531 -374.257812 226.28125 -375.8125 C 222.84375 -376.695312 219.132812 -373.875 215.15625 -367.34375 C 211.1875 -360.820312 207.023438 -351.941406 202.671875 -340.703125 C 198.328125 -329.460938 193.976562 -316.972656 189.625 -303.234375 C 185.269531 -289.503906 181.257812 -275.726562 177.59375 -261.90625 C 173.925781 -248.09375 170.507812 -235.484375 167.34375 -224.078125 Z M 32.921875 -4.34375 C 22.804688 -2.675781 13.304688 -4.585938 4.421875 -10.078125 C -4.460938 -15.566406 -11.414062 -24.0625 -16.4375 -35.5625 C -21.457031 -47.0625 -23.707031 -60.925781 -23.1875 -77.15625 C -22.664062 -93.394531 -18.050781 -111.421875 -9.34375 -131.234375 C -2.96875 -146.066406 4.910156 -160.1875 14.296875 -173.59375 C 23.679688 -187 34.125 -198.125 45.625 -206.96875 C 57.132812 -215.820312 69.109375 -221.070312 81.546875 -222.71875 C 88.753906 -223.675781 96.34375 -223.015625 104.3125 -220.734375 C 112.28125 -218.460938 117.597656 -213.5 120.265625 -205.84375 C 123.835938 -216.65625 126.863281 -226.550781 129.34375 -235.53125 C 131.820312 -244.519531 134.476562 -254.035156 137.3125 -264.078125 C 140.15625 -274.128906 143.492188 -286.070312 147.328125 -299.90625 C 154.566406 -325.851562 162.054688 -346.085938 169.796875 -360.609375 C 177.546875 -375.128906 185.425781 -385.5 193.4375 -391.71875 C 201.457031 -397.9375 209.226562 -401.539062 216.75 -402.53125 C 222.644531 -403.3125 228.175781 -403.046875 233.34375 -401.734375 C 245.695312 -399.046875 254.226562 -392.507812 258.9375 -382.125 C 263.644531 -371.75 265.226562 -359.128906 263.6875 -344.265625 C 262.15625 -329.398438 258.40625 -313.65625 252.4375 -297.03125 C 246.46875 -280.414062 238.75 -264.398438 229.28125 -248.984375 C 219.820312 -233.578125 209.4375 -220.125 198.125 -208.625 C 186.8125 -197.132812 175.296875 -189.117188 163.578125 -184.578125 C 161.492188 -177.628906 159.757812 -168.648438 158.375 -157.640625 C 157 -146.628906 156.460938 -135.5625 156.765625 -124.4375 C 157.066406 -113.3125 158.847656 -104.210938 162.109375 -97.140625 C 165.378906 -90.078125 170.457031 -87 177.34375 -87.90625 C 188.46875 -89.382812 199.507812 -94.675781 210.46875 -103.78125 C 221.4375 -112.894531 230.179688 -125.550781 236.703125 -141.75 L 248.984375 -128.375 C 237.535156 -98.875 223.226562 -74.070312 206.0625 -53.96875 C 188.894531 -33.875 169.664062 -22.421875 148.375 -19.609375 C 136.257812 -18.003906 126.132812 -22.742188 118 -33.828125 C 109.863281 -44.921875 105.410156 -58.414062 104.640625 -74.3125 C 102.109375 -63.320312 96.769531 -52.703125 88.625 -42.453125 C 80.476562 -32.210938 71.351562 -23.675781 61.25 -16.84375 C 51.15625 -10.007812 41.710938 -5.84375 32.921875 -4.34375 Z M 32.921875 -4.34375 "/></g></g></g><g fill="#fc94c3" fill-opacity="1"><g transform="translate(830.583538, 470.268172)"><g><path d="M 41.171875 -70.421875 C 42.523438 -70.265625 44.347656 -70.335938 46.640625 -70.640625 C 56.140625 -71.898438 65.351562 -77.203125 74.28125 -86.546875 C 83.21875 -95.890625 91.015625 -106.914062 97.671875 -119.625 C 104.328125 -132.34375 108.578125 -144.316406 110.421875 -155.546875 C 102.804688 -147.546875 94.265625 -144.085938 84.796875 -145.171875 C 90.210938 -149.554688 93.742188 -155.601562 95.390625 -163.3125 C 97.046875 -171.019531 96.882812 -177.910156 94.90625 -183.984375 C 92.9375 -190.066406 88.675781 -192.675781 82.125 -191.8125 L 80.15625 -191.5625 C 71.5 -189.070312 63.410156 -183.5 55.890625 -174.84375 C 48.367188 -166.1875 41.953125 -156.085938 36.640625 -144.546875 C 31.328125 -133.015625 27.664062 -121.617188 25.65625 -110.359375 C 23.644531 -99.109375 23.800781 -89.71875 26.125 -82.1875 C 28.457031 -74.65625 33.472656 -70.734375 41.171875 -70.421875 Z M 167.34375 -224.078125 C 176.445312 -228.265625 185.273438 -235.835938 193.828125 -246.796875 C 202.378906 -257.765625 209.90625 -270.175781 216.40625 -284.03125 C 222.90625 -297.882812 227.929688 -311.539062 231.484375 -325 C 235.046875 -338.46875 236.535156 -349.914062 235.953125 -359.34375 C 235.367188 -368.769531 232.144531 -374.257812 226.28125 -375.8125 C 222.84375 -376.695312 219.132812 -373.875 215.15625 -367.34375 C 211.1875 -360.820312 207.023438 -351.941406 202.671875 -340.703125 C 198.328125 -329.460938 193.976562 -316.972656 189.625 -303.234375 C 185.269531 -289.503906 181.257812 -275.726562 177.59375 -261.90625 C 173.925781 -248.09375 170.507812 -235.484375 167.34375 -224.078125 Z M 32.921875 -4.34375 C 22.804688 -2.675781 13.304688 -4.585938 4.421875 -10.078125 C -4.460938 -15.566406 -11.414062 -24.0625 -16.4375 -35.5625 C -21.457031 -47.0625 -23.707031 -60.925781 -23.1875 -77.15625 C -22.664062 -93.394531 -18.050781 -111.421875 -9.34375 -131.234375 C -2.96875 -146.066406 4.910156 -160.1875 14.296875 -173.59375 C 23.679688 -187 34.125 -198.125 45.625 -206.96875 C 57.132812 -215.820312 69.109375 -221.070312 81.546875 -222.71875 C 88.753906 -223.675781 96.34375 -223.015625 104.3125 -220.734375 C 112.28125 -218.460938 117.597656 -213.5 120.265625 -205.84375 C 123.835938 -216.65625 126.863281 -226.550781 129.34375 -235.53125 C 131.820312 -244.519531 134.476562 -254.035156 137.3125 -264.078125 C 140.15625 -274.128906 143.492188 -286.070312 147.328125 -299.90625 C 154.566406 -325.851562 162.054688 -346.085938 169.796875 -360.609375 C 177.546875 -375.128906 185.425781 -385.5 193.4375 -391.71875 C 201.457031 -397.9375 209.226562 -401.539062 216.75 -402.53125 C 222.644531 -403.3125 228.175781 -403.046875 233.34375 -401.734375 C 245.695312 -399.046875 254.226562 -392.507812 258.9375 -382.125 C 263.644531 -371.75 265.226562 -359.128906 263.6875 -344.265625 C 262.15625 -329.398438 258.40625 -313.65625 252.4375 -297.03125 C 246.46875 -280.414062 238.75 -264.398438 229.28125 -248.984375 C 219.820312 -233.578125 209.4375 -220.125 198.125 -208.625 C 186.8125 -197.132812 175.296875 -189.117188 163.578125 -184.578125 C 161.492188 -177.628906 159.757812 -168.648438 158.375 -157.640625 C 157 -146.628906 156.460938 -135.5625 156.765625 -124.4375 C 157.066406 -113.3125 158.847656 -104.210938 162.109375 -97.140625 C 165.378906 -90.078125 170.457031 -87 177.34375 -87.90625 C 188.46875 -89.382812 199.507812 -94.675781 210.46875 -103.78125 C 221.4375 -112.894531 230.179688 -125.550781 236.703125 -141.75 L 248.984375 -128.375 C 237.535156 -98.875 223.226562 -74.070312 206.0625 -53.96875 C 188.894531 -33.875 169.664062 -22.421875 148.375 -19.609375 C 136.257812 -18.003906 126.132812 -22.742188 118 -33.828125 C 109.863281 -44.921875 105.410156 -58.414062 104.640625 -74.3125 C 102.109375 -63.320312 96.769531 -52.703125 88.625 -42.453125 C 80.476562 -32.210938 71.351562 -23.675781 61.25 -16.84375 C 51.15625 -10.007812 41.710938 -5.84375 32.921875 -4.34375 Z M 32.921875 -4.34375 "/></g></g></g><g fill="#fc94c3" fill-opacity="1"><g transform="translate(1057.043808, 440.347422)"><g><path d="M 58.59375 -233.6875 C 51.394531 -232.726562 46.191406 -234.285156 42.984375 -238.359375 C 39.773438 -242.441406 38.378906 -247.34375 38.796875 -253.0625 C 39.210938 -258.789062 41.335938 -264.15625 45.171875 -269.15625 C 49.003906 -274.15625 54.363281 -277.109375 61.25 -278.015625 C 68.445312 -278.972656 73.648438 -277.414062 76.859375 -273.34375 C 80.066406 -269.269531 81.460938 -264.367188 81.046875 -258.640625 C 80.640625 -252.921875 78.515625 -247.554688 74.671875 -242.546875 C 70.828125 -237.546875 65.46875 -234.59375 58.59375 -233.6875 Z M 22.5 0.015625 C 5.769531 -0.421875 -5.382812 -10.4375 -10.96875 -30.03125 C -16.550781 -49.632812 -13.289062 -77.894531 -1.1875 -114.8125 L 26.265625 -198.421875 C 26.765625 -202.160156 27.019531 -205.273438 27.03125 -207.765625 C 27.039062 -210.265625 26.21875 -212.738281 24.5625 -215.1875 L 80.640625 -222.09375 L 46.1875 -119.578125 C 39.3125 -101.003906 38.070312 -87.675781 42.46875 -79.59375 C 46.863281 -71.507812 53.648438 -68.070312 62.828125 -69.28125 C 71.671875 -70.445312 81.410156 -75.5625 92.046875 -84.625 C 102.679688 -93.695312 111.460938 -106.03125 118.390625 -121.625 L 130.234375 -107.703125 C 120.492188 -83.085938 109.273438 -62.6875 96.578125 -46.5 C 83.878906 -30.320312 71.113281 -18.46875 58.28125 -10.9375 C 45.457031 -3.414062 33.53125 0.234375 22.5 0.015625 Z M 22.5 0.015625 "/></g></g></g><g fill="#fc94c3" fill-opacity="1"><g transform="translate(1171.009988, 425.289799)"><g><path d="M 32.921875 -4.34375 C 19.160156 -2.53125 8.078125 -5.066406 -0.328125 -11.953125 C -8.734375 -18.835938 -14.597656 -28.554688 -17.921875 -41.109375 C -21.253906 -53.671875 -22.273438 -67.695312 -20.984375 -83.1875 C -19.703125 -98.6875 -16.429688 -114.289062 -11.171875 -130 C -6.585938 -143.269531 -0.613281 -156.054688 6.75 -168.359375 C 14.125 -180.660156 22.632812 -191.28125 32.28125 -200.21875 C 41.9375 -209.164062 52.34375 -215.539062 63.5 -219.34375 C 74.664062 -223.15625 86.160156 -223.171875 97.984375 -219.390625 C 109.453125 -215.898438 117.242188 -209.265625 121.359375 -199.484375 C 125.484375 -189.703125 126.5625 -179.015625 124.59375 -167.421875 C 122.632812 -155.835938 118.425781 -145.453125 111.96875 -136.265625 C 105.84375 -127.117188 97.34375 -120.160156 86.46875 -115.390625 C 75.601562 -110.628906 64.941406 -108.722656 54.484375 -109.671875 C 44.035156 -110.628906 35.8125 -114.875 29.8125 -122.40625 C 25.71875 -110.539062 24.851562 -100.679688 27.21875 -92.828125 C 29.59375 -84.972656 34.171875 -79.328125 40.953125 -75.890625 C 47.742188 -72.460938 55.582031 -71.164062 64.46875 -72 C 76.632812 -73.28125 89.148438 -78.1875 102.015625 -86.71875 C 114.878906 -95.25 125.226562 -107.695312 133.0625 -124.0625 C 135.257812 -122.675781 137.539062 -121.222656 139.90625 -119.703125 C 142.269531 -118.179688 144.5625 -116.570312 146.78125 -114.875 C 140.351562 -98.03125 131.289062 -81.5 119.59375 -65.28125 C 107.90625 -49.070312 94.628906 -35.40625 79.765625 -24.28125 C 64.910156 -13.15625 49.296875 -6.507812 32.921875 -4.34375 Z M 59.421875 -132.828125 C 64.210938 -134.453125 68.59375 -137.273438 72.5625 -141.296875 C 76.53125 -145.316406 80.195312 -149.722656 83.5625 -154.515625 C 86.507812 -159.898438 88.972656 -165.800781 90.953125 -172.21875 C 92.941406 -178.644531 93.765625 -184.421875 93.421875 -189.546875 C 93.085938 -194.671875 90.84375 -197.789062 86.6875 -198.90625 C 83.238281 -199.78125 78.957031 -198.128906 73.84375 -193.953125 C 68.726562 -189.785156 63.550781 -184.1875 58.3125 -177.15625 C 53.082031 -170.132812 48.546875 -162.867188 44.703125 -155.359375 C 40.859375 -147.859375 38.328125 -141.195312 37.109375 -135.375 C 45.003906 -131.082031 52.441406 -130.234375 59.421875 -132.828125 Z M 59.421875 -132.828125 "/></g></g></g></g></g><g clip-path="url(#43049585e0)"><path fill="#cf005e" d="M 276.039062 531.910156 C 208.761719 545.679688 172.328125 551.039062 172.328125 551.039062 C 239.832031 559.171875 276.382812 564.757812 276.382812 564.757812 C 253.125 596.589844 241.496094 612.507812 241.496094 612.507812 C 274.007812 590.15625 290.265625 578.980469 290.265625 578.980469 C 300.421875 651.222656 305.503906 693.78125 305.503906 693.78125 C 317.695312 628.085938 323.789062 588.800781 323.789062 588.800781 C 358.78125 613.636719 385.757812 632.484375 385.757812 632.484375 C 358.164062 591.808594 341.65625 566.917969 342.414062 567.128906 C 427.75 555.613281 470.417969 549.855469 470.417969 549.855469 C 386.433594 536.3125 344.445312 529.535156 344.445312 529.535156 C 363.804688 497.894531 378.644531 473.308594 379.496094 473.492188 C 344.292969 500.441406 320.769531 519.800781 320.253906 519.09375 C 309.414062 448.207031 303.472656 409.488281 303.472656 409.488281 C 295.339844 479.023438 291.953125 518.023438 291.953125 518.023438 C 261.933594 498.160156 246.917969 488.226562 246.917969 488.226562 C 266.332031 517.347656 276.039062 531.910156 276.039062 531.910156 Z M 276.039062 531.910156 " fill-opacity="1" fill-rule="evenodd"/></g><path fill="#f8fcab" d="M 252.441406 494.90625 C 280.449219 515.355469 294.453125 525.585938 294.453125 525.585938 C 300.683594 461.113281 303.792969 428.878906 303.792969 428.878906 C 313.570312 492.90625 318.464844 524.914062 318.464844 524.914062 C 344.699219 506.6875 357.8125 497.570312 357.8125 497.570312 C 339.140625 522.472656 329.800781 534.921875 329.800781 534.921875 C 392.042969 544.257812 423.171875 548.921875 423.171875 548.921875 C 360.035156 555.152344 328.46875 558.265625 328.46875 558.265625 C 349.363281 588.9375 359.8125 604.28125 359.8125 604.28125 C 331.355469 582.050781 317.128906 570.929688 317.128906 570.929688 C 309.570312 632.730469 305.792969 663.636719 305.792969 663.636719 C 296.898438 602.28125 292.453125 571.601562 292.453125 571.601562 C 264.441406 593.386719 250.433594 604.28125 250.433594 604.28125 C 271.332031 576.265625 281.785156 562.265625 281.785156 562.265625 C 215.976562 554.257812 183.082031 550.257812 183.082031 550.257812 C 248.433594 540.035156 281.113281 534.921875 281.113281 534.921875 C 262 508.242188 252.441406 494.90625 252.441406 494.90625 Z M 252.441406 494.90625 " fill-opacity="1" fill-rule="evenodd"/><path fill="#cfd72a" d="M 277.015625 517.84375 C 292.085938 528.851562 299.621094 534.351562 299.621094 534.351562 C 302.96875 499.667969 304.644531 482.328125 304.644531 482.328125 C 309.90625 516.769531 312.535156 533.988281 312.535156 533.988281 C 326.648438 524.1875 333.703125 519.28125 333.703125 519.28125 C 323.660156 532.679688 318.632812 539.375 318.632812 539.375 C 352.121094 544.394531 368.867188 546.910156 368.867188 546.910156 C 334.902344 550.257812 317.917969 551.929688 317.917969 551.929688 C 329.164062 568.433594 334.785156 576.6875 334.785156 576.6875 C 319.472656 564.730469 311.820312 558.75 311.820312 558.75 C 307.75 591.996094 305.71875 608.617188 305.71875 608.617188 C 300.9375 575.613281 298.546875 559.109375 298.546875 559.109375 C 283.476562 570.824219 275.941406 576.6875 275.941406 576.6875 C 287.183594 561.621094 292.804688 554.085938 292.804688 554.085938 C 257.40625 549.78125 239.699219 547.625 239.699219 547.625 C 274.867188 542.125 292.445312 539.375 292.445312 539.375 C 282.160156 525.027344 277.015625 517.84375 277.015625 517.84375 Z M 277.015625 517.84375 " fill-opacity="1" fill-rule="evenodd"/><g clip-path="url(#14a9b398b6)"><path fill="#cf005e" d="M 1185.679688 788.878906 C 1118.402344 802.648438 1081.96875 808.011719 1081.96875 808.011719 C 1149.472656 816.140625 1186.023438 821.726562 1186.023438 821.726562 C 1162.765625 853.5625 1151.136719 869.476562 1151.136719 869.476562 C 1183.648438 847.125 1199.90625 835.949219 1199.90625 835.949219 C 1210.0625 908.195312 1215.144531 950.75 1215.144531 950.75 C 1227.335938 885.054688 1233.429688 845.773438 1233.429688 845.773438 C 1268.421875 870.605469 1295.398438 889.453125 1295.398438 889.453125 C 1267.804688 848.777344 1251.296875 823.886719 1252.054688 824.097656 C 1337.390625 812.582031 1380.058594 806.824219 1380.058594 806.824219 C 1296.078125 793.28125 1254.085938 786.503906 1254.085938 786.503906 C 1273.445312 754.863281 1288.285156 730.277344 1289.136719 730.460938 C 1253.9375 757.410156 1230.410156 776.769531 1229.894531 776.0625 C 1219.058594 705.175781 1213.113281 666.457031 1213.113281 666.457031 C 1204.980469 735.992188 1201.59375 774.996094 1201.59375 774.996094 C 1171.574219 755.128906 1156.558594 745.195312 1156.558594 745.195312 C 1175.972656 774.316406 1185.679688 788.878906 1185.679688 788.878906 Z M 1185.679688 788.878906 " fill-opacity="1" fill-rule="evenodd"/></g><path fill="#f8fcab" d="M 1162.082031 751.875 C 1190.089844 772.324219 1204.09375 782.554688 1204.09375 782.554688 C 1210.324219 718.082031 1213.433594 685.851562 1213.433594 685.851562 C 1223.210938 749.875 1228.105469 781.882812 1228.105469 781.882812 C 1254.339844 763.660156 1267.453125 754.539062 1267.453125 754.539062 C 1248.78125 779.441406 1239.445312 791.890625 1239.445312 791.890625 C 1301.683594 801.226562 1332.8125 805.890625 1332.8125 805.890625 C 1269.675781 812.121094 1238.109375 815.234375 1238.109375 815.234375 C 1259.003906 845.90625 1269.453125 861.25 1269.453125 861.25 C 1240.996094 839.019531 1226.773438 827.898438 1226.773438 827.898438 C 1219.210938 889.699219 1215.433594 920.605469 1215.433594 920.605469 C 1206.539062 859.25 1202.09375 828.570312 1202.09375 828.570312 C 1174.082031 850.355469 1160.074219 861.25 1160.074219 861.25 C 1180.972656 833.234375 1191.425781 819.234375 1191.425781 819.234375 C 1125.621094 811.226562 1092.722656 807.226562 1092.722656 807.226562 C 1158.074219 797.003906 1190.757812 791.890625 1190.757812 791.890625 C 1171.640625 765.210938 1162.082031 751.875 1162.082031 751.875 Z M 1162.082031 751.875 " fill-opacity="1" fill-rule="evenodd"/><path fill="#cfd72a" d="M 1186.65625 774.816406 C 1201.726562 785.820312 1209.261719 791.320312 1209.261719 791.320312 C 1212.609375 756.640625 1214.285156 739.296875 1214.285156 739.296875 C 1219.546875 773.738281 1222.175781 790.957031 1222.175781 790.957031 C 1236.289062 781.15625 1243.34375 776.25 1243.34375 776.25 C 1233.300781 789.648438 1228.273438 796.34375 1228.273438 796.34375 C 1261.761719 801.363281 1278.507812 803.878906 1278.507812 803.878906 C 1244.542969 807.226562 1227.5625 808.898438 1227.5625 808.898438 C 1238.804688 825.402344 1244.425781 833.660156 1244.425781 833.660156 C 1229.113281 821.699219 1221.460938 815.71875 1221.460938 815.71875 C 1217.390625 848.964844 1215.359375 865.585938 1215.359375 865.585938 C 1210.578125 832.582031 1208.1875 816.078125 1208.1875 816.078125 C 1193.117188 827.792969 1185.582031 833.660156 1185.582031 833.660156 C 1196.824219 818.589844 1202.445312 811.054688 1202.445312 811.054688 C 1167.046875 806.75 1149.34375 804.59375 1149.34375 804.59375 C 1184.507812 799.097656 1202.085938 796.34375 1202.085938 796.34375 C 1191.800781 781.996094 1186.65625 774.816406 1186.65625 774.816406 Z M 1186.65625 774.816406 " fill-opacity="1" fill-rule="evenodd"/><g transform="matrix(1, 0, 0, 1, 406, 888)"><g clip-path="url(#5012e1ab9f)"><g fill="#cf005e" fill-opacity="1"><g transform="translate(10.316136, 141.62465)"><g><path d="M 38.78125 -2.84375 C 32.539062 -2.21875 26.851562 -2.820312 21.71875 -4.65625 C 16.582031 -6.488281 12.347656 -9.566406 9.015625 -13.890625 C 5.679688 -18.222656 3.671875 -23.757812 2.984375 -30.5 C 2.441406 -35.914062 2.765625 -41.03125 3.953125 -45.84375 C 5.140625 -50.65625 7.160156 -54.976562 10.015625 -58.8125 C 12.878906 -62.644531 16.582031 -65.785156 21.125 -68.234375 C 25.675781 -70.691406 31.039062 -72.234375 37.21875 -72.859375 C 40.070312 -73.148438 43.078125 -73.113281 46.234375 -72.75 C 49.390625 -72.394531 52.378906 -71.648438 55.203125 -70.515625 C 57.003906 -69.796875 58.265625 -68.75 58.984375 -67.375 C 59.703125 -66 59.992188 -64.535156 59.859375 -62.984375 C 59.734375 -61.429688 59.269531 -59.988281 58.46875 -58.65625 C 57.675781 -57.320312 56.617188 -56.34375 55.296875 -55.71875 C 53.972656 -55.101562 52.484375 -55.066406 50.828125 -55.609375 C 48.347656 -56.515625 46.113281 -57.109375 44.125 -57.390625 C 42.132812 -57.671875 40.21875 -57.71875 38.375 -57.53125 C 34.101562 -57.101562 30.648438 -55.742188 28.015625 -53.453125 C 25.390625 -51.160156 23.53125 -48.238281 22.4375 -44.6875 C 21.351562 -41.132812 21.023438 -37.253906 21.453125 -33.046875 C 21.828125 -29.359375 22.710938 -26.34375 24.109375 -24 C 25.503906 -21.664062 27.453125 -20.046875 29.953125 -19.140625 C 32.460938 -18.234375 35.59375 -17.96875 39.34375 -18.34375 C 41 -18.507812 42.679688 -18.875 44.390625 -19.4375 C 46.097656 -20 47.800781 -20.785156 49.5 -21.796875 C 51.207031 -22.742188 52.800781 -23.066406 54.28125 -22.765625 C 55.769531 -22.472656 56.984375 -21.757812 57.921875 -20.625 C 58.867188 -19.5 59.484375 -18.191406 59.765625 -16.703125 C 60.046875 -15.222656 59.90625 -13.75 59.34375 -12.28125 C 58.789062 -10.8125 57.664062 -9.566406 55.96875 -8.546875 C 53.550781 -6.953125 50.75 -5.671875 47.5625 -4.703125 C 44.382812 -3.734375 41.457031 -3.113281 38.78125 -2.84375 Z M 38.78125 -2.84375 "/></g></g></g><g fill="#cf005e" fill-opacity="1"><g transform="translate(73.163542, 135.266791)"><g><path d="M 12.421875 -1.25 C 9.242188 -0.9375 6.832031 -1.546875 5.1875 -3.078125 C 3.550781 -4.617188 2.832031 -6.976562 3.03125 -10.15625 L 5.78125 -60.125 C 5.945312 -62.957031 6.785156 -65.160156 8.296875 -66.734375 C 9.804688 -68.316406 11.96875 -69.25 14.78125 -69.53125 L 46.6875 -72.75 C 48.96875 -72.988281 50.757812 -72.6875 52.0625 -71.84375 C 53.375 -71.007812 54.117188 -69.703125 54.296875 -67.921875 C 54.546875 -65.441406 54.03125 -63.410156 52.75 -61.828125 C 51.46875 -60.242188 49.582031 -59.328125 47.09375 -59.078125 L 22.265625 -56.5625 L 21.5625 -43.578125 L 43.046875 -45.75 C 45.328125 -45.988281 47.117188 -45.6875 48.421875 -44.84375 C 49.734375 -44.007812 50.484375 -42.695312 50.671875 -40.90625 C 50.921875 -38.4375 50.382812 -36.410156 49.0625 -34.828125 C 47.75 -33.242188 45.882812 -32.328125 43.46875 -32.078125 L 20.71875 -29.78125 L 19.921875 -15.71875 L 43.515625 -18.109375 C 45.804688 -18.335938 47.601562 -18.035156 48.90625 -17.203125 C 50.21875 -16.367188 50.960938 -15.054688 51.140625 -13.265625 C 51.390625 -10.785156 50.867188 -8.757812 49.578125 -7.1875 C 48.296875 -5.613281 46.445312 -4.703125 44.03125 -4.453125 Z M 12.421875 -1.25 "/></g></g></g><g fill="#cf005e" fill-opacity="1"><g transform="translate(128.942988, 129.623951)"><g><path d="M 11.265625 -0.265625 C 8.472656 0.015625 6.347656 -0.671875 4.890625 -2.328125 C 3.429688 -3.984375 2.789062 -6.488281 2.96875 -9.84375 L 5.8125 -59.828125 C 5.96875 -62.796875 6.828125 -65.085938 8.390625 -66.703125 C 9.960938 -68.316406 12.21875 -69.269531 15.15625 -69.5625 L 35.203125 -71.59375 C 42.910156 -72.375 48.988281 -71.265625 53.4375 -68.265625 C 57.882812 -65.273438 60.410156 -60.789062 61.015625 -54.8125 C 61.554688 -49.53125 60.851562 -45.082031 58.90625 -41.46875 C 56.957031 -37.851562 54.054688 -35.046875 50.203125 -33.046875 C 46.359375 -31.054688 41.851562 -29.800781 36.6875 -29.28125 L 36.515625 -31 L 40.0625 -31.359375 C 43.363281 -31.691406 46.125 -31.070312 48.34375 -29.5 C 50.5625 -27.925781 52.4375 -25.640625 53.96875 -22.640625 L 57.234375 -16.109375 C 58.410156 -13.910156 58.957031 -11.972656 58.875 -10.296875 C 58.789062 -8.617188 58.09375 -7.257812 56.78125 -6.21875 C 55.476562 -5.1875 53.582031 -4.546875 51.09375 -4.296875 C 48.738281 -4.054688 46.78125 -4.46875 45.21875 -5.53125 C 43.664062 -6.59375 42.28125 -8.382812 41.0625 -10.90625 L 34.53125 -23.953125 C 33.71875 -25.679688 32.742188 -26.851562 31.609375 -27.46875 C 30.484375 -28.09375 29 -28.3125 27.15625 -28.125 L 21.421875 -27.546875 L 20.5 -9.984375 C 20.351562 -7.015625 19.492188 -4.722656 17.921875 -3.109375 C 16.347656 -1.503906 14.128906 -0.554688 11.265625 -0.265625 Z M 22.09375 -40.171875 L 34.78125 -41.453125 C 38.226562 -41.796875 40.78125 -42.800781 42.4375 -44.46875 C 44.101562 -46.144531 44.785156 -48.484375 44.484375 -51.484375 C 44.234375 -53.972656 43.234375 -55.738281 41.484375 -56.78125 C 39.742188 -57.820312 37.117188 -58.164062 33.609375 -57.8125 L 23.015625 -56.734375 Z M 22.09375 -40.171875 "/></g></g></g><g fill="#cf005e" fill-opacity="1"><g transform="translate(191.599337, 123.285421)"><g><path d="M 27.21875 -1.890625 C 24.476562 -1.609375 22.347656 -2.289062 20.828125 -3.9375 C 19.316406 -5.59375 18.648438 -8.066406 18.828125 -11.359375 L 21.28125 -55.71875 L 7.734375 -54.34375 C 5.304688 -54.09375 3.367188 -54.425781 1.921875 -55.34375 C 0.472656 -56.257812 -0.335938 -57.609375 -0.515625 -59.390625 C -0.785156 -62.054688 -0.234375 -64.21875 1.140625 -65.875 C 2.523438 -67.53125 4.550781 -68.492188 7.21875 -68.765625 L 53.359375 -73.4375 C 55.773438 -73.675781 57.6875 -73.347656 59.09375 -72.453125 C 60.507812 -71.566406 61.304688 -70.234375 61.484375 -68.453125 C 61.753906 -65.773438 61.21875 -63.597656 59.875 -61.921875 C 58.53125 -60.242188 56.523438 -59.269531 53.859375 -59 L 38.875 -57.484375 L 36.265625 -11.578125 C 36.109375 -8.671875 35.296875 -6.398438 33.828125 -4.765625 C 32.359375 -3.140625 30.15625 -2.179688 27.21875 -1.890625 Z M 27.21875 -1.890625 "/></g></g></g><g fill="#cf005e" fill-opacity="1"><g transform="translate(250.244178, 117.352708)"><g><path d="M 11.453125 -0.296875 C 8.460938 0.015625 6.253906 -0.65625 4.828125 -2.3125 C 3.410156 -3.976562 2.789062 -6.488281 2.96875 -9.84375 L 5.828125 -60.71875 C 5.972656 -63.675781 6.796875 -65.957031 8.296875 -67.5625 C 9.804688 -69.164062 12.03125 -70.117188 14.96875 -70.421875 C 17.894531 -70.710938 20.066406 -70.023438 21.484375 -68.359375 C 22.910156 -66.703125 23.503906 -64.191406 23.265625 -60.828125 L 20.40625 -10.0625 C 20.257812 -7.03125 19.460938 -4.71875 18.015625 -3.125 C 16.578125 -1.53125 14.390625 -0.585938 11.453125 -0.296875 Z M 11.453125 -0.296875 "/></g></g></g><g fill="#cf005e" fill-opacity="1"><g transform="translate(277.178801, 114.627909)"><g><path d="M 11.75 -0.3125 C 8.882812 -0.03125 6.664062 -0.660156 5.09375 -2.203125 C 3.519531 -3.742188 2.832031 -6.097656 3.03125 -9.265625 L 5.78125 -60.125 C 5.945312 -62.957031 6.785156 -65.160156 8.296875 -66.734375 C 9.804688 -68.316406 11.96875 -69.25 14.78125 -69.53125 L 45.90625 -72.671875 C 48.269531 -72.910156 50.101562 -72.613281 51.40625 -71.78125 C 52.707031 -70.945312 53.445312 -69.640625 53.625 -67.859375 C 53.863281 -65.503906 53.359375 -63.503906 52.109375 -61.859375 C 50.867188 -60.222656 48.972656 -59.273438 46.421875 -59.015625 L 23.125 -56.65625 L 22.296875 -42.890625 L 42.265625 -44.90625 C 44.617188 -45.144531 46.445312 -44.84375 47.75 -44 C 49.0625 -43.164062 49.804688 -41.890625 49.984375 -40.171875 C 50.222656 -37.753906 49.710938 -35.738281 48.453125 -34.125 C 47.203125 -32.519531 45.304688 -31.585938 42.765625 -31.328125 L 21.5625 -29.1875 L 20.4375 -9.6875 C 20.125 -4 17.226562 -0.875 11.75 -0.3125 Z M 11.75 -0.3125 "/></g></g></g><g fill="#cf005e" fill-opacity="1"><g transform="translate(329.615279, 109.323256)"><g><path d="M 11.453125 -0.296875 C 8.460938 0.015625 6.253906 -0.65625 4.828125 -2.3125 C 3.410156 -3.976562 2.789062 -6.488281 2.96875 -9.84375 L 5.828125 -60.71875 C 5.972656 -63.675781 6.796875 -65.957031 8.296875 -67.5625 C 9.804688 -69.164062 12.03125 -70.117188 14.96875 -70.421875 C 17.894531 -70.710938 20.066406 -70.023438 21.484375 -68.359375 C 22.910156 -66.703125 23.503906 -64.191406 23.265625 -60.828125 L 20.40625 -10.0625 C 20.257812 -7.03125 19.460938 -4.71875 18.015625 -3.125 C 16.578125 -1.53125 14.390625 -0.585938 11.453125 -0.296875 Z M 11.453125 -0.296875 "/></g></g></g><g fill="#cf005e" fill-opacity="1"><g transform="translate(356.549901, 106.598457)"><g><path d="M 12.421875 -1.25 C 9.242188 -0.9375 6.832031 -1.546875 5.1875 -3.078125 C 3.550781 -4.617188 2.832031 -6.976562 3.03125 -10.15625 L 5.78125 -60.125 C 5.945312 -62.957031 6.785156 -65.160156 8.296875 -66.734375 C 9.804688 -68.316406 11.96875 -69.25 14.78125 -69.53125 L 46.6875 -72.75 C 48.96875 -72.988281 50.757812 -72.6875 52.0625 -71.84375 C 53.375 -71.007812 54.117188 -69.703125 54.296875 -67.921875 C 54.546875 -65.441406 54.03125 -63.410156 52.75 -61.828125 C 51.46875 -60.242188 49.582031 -59.328125 47.09375 -59.078125 L 22.265625 -56.5625 L 21.5625 -43.578125 L 43.046875 -45.75 C 45.328125 -45.988281 47.117188 -45.6875 48.421875 -44.84375 C 49.734375 -44.007812 50.484375 -42.695312 50.671875 -40.90625 C 50.921875 -38.4375 50.382812 -36.410156 49.0625 -34.828125 C 47.75 -33.242188 45.882812 -32.328125 43.46875 -32.078125 L 20.71875 -29.78125 L 19.921875 -15.71875 L 43.515625 -18.109375 C 45.804688 -18.335938 47.601562 -18.035156 48.90625 -17.203125 C 50.21875 -16.367188 50.960938 -15.054688 51.140625 -13.265625 C 51.390625 -10.785156 50.867188 -8.757812 49.578125 -7.1875 C 48.296875 -5.613281 46.445312 -4.703125 44.03125 -4.453125 Z M 12.421875 -1.25 "/></g></g></g><g fill="#cf005e" fill-opacity="1"><g transform="translate(412.329347, 100.955617)"><g><path d="M 12.328125 -1.25 C 9.265625 -0.9375 6.898438 -1.5625 5.234375 -3.125 C 3.566406 -4.695312 2.832031 -7.039062 3.03125 -10.15625 L 5.78125 -60.125 C 5.945312 -62.957031 6.785156 -65.160156 8.296875 -66.734375 C 9.804688 -68.316406 11.96875 -69.25 14.78125 -69.53125 L 30.15625 -71.078125 C 41.476562 -72.222656 50.472656 -70.492188 57.140625 -65.890625 C 63.816406 -61.296875 67.625 -54.382812 68.5625 -45.15625 C 69.113281 -39.738281 68.796875 -34.640625 67.609375 -29.859375 C 66.421875 -25.078125 64.34375 -20.8125 61.375 -17.0625 C 58.414062 -13.3125 54.59375 -10.253906 49.90625 -7.890625 C 45.226562 -5.523438 39.703125 -4.019531 33.328125 -3.375 Z M 20.71875 -16.453125 L 32.09375 -17.609375 C 35.519531 -17.953125 38.46875 -18.8125 40.9375 -20.1875 C 43.40625 -21.570312 45.394531 -23.367188 46.90625 -25.578125 C 48.425781 -27.796875 49.472656 -30.363281 50.046875 -33.28125 C 50.617188 -36.207031 50.722656 -39.457031 50.359375 -43.03125 C 49.847656 -48.050781 48.023438 -51.753906 44.890625 -54.140625 C 41.753906 -56.523438 37.320312 -57.425781 31.59375 -56.84375 L 23 -55.984375 Z M 20.71875 -16.453125 "/></g></g></g></g></g></svg>