<svg xmlns="http://www.w3.org/2000/svg" xmlns:xlink="http://www.w3.org/1999/xlink" width="2000" zoomAndPan="magnify" viewBox="0 0 1500 1499.999933" height="2000" preserveAspectRatio="xMidYMid meet" version="1.0"><defs><g/><clipPath id="58896311d2"><rect x="0" width="674" y="0" height="703"/></clipPath></defs><g transform="matrix(1, 0, 0, 1, 411, 353)"><g clip-path="url(#58896311d2)"><g fill="#e90000" fill-opacity="1"><g transform="translate(2.527791, 546.264874)"><g><path d="M 108 -350.71875 C 127.457031 -350.71875 144.320312 -343.890625 158.59375 -330.234375 C 172.875 -316.578125 184.253906 -298.675781 192.734375 -276.53125 C 201.222656 -254.394531 206.296875 -230.289062 207.953125 -204.21875 L 149.59375 -204.21875 C 138.832031 -232.769531 128.070312 -254.703125 117.3125 -270.015625 C 106.5625 -285.328125 96.425781 -295.878906 86.90625 -301.671875 C 77.382812 -307.472656 68.488281 -310.375 60.21875 -310.375 C 53.175781 -310.375 48.207031 -305.40625 45.3125 -295.46875 C 42.414062 -285.539062 41.378906 -272.296875 42.203125 -255.734375 C 43.035156 -239.179688 45.414062 -221.179688 49.34375 -201.734375 C 53.28125 -182.285156 58.660156 -162.734375 65.484375 -143.078125 C 72.316406 -123.421875 80.179688 -105.316406 89.078125 -88.765625 C 97.972656 -72.210938 107.898438 -58.96875 118.859375 -49.03125 C 129.828125 -39.101562 141.316406 -34.140625 153.328125 -34.140625 C 161.597656 -34.140625 167.488281 -40.140625 171 -52.140625 C 174.519531 -64.140625 176.28125 -78.414062 176.28125 -94.96875 C 176.28125 -102.414062 175.96875 -109.96875 175.34375 -117.625 C 174.726562 -125.28125 174.007812 -132.832031 173.1875 -140.28125 L 207.953125 -140.28125 C 205.460938 -112.144531 199.5625 -87.003906 190.25 -64.859375 C 180.9375 -42.722656 169.242188 -25.34375 155.171875 -12.71875 C 141.109375 -0.101562 125.179688 6.203125 107.390625 6.203125 C 88.347656 6.203125 71.273438 -1.453125 56.171875 -16.765625 C 41.066406 -32.078125 29.066406 -53.382812 20.171875 -80.6875 C 11.273438 -108 6.828125 -139.660156 6.828125 -175.671875 C 6.828125 -211.253906 11.171875 -242.082031 19.859375 -268.15625 C 28.554688 -294.226562 40.457031 -314.503906 55.5625 -328.984375 C 70.664062 -343.472656 88.144531 -350.71875 108 -350.71875 Z M 108 -350.71875 "/></g></g></g><g fill="#e90000" fill-opacity="1"><g transform="translate(193.708102, 546.264874)"><g><path d="M 43.453125 -465.546875 C 54.628906 -466.785156 65.285156 -466.679688 75.421875 -465.234375 C 85.554688 -463.785156 96.003906 -461.410156 106.765625 -458.109375 C 98.078125 -441.140625 89.800781 -422.617188 81.9375 -402.546875 C 74.070312 -382.472656 67.242188 -362.09375 61.453125 -341.40625 C 58.972656 -331.46875 58.867188 -326.289062 61.140625 -325.875 C 63.421875 -325.46875 67.144531 -327.332031 72.3125 -331.46875 C 77.488281 -335.601562 83.078125 -339.84375 89.078125 -344.1875 C 95.078125 -348.539062 100.351562 -350.71875 104.90625 -350.71875 C 124.351562 -350.71875 141.835938 -343.472656 157.359375 -328.984375 C 172.878906 -314.503906 185.191406 -294.125 194.296875 -267.84375 C 203.398438 -241.570312 207.953125 -210.640625 207.953125 -175.046875 C 207.953125 -148.972656 205.257812 -123.109375 199.875 -97.453125 C 194.5 -71.796875 188.289062 -47.796875 181.25 -25.453125 C 180.007812 -21.722656 179.90625 -18.925781 180.9375 -17.0625 C 181.976562 -15.207031 185.1875 -14.28125 190.5625 -14.28125 L 208.5625 -14.28125 L 203.59375 0 L 136.5625 0 C 147.320312 -15.726562 155.597656 -31.660156 161.390625 -47.796875 C 167.179688 -63.929688 170.179688 -81.722656 170.390625 -101.171875 C 170.597656 -120.628906 167.1875 -142.769531 160.15625 -167.59375 C 147.320312 -211.875 131.90625 -246.738281 113.90625 -272.1875 C 95.90625 -297.644531 77.800781 -310.375 59.59375 -310.375 C 52.144531 -310.375 47.070312 -304.890625 44.375 -293.921875 C 41.6875 -282.953125 40.960938 -268.363281 42.203125 -250.15625 C 43.453125 -231.945312 46.351562 -211.566406 50.90625 -189.015625 C 55.457031 -166.460938 61.25 -143.492188 68.28125 -120.109375 C 75.3125 -96.734375 83.378906 -74.59375 92.484375 -53.6875 C 101.585938 -32.789062 111.109375 -14.894531 121.046875 0 L 6.828125 0 C 15.515625 -22.34375 21.617188 -45.101562 25.140625 -68.28125 C 28.660156 -91.457031 30.421875 -114.21875 30.421875 -136.5625 C 30.421875 -166.769531 28.453125 -195.632812 24.515625 -223.15625 C 20.585938 -250.675781 16.65625 -275.09375 12.71875 -296.40625 C 8.789062 -317.71875 6.828125 -333.75 6.828125 -344.5 C 6.828125 -358.988281 8.789062 -376.472656 12.71875 -396.953125 C 16.65625 -417.441406 26.898438 -440.304688 43.453125 -465.546875 Z M 43.453125 -465.546875 "/></g></g></g><g fill="#e90000" fill-opacity="1"><g transform="translate(385.509141, 546.264874)"><g><path d="M 48.421875 -366.859375 C 31.867188 -366.859375 19.347656 -370.992188 10.859375 -379.265625 C 2.378906 -387.546875 -1.859375 -397.066406 -1.859375 -407.828125 C -1.859375 -418.585938 2.378906 -428.101562 10.859375 -436.375 C 19.347656 -444.65625 31.867188 -448.796875 48.421875 -448.796875 C 65.390625 -448.796875 78.113281 -444.65625 86.59375 -436.375 C 95.070312 -428.101562 99.3125 -418.585938 99.3125 -407.828125 C 99.3125 -397.066406 95.070312 -387.546875 86.59375 -379.265625 C 78.113281 -370.992188 65.390625 -366.859375 48.421875 -366.859375 Z M 90.625 0 L 6.828125 0 C 23.796875 -22.757812 35.585938 -44.273438 42.203125 -64.546875 C 48.828125 -84.828125 52.035156 -104.175781 51.828125 -122.59375 C 51.617188 -141.007812 49.238281 -159.113281 44.6875 -176.90625 C 40.132812 -194.695312 34.960938 -212.488281 29.171875 -230.28125 C 23.378906 -248.082031 18.207031 -266.394531 13.65625 -285.21875 C 9.101562 -304.050781 6.828125 -323.8125 6.828125 -344.5 L 90.625 -344.5 C 77.800781 -324.644531 69.523438 -303.234375 65.796875 -280.265625 C 62.078125 -257.296875 61.144531 -233.601562 63 -209.1875 C 64.863281 -184.769531 67.96875 -160.351562 72.3125 -135.9375 C 76.65625 -111.519531 80.789062 -87.828125 84.71875 -64.859375 C 88.65625 -41.898438 90.625 -20.28125 90.625 0 Z M 90.625 0 "/></g></g></g><g fill="#e90000" fill-opacity="1"><g transform="translate(460.615016, 546.264874)"><g><path d="M 108 -350.71875 C 127.457031 -350.71875 144.320312 -343.890625 158.59375 -330.234375 C 172.875 -316.578125 184.253906 -298.675781 192.734375 -276.53125 C 201.222656 -254.394531 206.296875 -230.289062 207.953125 -204.21875 L 149.59375 -204.21875 C 138.832031 -232.769531 128.070312 -254.703125 117.3125 -270.015625 C 106.5625 -285.328125 96.425781 -295.878906 86.90625 -301.671875 C 77.382812 -307.472656 68.488281 -310.375 60.21875 -310.375 C 53.175781 -310.375 48.207031 -305.40625 45.3125 -295.46875 C 42.414062 -285.539062 41.378906 -272.296875 42.203125 -255.734375 C 43.035156 -239.179688 45.414062 -221.179688 49.34375 -201.734375 C 53.28125 -182.285156 58.660156 -162.734375 65.484375 -143.078125 C 72.316406 -123.421875 80.179688 -105.316406 89.078125 -88.765625 C 97.972656 -72.210938 107.898438 -58.96875 118.859375 -49.03125 C 129.828125 -39.101562 141.316406 -34.140625 153.328125 -34.140625 C 161.597656 -34.140625 167.488281 -40.140625 171 -52.140625 C 174.519531 -64.140625 176.28125 -78.414062 176.28125 -94.96875 C 176.28125 -102.414062 175.96875 -109.96875 175.34375 -117.625 C 174.726562 -125.28125 174.007812 -132.832031 173.1875 -140.28125 L 207.953125 -140.28125 C 205.460938 -112.144531 199.5625 -87.003906 190.25 -64.859375 C 180.9375 -42.722656 169.242188 -25.34375 155.171875 -12.71875 C 141.109375 -0.101562 125.179688 6.203125 107.390625 6.203125 C 88.347656 6.203125 71.273438 -1.453125 56.171875 -16.765625 C 41.066406 -32.078125 29.066406 -53.382812 20.171875 -80.6875 C 11.273438 -108 6.828125 -139.660156 6.828125 -175.671875 C 6.828125 -211.253906 11.171875 -242.082031 19.859375 -268.15625 C 28.554688 -294.226562 40.457031 -314.503906 55.5625 -328.984375 C 70.664062 -343.472656 88.144531 -350.71875 108 -350.71875 Z M 108 -350.71875 "/></g></g></g></g></g></svg>