<svg xmlns="http://www.w3.org/2000/svg" xmlns:xlink="http://www.w3.org/1999/xlink" width="378" zoomAndPan="magnify" viewBox="0 0 283.5 283.500005" height="378" preserveAspectRatio="xMidYMid meet" version="1.0"><defs><g/><clipPath id="9261ca1665"><path d="M 67 21 L 149 21 L 149 102.839844 L 67 102.839844 Z M 67 21 " clip-rule="nonzero"/></clipPath><clipPath id="dec624c6a8"><path d="M 105.054688 21.078125 L 149.527344 65.554688 L 111.9375 103.144531 L 67.460938 58.671875 Z M 105.054688 21.078125 " clip-rule="nonzero"/></clipPath><clipPath id="c94ae3b5ff"><path d="M 6 42 L 10 42 L 10 46 L 6 46 Z M 6 42 " clip-rule="nonzero"/></clipPath><clipPath id="c9f4148ede"><path d="M 38.054688 0.078125 L 82.527344 44.554688 L 44.9375 82.144531 L 0.460938 37.671875 Z M 38.054688 0.078125 " clip-rule="nonzero"/></clipPath><clipPath id="15ec8e7b06"><path d="M 0.410156 37.722656 L 44.886719 82.195312 L 82.476562 44.605469 L 38.003906 0.128906 Z M 0.410156 37.722656 " clip-rule="nonzero"/></clipPath><clipPath id="525a57f9e7"><path d="M 30 24 L 34 24 L 34 27 L 30 27 Z M 30 24 " clip-rule="nonzero"/></clipPath><clipPath id="ace6f2ccaa"><path d="M 38.054688 0.078125 L 82.527344 44.554688 L 44.9375 82.144531 L 0.460938 37.671875 Z M 38.054688 0.078125 " clip-rule="nonzero"/></clipPath><clipPath id="86b0f6408e"><path d="M 0.410156 37.722656 L 44.886719 82.195312 L 82.476562 44.605469 L 38.003906 0.128906 Z M 0.410156 37.722656 " clip-rule="nonzero"/></clipPath><clipPath id="0ab2f82f82"><path d="M 24 23 L 29 23 L 29 26 L 24 26 Z M 24 23 " clip-rule="nonzero"/></clipPath><clipPath id="925220c07b"><path d="M 38.054688 0.078125 L 82.527344 44.554688 L 44.9375 82.144531 L 0.460938 37.671875 Z M 38.054688 0.078125 " clip-rule="nonzero"/></clipPath><clipPath id="4df06f0a00"><path d="M 0.410156 37.722656 L 44.886719 82.195312 L 82.476562 44.605469 L 38.003906 0.128906 Z M 0.410156 37.722656 " clip-rule="nonzero"/></clipPath><clipPath id="1d45d1a042"><path d="M 19 30 L 21 30 L 21 35 L 19 35 Z M 19 30 " clip-rule="nonzero"/></clipPath><clipPath id="771a5692d9"><path d="M 38.054688 0.078125 L 82.527344 44.554688 L 44.9375 82.144531 L 0.460938 37.671875 Z M 38.054688 0.078125 " clip-rule="nonzero"/></clipPath><clipPath id="e5818c80c8"><path d="M 0.410156 37.722656 L 44.886719 82.195312 L 82.476562 44.605469 L 38.003906 0.128906 Z M 0.410156 37.722656 " clip-rule="nonzero"/></clipPath><clipPath id="44ddb263f1"><path d="M 19 36 L 21 36 L 21 40 L 19 40 Z M 19 36 " clip-rule="nonzero"/></clipPath><clipPath id="8d078f7103"><path d="M 38.054688 0.078125 L 82.527344 44.554688 L 44.9375 82.144531 L 0.460938 37.671875 Z M 38.054688 0.078125 " clip-rule="nonzero"/></clipPath><clipPath id="a095355135"><path d="M 0.410156 37.722656 L 44.886719 82.195312 L 82.476562 44.605469 L 38.003906 0.128906 Z M 0.410156 37.722656 " clip-rule="nonzero"/></clipPath><clipPath id="1f89c2ddbc"><path d="M 10 46 L 14 46 L 14 49 L 10 49 Z M 10 46 " clip-rule="nonzero"/></clipPath><clipPath id="a3d4cb5fd9"><path d="M 38.054688 0.078125 L 82.527344 44.554688 L 44.9375 82.144531 L 0.460938 37.671875 Z M 38.054688 0.078125 " clip-rule="nonzero"/></clipPath><clipPath id="02a065b5ab"><path d="M 0.410156 37.722656 L 44.886719 82.195312 L 82.476562 44.605469 L 38.003906 0.128906 Z M 0.410156 37.722656 " clip-rule="nonzero"/></clipPath><clipPath id="8dd447524a"><path d="M 63 49 L 67 49 L 67 53 L 63 53 Z M 63 49 " clip-rule="nonzero"/></clipPath><clipPath id="0c7c752266"><path d="M 38.054688 0.078125 L 82.527344 44.554688 L 44.9375 82.144531 L 0.460938 37.671875 Z M 38.054688 0.078125 " clip-rule="nonzero"/></clipPath><clipPath id="73293b442f"><path d="M 0.410156 37.722656 L 44.886719 82.195312 L 82.476562 44.605469 L 38.003906 0.128906 Z M 0.410156 37.722656 " clip-rule="nonzero"/></clipPath><clipPath id="a1208abb04"><path d="M 15 48 L 20 48 L 20 50 L 15 50 Z M 15 48 " clip-rule="nonzero"/></clipPath><clipPath id="abfc4a0e3b"><path d="M 38.054688 0.078125 L 82.527344 44.554688 L 44.9375 82.144531 L 0.460938 37.671875 Z M 38.054688 0.078125 " clip-rule="nonzero"/></clipPath><clipPath id="66abf64719"><path d="M 0.410156 37.722656 L 44.886719 82.195312 L 82.476562 44.605469 L 38.003906 0.128906 Z M 0.410156 37.722656 " clip-rule="nonzero"/></clipPath><clipPath id="b47458f981"><path d="M 20 26 L 24 26 L 24 30 L 20 30 Z M 20 26 " clip-rule="nonzero"/></clipPath><clipPath id="161303aa44"><path d="M 38.054688 0.078125 L 82.527344 44.554688 L 44.9375 82.144531 L 0.460938 37.671875 Z M 38.054688 0.078125 " clip-rule="nonzero"/></clipPath><clipPath id="dca0b790dd"><path d="M 0.410156 37.722656 L 44.886719 82.195312 L 82.476562 44.605469 L 38.003906 0.128906 Z M 0.410156 37.722656 " clip-rule="nonzero"/></clipPath><clipPath id="adf180a303"><path d="M 68 47 L 72 47 L 72 50 L 68 50 Z M 68 47 " clip-rule="nonzero"/></clipPath><clipPath id="06c313474f"><path d="M 38.054688 0.078125 L 82.527344 44.554688 L 44.9375 82.144531 L 0.460938 37.671875 Z M 38.054688 0.078125 " clip-rule="nonzero"/></clipPath><clipPath id="a80ba7ae7a"><path d="M 0.410156 37.722656 L 44.886719 82.195312 L 82.476562 44.605469 L 38.003906 0.128906 Z M 0.410156 37.722656 " clip-rule="nonzero"/></clipPath><clipPath id="f84205e14a"><path d="M 33 28 L 35 28 L 35 32 L 33 32 Z M 33 28 " clip-rule="nonzero"/></clipPath><clipPath id="c2b761f945"><path d="M 38.054688 0.078125 L 82.527344 44.554688 L 44.9375 82.144531 L 0.460938 37.671875 Z M 38.054688 0.078125 " clip-rule="nonzero"/></clipPath><clipPath id="fc23dbfb03"><path d="M 0.410156 37.722656 L 44.886719 82.195312 L 82.476562 44.605469 L 38.003906 0.128906 Z M 0.410156 37.722656 " clip-rule="nonzero"/></clipPath><clipPath id="12775f8a57"><path d="M 5 32 L 7 32 L 7 36 L 5 36 Z M 5 32 " clip-rule="nonzero"/></clipPath><clipPath id="4259f3b069"><path d="M 38.054688 0.078125 L 82.527344 44.554688 L 44.9375 82.144531 L 0.460938 37.671875 Z M 38.054688 0.078125 " clip-rule="nonzero"/></clipPath><clipPath id="555ff76c89"><path d="M 0.410156 37.722656 L 44.886719 82.195312 L 82.476562 44.605469 L 38.003906 0.128906 Z M 0.410156 37.722656 " clip-rule="nonzero"/></clipPath><clipPath id="d458495c89"><path d="M 5 37 L 7 37 L 7 41 L 5 41 Z M 5 37 " clip-rule="nonzero"/></clipPath><clipPath id="5e1ae3d94b"><path d="M 38.054688 0.078125 L 82.527344 44.554688 L 44.9375 82.144531 L 0.460938 37.671875 Z M 38.054688 0.078125 " clip-rule="nonzero"/></clipPath><clipPath id="02f75d8092"><path d="M 0.410156 37.722656 L 44.886719 82.195312 L 82.476562 44.605469 L 38.003906 0.128906 Z M 0.410156 37.722656 " clip-rule="nonzero"/></clipPath><clipPath id="46eda180c8"><path d="M 20 41 L 23 41 L 23 45 L 20 45 Z M 20 41 " clip-rule="nonzero"/></clipPath><clipPath id="dfe34c56dd"><path d="M 38.054688 0.078125 L 82.527344 44.554688 L 44.9375 82.144531 L 0.460938 37.671875 Z M 38.054688 0.078125 " clip-rule="nonzero"/></clipPath><clipPath id="f16a4f2e8e"><path d="M 0.410156 37.722656 L 44.886719 82.195312 L 82.476562 44.605469 L 38.003906 0.128906 Z M 0.410156 37.722656 " clip-rule="nonzero"/></clipPath><clipPath id="f275f53cf9"><path d="M 47 55 L 51 55 L 51 58 L 47 58 Z M 47 55 " clip-rule="nonzero"/></clipPath><clipPath id="f66fca58ac"><path d="M 38.054688 0.078125 L 82.527344 44.554688 L 44.9375 82.144531 L 0.460938 37.671875 Z M 38.054688 0.078125 " clip-rule="nonzero"/></clipPath><clipPath id="03b4ae2b71"><path d="M 0.410156 37.722656 L 44.886719 82.195312 L 82.476562 44.605469 L 38.003906 0.128906 Z M 0.410156 37.722656 " clip-rule="nonzero"/></clipPath><clipPath id="067664d693"><path d="M 42 56 L 46 56 L 46 58 L 42 58 Z M 42 56 " clip-rule="nonzero"/></clipPath><clipPath id="e9c0bb804b"><path d="M 38.054688 0.078125 L 82.527344 44.554688 L 44.9375 82.144531 L 0.460938 37.671875 Z M 38.054688 0.078125 " clip-rule="nonzero"/></clipPath><clipPath id="60ade41f7d"><path d="M 0.410156 37.722656 L 44.886719 82.195312 L 82.476562 44.605469 L 38.003906 0.128906 Z M 0.410156 37.722656 " clip-rule="nonzero"/></clipPath><clipPath id="d83c817959"><path d="M 32 33 L 35 33 L 35 37 L 32 37 Z M 32 33 " clip-rule="nonzero"/></clipPath><clipPath id="50337be785"><path d="M 38.054688 0.078125 L 82.527344 44.554688 L 44.9375 82.144531 L 0.460938 37.671875 Z M 38.054688 0.078125 " clip-rule="nonzero"/></clipPath><clipPath id="e5bb9005ef"><path d="M 0.410156 37.722656 L 44.886719 82.195312 L 82.476562 44.605469 L 38.003906 0.128906 Z M 0.410156 37.722656 " clip-rule="nonzero"/></clipPath><clipPath id="c274a15ee5"><path d="M 58 52 L 62 52 L 62 55 L 58 55 Z M 58 52 " clip-rule="nonzero"/></clipPath><clipPath id="43bea14763"><path d="M 38.054688 0.078125 L 82.527344 44.554688 L 44.9375 82.144531 L 0.460938 37.671875 Z M 38.054688 0.078125 " clip-rule="nonzero"/></clipPath><clipPath id="b5ebed0aba"><path d="M 0.410156 37.722656 L 44.886719 82.195312 L 82.476562 44.605469 L 38.003906 0.128906 Z M 0.410156 37.722656 " clip-rule="nonzero"/></clipPath><clipPath id="28c0d86cda"><path d="M 36 55 L 40 55 L 40 57 L 36 57 Z M 36 55 " clip-rule="nonzero"/></clipPath><clipPath id="747ed344f6"><path d="M 38.054688 0.078125 L 82.527344 44.554688 L 44.9375 82.144531 L 0.460938 37.671875 Z M 38.054688 0.078125 " clip-rule="nonzero"/></clipPath><clipPath id="65b5c00e74"><path d="M 0.410156 37.722656 L 44.886719 82.195312 L 82.476562 44.605469 L 38.003906 0.128906 Z M 0.410156 37.722656 " clip-rule="nonzero"/></clipPath><clipPath id="451558262d"><path d="M 52 54 L 57 54 L 57 57 L 52 57 Z M 52 54 " clip-rule="nonzero"/></clipPath><clipPath id="c960ac9f2b"><path d="M 38.054688 0.078125 L 82.527344 44.554688 L 44.9375 82.144531 L 0.460938 37.671875 Z M 38.054688 0.078125 " clip-rule="nonzero"/></clipPath><clipPath id="690cd13347"><path d="M 0.410156 37.722656 L 44.886719 82.195312 L 82.476562 44.605469 L 38.003906 0.128906 Z M 0.410156 37.722656 " clip-rule="nonzero"/></clipPath><clipPath id="6f5eb4c414"><path d="M 29 38 L 32 38 L 32 42 L 29 42 Z M 29 38 " clip-rule="nonzero"/></clipPath><clipPath id="ea79f367f9"><path d="M 38.054688 0.078125 L 82.527344 44.554688 L 44.9375 82.144531 L 0.460938 37.671875 Z M 38.054688 0.078125 " clip-rule="nonzero"/></clipPath><clipPath id="0095b3d3a4"><path d="M 0.410156 37.722656 L 44.886719 82.195312 L 82.476562 44.605469 L 38.003906 0.128906 Z M 0.410156 37.722656 " clip-rule="nonzero"/></clipPath><clipPath id="2ca0c33916"><path d="M 25 42 L 29 42 L 29 46 L 25 46 Z M 25 42 " clip-rule="nonzero"/></clipPath><clipPath id="4a0afa4155"><path d="M 38.054688 0.078125 L 82.527344 44.554688 L 44.9375 82.144531 L 0.460938 37.671875 Z M 38.054688 0.078125 " clip-rule="nonzero"/></clipPath><clipPath id="8ba13e47ef"><path d="M 0.410156 37.722656 L 44.886719 82.195312 L 82.476562 44.605469 L 38.003906 0.128906 Z M 0.410156 37.722656 " clip-rule="nonzero"/></clipPath><clipPath id="b9cd56c957"><path d="M 26 50 L 30 50 L 30 54 L 26 54 Z M 26 50 " clip-rule="nonzero"/></clipPath><clipPath id="b3d662c799"><path d="M 38.054688 0.078125 L 82.527344 44.554688 L 44.9375 82.144531 L 0.460938 37.671875 Z M 38.054688 0.078125 " clip-rule="nonzero"/></clipPath><clipPath id="a642aad408"><path d="M 0.410156 37.722656 L 44.886719 82.195312 L 82.476562 44.605469 L 38.003906 0.128906 Z M 0.410156 37.722656 " clip-rule="nonzero"/></clipPath><clipPath id="132f2df2c7"><path d="M 21 46 L 26 46 L 26 50 L 21 50 Z M 21 46 " clip-rule="nonzero"/></clipPath><clipPath id="739bdb16e9"><path d="M 38.054688 0.078125 L 82.527344 44.554688 L 44.9375 82.144531 L 0.460938 37.671875 Z M 38.054688 0.078125 " clip-rule="nonzero"/></clipPath><clipPath id="ed0ca5403f"><path d="M 0.410156 37.722656 L 44.886719 82.195312 L 82.476562 44.605469 L 38.003906 0.128906 Z M 0.410156 37.722656 " clip-rule="nonzero"/></clipPath><clipPath id="a770548013"><path d="M 31 53 L 35 53 L 35 56 L 31 56 Z M 31 53 " clip-rule="nonzero"/></clipPath><clipPath id="b0e2a9ee4f"><path d="M 38.054688 0.078125 L 82.527344 44.554688 L 44.9375 82.144531 L 0.460938 37.671875 Z M 38.054688 0.078125 " clip-rule="nonzero"/></clipPath><clipPath id="d9c60d2694"><path d="M 0.410156 37.722656 L 44.886719 82.195312 L 82.476562 44.605469 L 38.003906 0.128906 Z M 0.410156 37.722656 " clip-rule="nonzero"/></clipPath><clipPath id="9f25e62b81"><path d="M 69 41 L 80 41 L 80 51 L 69 51 Z M 69 41 " clip-rule="nonzero"/></clipPath><clipPath id="aa17abb307"><path d="M 38.054688 0.078125 L 82.527344 44.554688 L 44.9375 82.144531 L 0.460938 37.671875 Z M 38.054688 0.078125 " clip-rule="nonzero"/></clipPath><clipPath id="75b2c225a8"><path d="M 0.410156 37.722656 L 44.886719 82.195312 L 82.476562 44.605469 L 38.003906 0.128906 Z M 0.410156 37.722656 " clip-rule="nonzero"/></clipPath><clipPath id="68ae66904f"><rect x="0" width="82" y="0" height="82"/></clipPath><clipPath id="49c529b14f"><path d="M 0.375 0.539062 L 159.933594 0.539062 L 159.933594 68 L 0.375 68 Z M 0.375 0.539062 " clip-rule="nonzero"/></clipPath><clipPath id="7dce2fa2ee"><rect x="0" width="160" y="0" height="68"/></clipPath><clipPath id="c3020e5d5a"><rect x="0" width="160" y="0" height="103"/></clipPath></defs><g transform="matrix(1, 0, 0, 1, 60, 79)"><g clip-path="url(#c3020e5d5a)"><g clip-path="url(#9261ca1665)"><g clip-path="url(#dec624c6a8)"><g transform="matrix(1, 0, 0, 1, 67, 21)"><g clip-path="url(#68ae66904f)"><g clip-path="url(#c94ae3b5ff)"><g clip-path="url(#c9f4148ede)"><g clip-path="url(#15ec8e7b06)"><path fill="#cb7f00" d="M 8.210938 45.496094 C 7.707031 44.949219 7.253906 44.339844 6.855469 43.691406 C 6.683594 43.410156 6.773438 43.042969 7.054688 42.867188 C 7.296875 42.722656 7.597656 42.765625 7.789062 42.957031 C 7.824219 42.988281 7.851562 43.027344 7.878906 43.066406 C 8.234375 43.652344 8.644531 44.195312 9.09375 44.6875 C 9.316406 44.933594 9.300781 45.3125 9.058594 45.535156 C 8.8125 45.757812 8.433594 45.742188 8.210938 45.496094 Z M 8.210938 45.496094 " fill-opacity="1" fill-rule="nonzero"/></g></g></g><g clip-path="url(#525a57f9e7)"><g clip-path="url(#ace6f2ccaa)"><g clip-path="url(#86b0f6408e)"><path fill="#cb7f00" d="M 32.152344 26.359375 C 32.152344 26.359375 32.152344 26.359375 32.148438 26.355469 C 32.140625 26.347656 32.128906 26.335938 32.121094 26.328125 L 32.101562 26.308594 C 31.675781 25.886719 31.160156 25.550781 30.574219 25.304688 C 30.269531 25.179688 30.125 24.828125 30.253906 24.523438 C 30.378906 24.21875 30.730469 24.074219 31.035156 24.203125 C 31.761719 24.503906 32.402344 24.925781 32.941406 25.453125 L 32.964844 25.480469 C 32.980469 25.496094 32.992188 25.507812 33.003906 25.519531 C 33.234375 25.753906 33.230469 26.132812 32.996094 26.367188 C 32.761719 26.597656 32.386719 26.59375 32.152344 26.363281 Z M 32.152344 26.359375 " fill-opacity="1" fill-rule="nonzero"/></g></g></g><g clip-path="url(#0ab2f82f82)"><g clip-path="url(#925220c07b)"><g clip-path="url(#4df06f0a00)"><path fill="#cb7f00" d="M 25.695312 25.402344 C 25.390625 25.53125 25.039062 25.390625 24.90625 25.089844 C 24.777344 24.785156 24.917969 24.433594 25.222656 24.300781 C 25.929688 23.996094 26.683594 23.800781 27.460938 23.714844 C 27.648438 23.695312 27.828125 23.765625 27.949219 23.886719 C 28.042969 23.980469 28.105469 24.105469 28.121094 24.246094 C 28.15625 24.574219 27.917969 24.871094 27.589844 24.90625 C 26.933594 24.976562 26.292969 25.144531 25.695312 25.402344 Z M 25.695312 25.402344 " fill-opacity="1" fill-rule="nonzero"/></g></g></g><g clip-path="url(#1d45d1a042)"><g clip-path="url(#771a5692d9)"><g clip-path="url(#e5818c80c8)"><path fill="#cb7f00" d="M 19.726562 34.238281 C 19.398438 34.207031 19.152344 33.917969 19.183594 33.589844 C 19.25 32.828125 19.375 32.085938 19.554688 31.378906 C 19.636719 31.058594 19.964844 30.867188 20.285156 30.949219 C 20.390625 30.976562 20.484375 31.03125 20.558594 31.105469 C 20.703125 31.25 20.769531 31.464844 20.714844 31.675781 C 20.550781 32.320312 20.4375 32.996094 20.375 33.695312 C 20.347656 34.023438 20.054688 34.265625 19.726562 34.238281 Z M 19.726562 34.238281 " fill-opacity="1" fill-rule="nonzero"/></g></g></g><g clip-path="url(#44ddb263f1)"><g clip-path="url(#8d078f7103)"><g clip-path="url(#a095355135)"><path fill="#cb7f00" d="M 19.632812 39.222656 C 19.601562 39.078125 19.570312 38.933594 19.539062 38.785156 C 19.417969 38.199219 19.320312 37.617188 19.253906 37.046875 C 19.214844 36.71875 19.449219 36.421875 19.777344 36.382812 C 19.96875 36.359375 20.148438 36.429688 20.273438 36.554688 C 20.363281 36.644531 20.425781 36.769531 20.441406 36.90625 C 20.507812 37.441406 20.597656 37.992188 20.710938 38.542969 C 20.738281 38.683594 20.769531 38.820312 20.800781 38.957031 C 20.875 39.28125 20.671875 39.601562 20.351562 39.675781 C 20.027344 39.746094 19.707031 39.546875 19.632812 39.222656 Z M 19.632812 39.222656 " fill-opacity="1" fill-rule="nonzero"/></g></g></g><g clip-path="url(#1f89c2ddbc)"><g clip-path="url(#a3d4cb5fd9)"><g clip-path="url(#02a065b5ab)"><path fill="#cb7f00" d="M 12.996094 48.636719 C 12.285156 48.378906 11.597656 48.0625 10.953125 47.691406 C 10.667969 47.523438 10.570312 47.160156 10.734375 46.871094 C 10.902344 46.585938 11.265625 46.488281 11.550781 46.652344 C 12.132812 46.988281 12.753906 47.277344 13.398438 47.507812 C 13.484375 47.539062 13.558594 47.585938 13.621094 47.648438 C 13.78125 47.808594 13.839844 48.046875 13.761719 48.273438 C 13.648438 48.585938 13.308594 48.746094 12.996094 48.636719 Z M 12.996094 48.636719 " fill-opacity="1" fill-rule="nonzero"/></g></g></g><g clip-path="url(#8dd447524a)"><g clip-path="url(#0c7c752266)"><g clip-path="url(#73293b442f)"><path fill="#cb7f00" d="M 63.554688 51.019531 C 64.171875 50.710938 64.8125 50.382812 65.445312 50.046875 C 65.683594 49.921875 65.96875 49.96875 66.152344 50.152344 C 66.191406 50.191406 66.226562 50.242188 66.257812 50.292969 C 66.410156 50.585938 66.300781 50.949219 66.007812 51.105469 C 65.363281 51.449219 64.714844 51.78125 64.085938 52.089844 C 63.789062 52.238281 63.429688 52.117188 63.28125 51.820312 C 63.136719 51.523438 63.257812 51.164062 63.554688 51.019531 Z M 63.554688 51.019531 " fill-opacity="1" fill-rule="nonzero"/></g></g></g><g clip-path="url(#a1208abb04)"><g clip-path="url(#abfc4a0e3b)"><g clip-path="url(#66abf64719)"><path fill="#cb7f00" d="M 16.503906 48.171875 C 17.183594 48.226562 17.871094 48.21875 18.546875 48.15625 C 18.730469 48.140625 18.902344 48.210938 19.023438 48.332031 C 19.121094 48.425781 19.183594 48.554688 19.195312 48.699219 C 19.226562 49.027344 18.984375 49.320312 18.65625 49.347656 C 17.914062 49.417969 17.160156 49.421875 16.410156 49.363281 C 16.082031 49.339844 15.835938 49.050781 15.859375 48.722656 C 15.886719 48.390625 16.175781 48.144531 16.503906 48.171875 Z M 16.503906 48.171875 " fill-opacity="1" fill-rule="nonzero"/></g></g></g><g clip-path="url(#b47458f981)"><g clip-path="url(#161303aa44)"><g clip-path="url(#dca0b790dd)"><path fill="#cb7f00" d="M 23.167969 26.34375 C 23.394531 26.574219 23.402344 26.945312 23.175781 27.179688 C 22.71875 27.65625 22.304688 28.191406 21.941406 28.773438 C 21.769531 29.054688 21.398438 29.144531 21.117188 28.96875 C 20.835938 28.796875 20.75 28.425781 20.925781 28.144531 C 21.328125 27.488281 21.796875 26.886719 22.3125 26.351562 C 22.542969 26.113281 22.917969 26.105469 23.15625 26.335938 C 23.160156 26.335938 23.164062 26.339844 23.167969 26.34375 Z M 23.167969 26.34375 " fill-opacity="1" fill-rule="nonzero"/></g></g></g><g clip-path="url(#adf180a303)"><g clip-path="url(#06c313474f)"><g clip-path="url(#a80ba7ae7a)"><path fill="#cb7f00" d="M 68.347656 48.429688 C 68.941406 48.085938 69.558594 47.71875 70.179688 47.339844 C 70.421875 47.195312 70.726562 47.238281 70.914062 47.425781 C 70.949219 47.460938 70.976562 47.5 71.003906 47.539062 C 71.175781 47.820312 71.085938 48.191406 70.804688 48.363281 C 70.175781 48.746094 69.550781 49.117188 68.949219 49.464844 C 68.664062 49.632812 68.296875 49.535156 68.128906 49.25 C 67.964844 48.964844 68.0625 48.597656 68.347656 48.429688 Z M 68.347656 48.429688 " fill-opacity="1" fill-rule="nonzero"/></g></g></g><g clip-path="url(#f84205e14a)"><g clip-path="url(#c2b761f945)"><g clip-path="url(#fc23dbfb03)"><path fill="#cb7f00" d="M 33.730469 30.96875 C 33.75 30.28125 33.683594 29.617188 33.539062 28.992188 C 33.460938 28.671875 33.664062 28.347656 33.984375 28.273438 C 34.195312 28.222656 34.402344 28.289062 34.542969 28.433594 C 34.621094 28.507812 34.675781 28.605469 34.703125 28.71875 C 34.875 29.445312 34.949219 30.214844 34.925781 31.003906 C 34.917969 31.332031 34.644531 31.59375 34.3125 31.585938 C 33.980469 31.574219 33.722656 31.300781 33.730469 30.96875 Z M 33.730469 30.96875 " fill-opacity="1" fill-rule="nonzero"/></g></g></g><g clip-path="url(#12775f8a57)"><g clip-path="url(#4259f3b069)"><g clip-path="url(#555ff76c89)"><path fill="#cb7f00" d="M 5.652344 35.472656 C 5.328125 35.417969 5.105469 35.109375 5.160156 34.785156 C 5.285156 34.039062 5.476562 33.304688 5.730469 32.605469 C 5.84375 32.296875 6.1875 32.132812 6.496094 32.246094 C 6.582031 32.277344 6.65625 32.324219 6.71875 32.386719 C 6.875 32.542969 6.9375 32.785156 6.855469 33.011719 C 6.628906 33.644531 6.457031 34.308594 6.34375 34.980469 C 6.289062 35.308594 5.980469 35.527344 5.652344 35.472656 Z M 5.652344 35.472656 " fill-opacity="1" fill-rule="nonzero"/></g></g></g><g clip-path="url(#d458495c89)"><g clip-path="url(#5e1ae3d94b)"><g clip-path="url(#02f75d8092)"><path fill="#cb7f00" d="M 5.46875 40.480469 C 5.265625 39.761719 5.125 39.019531 5.050781 38.273438 C 5.015625 37.945312 5.257812 37.652344 5.585938 37.617188 C 5.773438 37.597656 5.945312 37.667969 6.070312 37.789062 C 6.164062 37.882812 6.226562 38.011719 6.242188 38.152344 C 6.3125 38.832031 6.4375 39.507812 6.621094 40.160156 C 6.707031 40.480469 6.523438 40.808594 6.203125 40.898438 C 5.886719 40.984375 5.554688 40.800781 5.46875 40.480469 Z M 5.46875 40.480469 " fill-opacity="1" fill-rule="nonzero"/></g></g></g><g clip-path="url(#46eda180c8)"><g clip-path="url(#dfe34c56dd)"><g clip-path="url(#f16a4f2e8e)"><path fill="#cb7f00" d="M 22.355469 44.769531 C 22.0625 44.921875 21.703125 44.804688 21.550781 44.511719 C 21.21875 43.855469 20.914062 43.179688 20.648438 42.5 C 20.527344 42.195312 20.675781 41.847656 20.984375 41.726562 C 21.210938 41.636719 21.464844 41.695312 21.628906 41.859375 C 21.683594 41.914062 21.730469 41.984375 21.761719 42.0625 C 22.015625 42.707031 22.300781 43.347656 22.617188 43.964844 C 22.769531 44.261719 22.652344 44.621094 22.355469 44.769531 Z M 22.355469 44.769531 " fill-opacity="1" fill-rule="nonzero"/></g></g></g><g clip-path="url(#f275f53cf9)"><g clip-path="url(#f66fca58ac)"><g clip-path="url(#03b4ae2b71)"><path fill="#cb7f00" d="M 48.253906 57.050781 C 47.925781 57.089844 47.628906 56.851562 47.589844 56.523438 C 47.554688 56.195312 47.789062 55.898438 48.117188 55.863281 C 48.808594 55.785156 49.511719 55.683594 50.210938 55.566406 C 50.410156 55.53125 50.601562 55.601562 50.734375 55.734375 C 50.820312 55.816406 50.878906 55.929688 50.902344 56.054688 C 50.957031 56.382812 50.734375 56.691406 50.410156 56.746094 C 49.691406 56.867188 48.964844 56.96875 48.253906 57.050781 Z M 48.253906 57.050781 " fill-opacity="1" fill-rule="nonzero"/></g></g></g><g clip-path="url(#067664d693)"><g clip-path="url(#e9c0bb804b)"><g clip-path="url(#60ade41f7d)"><path fill="#cb7f00" d="M 42.679688 57.253906 C 42.347656 57.238281 42.09375 56.960938 42.109375 56.628906 C 42.121094 56.300781 42.402344 56.042969 42.730469 56.058594 C 43.421875 56.089844 44.132812 56.097656 44.839844 56.082031 C 45.007812 56.078125 45.164062 56.148438 45.273438 56.257812 C 45.378906 56.363281 45.445312 56.507812 45.449219 56.667969 C 45.457031 57 45.191406 57.273438 44.863281 57.28125 C 44.128906 57.292969 43.394531 57.285156 42.679688 57.253906 Z M 42.679688 57.253906 " fill-opacity="1" fill-rule="nonzero"/></g></g></g><g clip-path="url(#d83c817959)"><g clip-path="url(#50337be785)"><g clip-path="url(#e5bb9005ef)"><path fill="#cb7f00" d="M 32.589844 36.765625 C 32.292969 36.621094 32.167969 36.265625 32.316406 35.96875 C 32.644531 35.292969 32.90625 34.667969 33.121094 34.058594 C 33.226562 33.746094 33.570312 33.578125 33.882812 33.6875 C 33.96875 33.71875 34.046875 33.769531 34.109375 33.828125 C 34.265625 33.988281 34.328125 34.226562 34.25 34.449219 C 34.023438 35.105469 33.742188 35.773438 33.390625 36.492188 C 33.246094 36.789062 32.886719 36.914062 32.589844 36.765625 Z M 32.589844 36.765625 " fill-opacity="1" fill-rule="nonzero"/></g></g></g><g clip-path="url(#c274a15ee5)"><g clip-path="url(#43bea14763)"><g clip-path="url(#b5ebed0aba)"><path fill="#cb7f00" d="M 61.210938 52.535156 C 61.261719 52.589844 61.304688 52.652344 61.335938 52.722656 C 61.464844 53.027344 61.328125 53.378906 61.023438 53.507812 C 60.351562 53.796875 59.675781 54.074219 59.015625 54.332031 C 58.707031 54.449219 58.359375 54.296875 58.242188 53.988281 C 58.121094 53.679688 58.277344 53.332031 58.582031 53.214844 C 59.230469 52.964844 59.890625 52.695312 60.550781 52.410156 C 60.78125 52.3125 61.039062 52.367188 61.210938 52.535156 Z M 61.210938 52.535156 " fill-opacity="1" fill-rule="nonzero"/></g></g></g><g clip-path="url(#28c0d86cda)"><g clip-path="url(#747ed344f6)"><g clip-path="url(#65b5c00e74)"><path fill="#cb7f00" d="M 39.289062 56.925781 C 38.5625 56.8125 37.839844 56.671875 37.136719 56.507812 C 36.816406 56.433594 36.617188 56.113281 36.691406 55.789062 C 36.765625 55.46875 37.089844 55.269531 37.410156 55.34375 C 38.082031 55.5 38.773438 55.632812 39.472656 55.742188 C 39.601562 55.761719 39.714844 55.820312 39.804688 55.910156 C 39.933594 56.039062 40 56.226562 39.972656 56.421875 C 39.921875 56.75 39.617188 56.972656 39.289062 56.925781 Z M 39.289062 56.925781 " fill-opacity="1" fill-rule="nonzero"/></g></g></g><g clip-path="url(#451558262d)"><g clip-path="url(#c960ac9f2b)"><g clip-path="url(#690cd13347)"><path fill="#cb7f00" d="M 53.726562 56.039062 C 53.40625 56.121094 53.082031 55.929688 53 55.609375 C 52.917969 55.289062 53.109375 54.964844 53.429688 54.882812 C 54.109375 54.707031 54.792969 54.515625 55.46875 54.304688 C 55.6875 54.238281 55.914062 54.300781 56.066406 54.453125 C 56.132812 54.519531 56.1875 54.601562 56.214844 54.699219 C 56.3125 55.015625 56.136719 55.351562 55.824219 55.449219 C 55.128906 55.664062 54.425781 55.863281 53.726562 56.042969 Z M 53.726562 56.039062 " fill-opacity="1" fill-rule="nonzero"/></g></g></g><g clip-path="url(#6f5eb4c414)"><g clip-path="url(#ea79f367f9)"><g clip-path="url(#0095b3d3a4)"><path fill="#cb7f00" d="M 29.703125 41.429688 C 29.429688 41.242188 29.363281 40.867188 29.554688 40.597656 C 29.941406 40.046875 30.328125 39.453125 30.710938 38.832031 C 30.886719 38.550781 31.253906 38.464844 31.535156 38.636719 C 31.574219 38.660156 31.613281 38.691406 31.644531 38.722656 C 31.835938 38.914062 31.878906 39.21875 31.730469 39.460938 C 31.335938 40.101562 30.933594 40.714844 30.535156 41.285156 C 30.34375 41.554688 29.972656 41.621094 29.699219 41.433594 Z M 29.703125 41.429688 " fill-opacity="1" fill-rule="nonzero"/></g></g></g><g clip-path="url(#2ca0c33916)"><g clip-path="url(#4a0afa4155)"><g clip-path="url(#8ba13e47ef)"><path fill="#cb7f00" d="M 26.015625 45.484375 C 25.796875 45.238281 25.816406 44.859375 26.058594 44.640625 C 26.296875 44.425781 26.535156 44.199219 26.765625 43.96875 C 27.019531 43.710938 27.277344 43.441406 27.527344 43.164062 C 27.75 42.917969 28.128906 42.898438 28.375 43.117188 C 28.382812 43.125 28.390625 43.132812 28.398438 43.140625 C 28.621094 43.363281 28.632812 43.726562 28.417969 43.964844 C 28.152344 44.257812 27.882812 44.542969 27.613281 44.816406 C 27.363281 45.0625 27.113281 45.300781 26.863281 45.527344 C 26.617188 45.75 26.238281 45.730469 26.015625 45.484375 Z M 26.015625 45.484375 " fill-opacity="1" fill-rule="nonzero"/></g></g></g><g clip-path="url(#b9cd56c957)"><g clip-path="url(#b3d662c799)"><g clip-path="url(#a642aad408)"><path fill="#cb7f00" d="M 28.882812 52.925781 C 28.28125 52.511719 27.691406 52.058594 27.132812 51.585938 C 26.878906 51.371094 26.847656 50.992188 27.0625 50.742188 C 27.277344 50.488281 27.652344 50.457031 27.90625 50.671875 C 28.4375 51.121094 28.992188 51.546875 29.5625 51.941406 C 29.589844 51.960938 29.621094 51.984375 29.644531 52.007812 C 29.84375 52.210938 29.878906 52.53125 29.714844 52.773438 C 29.527344 53.042969 29.152344 53.113281 28.882812 52.925781 Z M 28.882812 52.925781 " fill-opacity="1" fill-rule="nonzero"/></g></g></g><g clip-path="url(#132f2df2c7)"><g clip-path="url(#739bdb16e9)"><g clip-path="url(#ed0ca5403f)"><path fill="#cb7f00" d="M 24.691406 49.171875 C 24.320312 48.742188 23.960938 48.296875 23.617188 47.839844 C 23.125 48.101562 22.621094 48.335938 22.117188 48.535156 L 22.0625 48.554688 C 21.753906 48.675781 21.40625 48.519531 21.285156 48.214844 C 21.167969 47.90625 21.320312 47.558594 21.628906 47.4375 L 21.679688 47.421875 C 22.285156 47.183594 22.890625 46.890625 23.472656 46.546875 C 23.691406 46.421875 23.957031 46.449219 24.144531 46.59375 C 24.179688 46.617188 24.210938 46.640625 24.238281 46.671875 C 24.261719 46.695312 24.285156 46.71875 24.304688 46.746094 C 24.707031 47.3125 25.140625 47.863281 25.59375 48.386719 C 25.8125 48.636719 25.785156 49.015625 25.535156 49.230469 C 25.285156 49.449219 24.90625 49.421875 24.691406 49.171875 Z M 24.691406 49.171875 " fill-opacity="1" fill-rule="nonzero"/></g></g></g><g clip-path="url(#a770548013)"><g clip-path="url(#b0e2a9ee4f)"><g clip-path="url(#d9c60d2694)"><path fill="#cb7f00" d="M 33.867188 55.519531 C 33.175781 55.257812 32.496094 54.964844 31.847656 54.648438 C 31.550781 54.503906 31.425781 54.148438 31.570312 53.851562 C 31.714844 53.550781 32.070312 53.429688 32.371094 53.574219 C 32.988281 53.875 33.632812 54.152344 34.289062 54.398438 C 34.371094 54.429688 34.441406 54.476562 34.5 54.535156 C 34.664062 54.695312 34.722656 54.941406 34.636719 55.167969 C 34.519531 55.480469 34.175781 55.636719 33.867188 55.519531 Z M 33.867188 55.519531 " fill-opacity="1" fill-rule="nonzero"/></g></g></g><g clip-path="url(#9f25e62b81)"><g clip-path="url(#aa17abb307)"><g clip-path="url(#75b2c225a8)"><path fill="#cb7f00" d="M 73.996094 50.066406 L 69.875 43.863281 C 69.324219 43.03125 69.878906 41.914062 70.875 41.851562 L 78.308594 41.386719 C 79.300781 41.324219 79.992188 42.363281 79.546875 43.257812 L 76.234375 49.925781 C 75.789062 50.820312 74.546875 50.898438 73.996094 50.066406 Z M 73.996094 50.066406 " fill-opacity="1" fill-rule="nonzero"/></g></g></g></g></g></g></g><g clip-path="url(#49c529b14f)"><g transform="matrix(1, 0, 0, 1, 0.000000000000007105, 0.000000000000014211)"><g clip-path="url(#7dce2fa2ee)"><g fill="#cb7f00" fill-opacity="1"><g transform="translate(6.589925, 48.236649)"><g><path d="M 3.304688 2.03125 C 2.367188 2.121094 1.523438 2.050781 0.769531 1.832031 C -0.132812 1.5625 -0.878906 1.089844 -1.464844 0.410156 C -2.363281 -0.632812 -2.882812 -1.9375 -3.027344 -3.496094 C -3.128906 -4.582031 -3.105469 -5.757812 -2.957031 -7.03125 C -2.816406 -8.242188 -2.601562 -9.433594 -2.308594 -10.609375 L 0.015625 -19.816406 C 0.699219 -22.484375 1.429688 -24.546875 2.203125 -26.003906 C 2.6875 -26.921875 3.253906 -27.652344 3.902344 -28.195312 C 4.6875 -28.855469 5.5625 -29.226562 6.53125 -29.316406 C 7.335938 -29.390625 8.058594 -29.273438 8.695312 -28.96875 C 9.457031 -28.601562 10.015625 -28.019531 10.367188 -27.226562 C 10.878906 -26.089844 10.792969 -24.625 10.113281 -22.835938 C 9.320312 -20.769531 8.652344 -18.871094 8.109375 -17.144531 C 7.582031 -15.464844 7.191406 -13.894531 6.941406 -12.433594 C 6.828125 -11.808594 6.761719 -11.222656 6.742188 -10.679688 C 6.738281 -10.574219 6.738281 -10.5 6.75 -10.457031 C 6.738281 -10.5 6.710938 -10.554688 6.667969 -10.613281 C 6.503906 -10.835938 6.304688 -10.980469 6.066406 -11.054688 C 6.023438 -11.066406 5.992188 -11.074219 5.96875 -11.078125 C 5.996094 -11.074219 6.035156 -11.078125 6.089844 -11.082031 C 6.238281 -11.097656 6.347656 -11.132812 6.417969 -11.191406 C 6.632812 -11.371094 6.839844 -11.640625 7.03125 -12 C 7.34375 -12.574219 7.773438 -13.003906 8.320312 -13.285156 C 8.90625 -13.589844 9.535156 -13.683594 10.210938 -13.566406 C 11.007812 -13.429688 11.695312 -13.078125 12.269531 -12.519531 C 12.714844 -12.082031 13 -11.578125 13.128906 -11.003906 C 13.269531 -10.363281 13.191406 -9.734375 12.898438 -9.125 C 12.726562 -8.777344 12.519531 -8.265625 12.28125 -7.589844 C 11.988281 -6.757812 11.628906 -5.871094 11.207031 -4.929688 C 10.757812 -3.925781 10.214844 -2.957031 9.578125 -2.019531 C 8.871094 -0.984375 8.042969 -0.109375 7.09375 0.601562 C 6 1.421875 4.738281 1.898438 3.304688 2.03125 Z M 2.875 -2.605469 C 3.433594 -2.65625 3.90625 -2.828125 4.300781 -3.125 C 4.835938 -3.527344 5.3125 -4.03125 5.726562 -4.640625 C 6.210938 -5.351562 6.621094 -6.082031 6.960938 -6.839844 C 7.328125 -7.660156 7.636719 -8.425781 7.886719 -9.132812 C 8.191406 -10 8.464844 -10.667969 8.703125 -11.140625 C 8.53125 -10.789062 8.492188 -10.40625 8.578125 -10.003906 C 8.652344 -9.671875 8.796875 -9.398438 9.015625 -9.1875 C 9.132812 -9.074219 9.265625 -9.003906 9.417969 -8.976562 C 9.769531 -8.914062 10.117188 -8.972656 10.457031 -9.148438 C 10.761719 -9.304688 10.984375 -9.515625 11.128906 -9.785156 C 10.652344 -8.90625 10.082031 -8.183594 9.410156 -7.625 C 8.597656 -6.941406 7.632812 -6.546875 6.519531 -6.445312 C 5.851562 -6.382812 5.242188 -6.4375 4.695312 -6.605469 C 3.957031 -6.832031 3.367188 -7.246094 2.921875 -7.84375 C 2.320312 -8.660156 2.039062 -9.667969 2.085938 -10.863281 C 2.117188 -11.621094 2.203125 -12.40625 2.351562 -13.226562 C 2.640625 -14.894531 3.078125 -16.664062 3.664062 -18.539062 C 4.238281 -20.359375 4.933594 -22.34375 5.757812 -24.488281 C 5.914062 -24.902344 6.007812 -25.234375 6.039062 -25.480469 C 6.042969 -25.53125 6.046875 -25.558594 6.046875 -25.566406 C 6.054688 -25.496094 6.078125 -25.414062 6.117188 -25.324219 C 6.226562 -25.082031 6.410156 -24.898438 6.671875 -24.773438 C 6.765625 -24.726562 6.859375 -24.699219 6.945312 -24.6875 C 6.964844 -24.683594 6.976562 -24.683594 6.988281 -24.683594 C 6.984375 -24.683594 6.972656 -24.679688 6.960938 -24.679688 C 6.964844 -24.679688 6.972656 -24.683594 6.976562 -24.683594 C 6.957031 -24.675781 6.929688 -24.65625 6.890625 -24.625 C 6.710938 -24.472656 6.519531 -24.207031 6.320312 -23.828125 C 5.71875 -22.691406 5.121094 -20.972656 4.53125 -18.679688 L 2.210938 -9.484375 C 1.96875 -8.503906 1.785156 -7.507812 1.667969 -6.496094 C 1.558594 -5.542969 1.539062 -4.6875 1.609375 -3.925781 C 1.660156 -3.355469 1.8125 -2.921875 2.066406 -2.628906 C 2.054688 -2.640625 2.046875 -2.648438 2.035156 -2.65625 C 2.042969 -2.652344 2.0625 -2.644531 2.089844 -2.636719 C 2.269531 -2.582031 2.53125 -2.574219 2.875 -2.605469 Z M 2.875 -2.605469 "/></g></g></g><g fill="#cb7f00" fill-opacity="1"><g transform="translate(15.755383, 47.38843)"><g><path d="M 15.179688 -12.753906 C 15.492188 -13.332031 15.941406 -13.753906 16.535156 -14.019531 C 17.023438 -14.238281 17.550781 -14.320312 18.125 -14.261719 C 18.871094 -14.191406 19.542969 -13.933594 20.136719 -13.492188 C 20.699219 -13.078125 21.0625 -12.546875 21.238281 -11.902344 C 21.402344 -11.289062 21.359375 -10.667969 21.117188 -10.042969 L 18.949219 -10.886719 L 21.140625 -10.101562 C 20.820312 -9.214844 20.390625 -8.296875 19.847656 -7.351562 C 19.222656 -6.261719 18.410156 -5.324219 17.40625 -4.539062 C 16.28125 -3.664062 14.898438 -3.148438 13.257812 -2.996094 L 12.820312 -2.957031 L 12.609375 -5.273438 L 14.609375 -4.085938 C 13.664062 -2.492188 12.46875 -1.171875 11.027344 -0.128906 C 9.503906 0.976562 7.851562 1.613281 6.070312 1.777344 C 3.796875 1.988281 1.824219 1.386719 0.160156 -0.03125 C -1.492188 -1.433594 -2.433594 -3.394531 -2.664062 -5.914062 C -2.816406 -7.535156 -2.675781 -9.207031 -2.246094 -10.929688 C -1.824219 -12.625 -1.15625 -14.214844 -0.246094 -15.703125 C 0.699219 -17.246094 1.871094 -18.527344 3.261719 -19.546875 C 4.753906 -20.640625 6.441406 -21.277344 8.324219 -21.449219 C 9.683594 -21.574219 10.949219 -21.410156 12.128906 -20.949219 C 13.441406 -20.441406 14.511719 -19.53125 15.34375 -18.222656 C 16.101562 -17.03125 16.570312 -15.484375 16.746094 -13.582031 C 16.886719 -12.070312 16.804688 -10.578125 16.511719 -9.109375 L 14.226562 -9.570312 L 14.011719 -11.890625 L 14.265625 -11.914062 C 14.386719 -11.921875 14.507812 -11.972656 14.628906 -12.054688 C 14.800781 -12.179688 14.992188 -12.421875 15.199219 -12.789062 Z M 19.253906 -10.5 C 18.707031 -9.527344 18.058594 -8.777344 17.3125 -8.25 C 16.515625 -7.6875 15.644531 -7.363281 14.695312 -7.273438 L 11.324219 -6.964844 L 11.945312 -10.03125 C 12.152344 -11.054688 12.207031 -12.09375 12.109375 -13.152344 C 12 -14.304688 11.769531 -15.164062 11.414062 -15.726562 C 11.128906 -16.175781 10.800781 -16.46875 10.4375 -16.609375 C 9.945312 -16.804688 9.382812 -16.871094 8.75 -16.8125 C 7.726562 -16.71875 6.8125 -16.378906 6.015625 -15.792969 C 5.117188 -15.132812 4.351562 -14.292969 3.726562 -13.269531 C 3.066406 -12.1875 2.582031 -11.03125 2.273438 -9.800781 C 1.96875 -8.589844 1.871094 -7.441406 1.972656 -6.34375 C 2.089844 -5.082031 2.488281 -4.160156 3.175781 -3.578125 C 3.84375 -3.011719 4.667969 -2.769531 5.640625 -2.859375 C 6.574219 -2.945312 7.460938 -3.292969 8.296875 -3.898438 C 9.214844 -4.566406 9.984375 -5.421875 10.605469 -6.464844 L 11.210938 -7.484375 L 12.828125 -7.632812 C 13.5625 -7.703125 14.132812 -7.894531 14.539062 -8.210938 C 15.0625 -8.621094 15.488281 -9.105469 15.808594 -9.667969 C 16.214844 -10.375 16.53125 -11.042969 16.753906 -11.671875 L 16.777344 -11.734375 C 16.652344 -11.410156 16.640625 -11.066406 16.738281 -10.699219 C 16.84375 -10.296875 17.054688 -9.980469 17.363281 -9.75 C 17.460938 -9.679688 17.5625 -9.636719 17.667969 -9.628906 C 17.917969 -9.605469 18.175781 -9.652344 18.441406 -9.769531 C 18.808594 -9.933594 19.085938 -10.191406 19.273438 -10.539062 Z M 7.015625 -10.582031 C 7.085938 -10.585938 7.140625 -10.609375 7.175781 -10.644531 C 7.359375 -10.816406 7.496094 -11.019531 7.589844 -11.25 C 7.667969 -11.449219 7.703125 -11.617188 7.6875 -11.753906 C 7.6875 -11.765625 7.6875 -11.769531 7.6875 -11.773438 C 7.6875 -11.761719 7.695312 -11.75 7.699219 -11.734375 C 7.71875 -11.695312 7.742188 -11.660156 7.769531 -11.632812 C 7.886719 -11.515625 8.015625 -11.441406 8.148438 -11.402344 C 8.164062 -11.398438 8.175781 -11.398438 8.183594 -11.394531 L 8.179688 -11.394531 C 8.144531 -11.398438 8.101562 -11.398438 8.042969 -11.390625 C 7.980469 -11.386719 7.933594 -11.367188 7.898438 -11.339844 C 7.757812 -11.207031 7.648438 -11.042969 7.570312 -10.84375 C 7.492188 -10.636719 7.460938 -10.441406 7.476562 -10.265625 C 7.480469 -10.246094 7.480469 -10.226562 7.484375 -10.214844 L 7.484375 -10.21875 C 7.476562 -10.238281 7.464844 -10.257812 7.449219 -10.273438 C 7.320312 -10.414062 7.171875 -10.511719 7.007812 -10.558594 C 6.972656 -10.570312 6.945312 -10.574219 6.925781 -10.578125 C 6.945312 -10.574219 6.976562 -10.578125 7.015625 -10.582031 Z M 7.445312 -5.945312 C 6.808594 -5.886719 6.222656 -5.933594 5.683594 -6.09375 C 5.015625 -6.292969 4.453125 -6.644531 3.996094 -7.148438 C 3.324219 -7.890625 2.9375 -8.789062 2.839844 -9.835938 C 2.757812 -10.726562 2.882812 -11.613281 3.21875 -12.492188 C 3.554688 -13.386719 4.070312 -14.144531 4.757812 -14.777344 C 5.5625 -15.507812 6.511719 -15.925781 7.613281 -16.027344 C 9.039062 -16.160156 10.183594 -15.796875 11.046875 -14.941406 C 11.796875 -14.199219 12.222656 -13.277344 12.324219 -12.183594 C 12.40625 -11.300781 12.269531 -10.414062 11.914062 -9.519531 C 11.566406 -8.660156 11.058594 -7.910156 10.386719 -7.269531 C 9.570312 -6.492188 8.589844 -6.050781 7.445312 -5.945312 Z M 7.445312 -5.945312 "/></g></g></g><g fill="#cb7f00" fill-opacity="1"><g transform="translate(33.067907, 45.786239)"><g><path d="M 15.179688 -12.753906 C 15.492188 -13.332031 15.941406 -13.753906 16.535156 -14.019531 C 17.023438 -14.238281 17.550781 -14.320312 18.125 -14.261719 C 18.871094 -14.191406 19.542969 -13.933594 20.136719 -13.492188 C 20.699219 -13.078125 21.0625 -12.546875 21.238281 -11.902344 C 21.402344 -11.289062 21.359375 -10.667969 21.117188 -10.042969 L 18.949219 -10.886719 L 21.140625 -10.101562 C 20.820312 -9.214844 20.390625 -8.296875 19.847656 -7.351562 C 19.222656 -6.261719 18.410156 -5.324219 17.40625 -4.539062 C 16.28125 -3.664062 14.898438 -3.148438 13.257812 -2.996094 L 12.820312 -2.957031 L 12.609375 -5.273438 L 14.609375 -4.085938 C 13.664062 -2.492188 12.46875 -1.171875 11.027344 -0.128906 C 9.503906 0.976562 7.851562 1.613281 6.070312 1.777344 C 3.796875 1.988281 1.824219 1.386719 0.160156 -0.03125 C -1.492188 -1.433594 -2.433594 -3.394531 -2.664062 -5.914062 C -2.816406 -7.535156 -2.675781 -9.207031 -2.246094 -10.929688 C -1.824219 -12.625 -1.15625 -14.214844 -0.246094 -15.703125 C 0.699219 -17.246094 1.871094 -18.527344 3.261719 -19.546875 C 4.753906 -20.640625 6.441406 -21.277344 8.324219 -21.449219 C 9.683594 -21.574219 10.949219 -21.410156 12.128906 -20.949219 C 13.441406 -20.441406 14.511719 -19.53125 15.34375 -18.222656 C 16.101562 -17.03125 16.570312 -15.484375 16.746094 -13.582031 C 16.886719 -12.070312 16.804688 -10.578125 16.511719 -9.109375 L 14.226562 -9.570312 L 14.011719 -11.890625 L 14.265625 -11.914062 C 14.386719 -11.921875 14.507812 -11.972656 14.628906 -12.054688 C 14.800781 -12.179688 14.992188 -12.421875 15.199219 -12.789062 Z M 19.253906 -10.5 C 18.707031 -9.527344 18.058594 -8.777344 17.3125 -8.25 C 16.515625 -7.6875 15.644531 -7.363281 14.695312 -7.273438 L 11.324219 -6.964844 L 11.945312 -10.03125 C 12.152344 -11.054688 12.207031 -12.09375 12.109375 -13.152344 C 12 -14.304688 11.769531 -15.164062 11.414062 -15.726562 C 11.128906 -16.175781 10.800781 -16.46875 10.4375 -16.609375 C 9.945312 -16.804688 9.382812 -16.871094 8.75 -16.8125 C 7.726562 -16.71875 6.8125 -16.378906 6.015625 -15.792969 C 5.117188 -15.132812 4.351562 -14.292969 3.726562 -13.269531 C 3.066406 -12.1875 2.582031 -11.03125 2.273438 -9.800781 C 1.96875 -8.589844 1.871094 -7.441406 1.972656 -6.34375 C 2.089844 -5.082031 2.488281 -4.160156 3.175781 -3.578125 C 3.84375 -3.011719 4.667969 -2.769531 5.640625 -2.859375 C 6.574219 -2.945312 7.460938 -3.292969 8.296875 -3.898438 C 9.214844 -4.566406 9.984375 -5.421875 10.605469 -6.464844 L 11.210938 -7.484375 L 12.828125 -7.632812 C 13.5625 -7.703125 14.132812 -7.894531 14.539062 -8.210938 C 15.0625 -8.621094 15.488281 -9.105469 15.808594 -9.667969 C 16.214844 -10.375 16.53125 -11.042969 16.753906 -11.671875 L 16.777344 -11.734375 C 16.652344 -11.410156 16.640625 -11.066406 16.738281 -10.699219 C 16.84375 -10.296875 17.054688 -9.980469 17.363281 -9.75 C 17.460938 -9.679688 17.5625 -9.636719 17.667969 -9.628906 C 17.917969 -9.605469 18.175781 -9.652344 18.441406 -9.769531 C 18.808594 -9.933594 19.085938 -10.191406 19.273438 -10.539062 Z M 7.015625 -10.582031 C 7.085938 -10.585938 7.140625 -10.609375 7.175781 -10.644531 C 7.359375 -10.816406 7.496094 -11.019531 7.589844 -11.25 C 7.667969 -11.449219 7.703125 -11.617188 7.6875 -11.753906 C 7.6875 -11.765625 7.6875 -11.769531 7.6875 -11.773438 C 7.6875 -11.761719 7.695312 -11.75 7.699219 -11.734375 C 7.71875 -11.695312 7.742188 -11.660156 7.769531 -11.632812 C 7.886719 -11.515625 8.015625 -11.441406 8.148438 -11.402344 C 8.164062 -11.398438 8.175781 -11.398438 8.183594 -11.394531 L 8.179688 -11.394531 C 8.144531 -11.398438 8.101562 -11.398438 8.042969 -11.390625 C 7.980469 -11.386719 7.933594 -11.367188 7.898438 -11.339844 C 7.757812 -11.207031 7.648438 -11.042969 7.570312 -10.84375 C 7.492188 -10.636719 7.460938 -10.441406 7.476562 -10.265625 C 7.480469 -10.246094 7.480469 -10.226562 7.484375 -10.214844 L 7.484375 -10.21875 C 7.476562 -10.238281 7.464844 -10.257812 7.449219 -10.273438 C 7.320312 -10.414062 7.171875 -10.511719 7.007812 -10.558594 C 6.972656 -10.570312 6.945312 -10.574219 6.925781 -10.578125 C 6.945312 -10.574219 6.976562 -10.578125 7.015625 -10.582031 Z M 7.445312 -5.945312 C 6.808594 -5.886719 6.222656 -5.933594 5.683594 -6.09375 C 5.015625 -6.292969 4.453125 -6.644531 3.996094 -7.148438 C 3.324219 -7.890625 2.9375 -8.789062 2.839844 -9.835938 C 2.757812 -10.726562 2.882812 -11.613281 3.21875 -12.492188 C 3.554688 -13.386719 4.070312 -14.144531 4.757812 -14.777344 C 5.5625 -15.507812 6.511719 -15.925781 7.613281 -16.027344 C 9.039062 -16.160156 10.183594 -15.796875 11.046875 -14.941406 C 11.796875 -14.199219 12.222656 -13.277344 12.324219 -12.183594 C 12.40625 -11.300781 12.269531 -10.414062 11.914062 -9.519531 C 11.566406 -8.660156 11.058594 -7.910156 10.386719 -7.269531 C 9.570312 -6.492188 8.589844 -6.050781 7.445312 -5.945312 Z M 7.445312 -5.945312 "/></g></g></g><g fill="#cb7f00" fill-opacity="1"><g transform="translate(50.380432, 44.184049)"><g><path d="M 16.683594 4.28125 C 15.257812 4.410156 13.90625 4.253906 12.628906 3.8125 C 11.363281 3.375 10.195312 2.660156 9.125 1.671875 C 7.117188 -0.1875 5.632812 -3.191406 4.671875 -7.34375 C 4.660156 -7.394531 4.652344 -7.425781 4.648438 -7.4375 C 4.667969 -7.390625 4.695312 -7.339844 4.734375 -7.28125 C 4.90625 -7.035156 5.148438 -6.863281 5.457031 -6.765625 C 5.691406 -6.691406 5.9375 -6.691406 6.199219 -6.761719 C 6.421875 -6.820312 6.601562 -6.917969 6.738281 -7.050781 C 6.902344 -7.214844 7.003906 -7.382812 7.042969 -7.554688 C 7.042969 -7.5625 7.046875 -7.570312 7.046875 -7.574219 C 7.046875 -7.566406 7.042969 -7.554688 7.042969 -7.542969 C 7.042969 -7.484375 7.042969 -7.414062 7.050781 -7.328125 L 7.308594 -4.566406 C 7.382812 -3.773438 7.359375 -2.980469 7.242188 -2.1875 C 7.082031 -1.125 6.664062 -0.207031 5.984375 0.5625 C 5.199219 1.449219 4.101562 1.957031 2.6875 2.089844 C 1.808594 2.171875 1.011719 2.074219 0.292969 1.804688 C -0.523438 1.496094 -1.191406 0.984375 -1.710938 0.269531 C -2.453125 -0.75 -2.890625 -2.007812 -3.027344 -3.496094 C -3.128906 -4.582031 -3.105469 -5.757812 -2.957031 -7.03125 C -2.816406 -8.242188 -2.601562 -9.433594 -2.308594 -10.609375 L 0.015625 -19.816406 C 0.699219 -22.484375 1.429688 -24.546875 2.203125 -26.003906 C 2.6875 -26.921875 3.253906 -27.652344 3.902344 -28.195312 C 4.6875 -28.855469 5.5625 -29.226562 6.53125 -29.316406 C 7.332031 -29.390625 8.050781 -29.277344 8.683594 -28.976562 C 9.453125 -28.605469 10.011719 -28.019531 10.359375 -27.214844 C 10.640625 -26.566406 10.734375 -25.820312 10.640625 -24.976562 C 10.574219 -24.359375 10.402344 -23.664062 10.132812 -22.890625 C 9.613281 -21.351562 9.039062 -19.714844 8.410156 -17.988281 C 7.851562 -16.464844 7.492188 -14.910156 7.335938 -13.328125 C 7.359375 -13.582031 7.304688 -13.839844 7.171875 -14.105469 C 6.976562 -14.503906 6.679688 -14.78125 6.285156 -14.945312 C 6.121094 -15.011719 5.953125 -15.039062 5.777344 -15.035156 C 5.65625 -15.03125 5.546875 -15.007812 5.460938 -14.972656 C 5.335938 -14.921875 5.21875 -14.839844 5.109375 -14.726562 C 4.988281 -14.601562 4.898438 -14.460938 4.84375 -14.304688 C 5.515625 -16.296875 6.335938 -17.917969 7.304688 -19.167969 C 8.527344 -20.738281 10.125 -21.617188 12.105469 -21.800781 C 13.894531 -21.964844 15.335938 -21.535156 16.421875 -20.503906 C 17.421875 -19.558594 17.984375 -18.402344 18.113281 -17.046875 C 18.261719 -15.445312 17.777344 -13.996094 16.664062 -12.699219 C 15.570312 -11.425781 13.960938 -10.691406 11.832031 -10.496094 L 11.617188 -12.8125 L 11.921875 -10.503906 C 11.882812 -10.5 11.851562 -10.492188 11.828125 -10.488281 C 11.835938 -10.488281 11.851562 -10.496094 11.875 -10.507812 C 12 -10.570312 12.113281 -10.667969 12.214844 -10.804688 C 12.3125 -10.9375 12.355469 -11.082031 12.339844 -11.230469 C 12.382812 -10.78125 12.515625 -10.425781 12.738281 -10.167969 C 13.003906 -9.859375 13.351562 -9.636719 13.789062 -9.492188 C 14.328125 -9.316406 14.898438 -9.257812 15.5 -9.3125 C 15.933594 -9.351562 16.226562 -9.417969 16.378906 -9.511719 C 16.523438 -9.601562 16.613281 -9.679688 16.652344 -9.746094 C 16.8125 -10.011719 16.9375 -10.261719 17.023438 -10.496094 C 17.222656 -11.027344 17.457031 -11.5 17.722656 -11.90625 C 18.007812 -12.332031 18.363281 -12.675781 18.789062 -12.929688 C 19.210938 -13.179688 19.675781 -13.332031 20.183594 -13.378906 C 21.042969 -13.457031 21.847656 -13.253906 22.597656 -12.773438 C 23.175781 -12.402344 23.691406 -11.867188 24.144531 -11.175781 C 24.894531 -10.023438 25.347656 -8.636719 25.496094 -7.019531 C 25.597656 -5.929688 25.539062 -4.796875 25.320312 -3.617188 C 25.089844 -2.363281 24.640625 -1.191406 23.96875 -0.0898438 C 23.269531 1.058594 22.328125 2.027344 21.140625 2.816406 C 19.917969 3.628906 18.429688 4.117188 16.683594 4.28125 Z M 16.253906 -0.359375 C 17.222656 -0.449219 17.992188 -0.683594 18.566406 -1.0625 C 19.175781 -1.46875 19.652344 -1.949219 19.992188 -2.511719 C 20.363281 -3.121094 20.613281 -3.773438 20.738281 -4.460938 C 20.878906 -5.222656 20.917969 -5.929688 20.859375 -6.589844 C 20.78125 -7.441406 20.574219 -8.125 20.242188 -8.632812 C 20.183594 -8.726562 20.128906 -8.796875 20.078125 -8.851562 L 20.078125 -8.855469 C 20.230469 -8.761719 20.40625 -8.722656 20.613281 -8.738281 C 20.804688 -8.757812 20.992188 -8.820312 21.171875 -8.925781 C 21.355469 -9.035156 21.503906 -9.175781 21.613281 -9.34375 C 21.539062 -9.230469 21.464844 -9.070312 21.386719 -8.867188 C 21.199219 -8.367188 20.953125 -7.863281 20.648438 -7.351562 C 20.222656 -6.640625 19.617188 -6.042969 18.835938 -5.558594 C 18.0625 -5.078125 17.09375 -4.78125 15.929688 -4.675781 C 14.6875 -4.558594 13.488281 -4.691406 12.339844 -5.066406 C 11.085938 -5.476562 10.042969 -6.164062 9.214844 -7.125 C 8.339844 -8.132812 7.835938 -9.359375 7.703125 -10.800781 C 7.609375 -11.824219 7.859375 -12.742188 8.457031 -13.558594 C 9.097656 -14.433594 10.046875 -14.953125 11.308594 -15.121094 L 11.355469 -15.128906 L 11.402344 -15.132812 C 12.28125 -15.214844 12.855469 -15.414062 13.132812 -15.734375 C 13.386719 -16.03125 13.5 -16.328125 13.472656 -16.617188 C 13.457031 -16.8125 13.371094 -16.980469 13.21875 -17.125 C 13.222656 -17.121094 13.226562 -17.117188 13.226562 -17.117188 C 13.214844 -17.125 13.191406 -17.132812 13.164062 -17.140625 C 13.015625 -17.179688 12.804688 -17.1875 12.535156 -17.164062 C 11.894531 -17.105469 11.378906 -16.820312 10.980469 -16.308594 C 10.335938 -15.476562 9.753906 -14.289062 9.234375 -12.75 C 9.0625 -12.265625 8.800781 -11.839844 8.449219 -11.480469 C 8.109375 -11.132812 7.710938 -10.863281 7.242188 -10.671875 C 6.3125 -10.285156 5.402344 -10.269531 4.519531 -10.632812 C 3.832031 -10.914062 3.324219 -11.382812 3 -12.035156 C 2.742188 -12.558594 2.640625 -13.144531 2.699219 -13.792969 C 2.898438 -15.765625 3.34375 -17.695312 4.035156 -19.589844 C 4.652344 -21.277344 5.21875 -22.890625 5.738281 -24.433594 C 5.890625 -24.871094 5.984375 -25.21875 6.011719 -25.480469 C 6.019531 -25.542969 6.019531 -25.582031 6.019531 -25.597656 C 6.023438 -25.535156 6.046875 -25.457031 6.085938 -25.367188 C 6.199219 -25.105469 6.394531 -24.90625 6.671875 -24.773438 C 6.773438 -24.726562 6.863281 -24.699219 6.953125 -24.6875 C 6.96875 -24.683594 6.984375 -24.683594 6.992188 -24.683594 C 6.984375 -24.683594 6.976562 -24.683594 6.960938 -24.679688 C 6.964844 -24.679688 6.972656 -24.683594 6.976562 -24.683594 C 6.957031 -24.675781 6.929688 -24.65625 6.890625 -24.625 C 6.710938 -24.472656 6.519531 -24.207031 6.320312 -23.828125 C 5.71875 -22.691406 5.121094 -20.972656 4.53125 -18.679688 L 2.210938 -9.484375 C 1.96875 -8.503906 1.785156 -7.507812 1.667969 -6.496094 C 1.558594 -5.542969 1.539062 -4.6875 1.609375 -3.925781 C 1.667969 -3.285156 1.816406 -2.796875 2.058594 -2.464844 C 2.03125 -2.503906 1.992188 -2.53125 1.941406 -2.550781 C 1.988281 -2.535156 2.09375 -2.53125 2.257812 -2.546875 C 2.417969 -2.5625 2.53125 -2.585938 2.601562 -2.613281 C 2.574219 -2.601562 2.535156 -2.570312 2.492188 -2.519531 C 2.566406 -2.601562 2.613281 -2.71875 2.636719 -2.871094 C 2.699219 -3.292969 2.710938 -3.714844 2.671875 -4.136719 L 2.414062 -6.898438 C 2.277344 -8.382812 2.628906 -9.535156 3.460938 -10.363281 C 3.914062 -10.808594 4.425781 -11.105469 5 -11.261719 C 5.613281 -11.421875 6.230469 -11.40625 6.855469 -11.210938 C 7.554688 -10.988281 8.121094 -10.570312 8.554688 -9.949219 C 8.867188 -9.503906 9.082031 -8.984375 9.207031 -8.394531 C 9.953125 -5.171875 10.980469 -2.957031 12.289062 -1.746094 C 12.878906 -1.199219 13.5 -0.8125 14.15625 -0.585938 C 14.796875 -0.363281 15.496094 -0.289062 16.253906 -0.359375 Z M 16.253906 -0.359375 "/></g></g></g><g fill="#cb7f00" fill-opacity="1"><g transform="translate(74.421571, 41.959158)"><g/></g></g><g fill="#cb7f00" fill-opacity="1"><g transform="translate(87.515072, 40.747417)"><g><path d="M 2.6875 2.089844 C 1.808594 2.171875 1.011719 2.074219 0.292969 1.804688 C -0.523438 1.496094 -1.191406 0.984375 -1.710938 0.269531 C -2.453125 -0.75 -2.890625 -2.007812 -3.027344 -3.496094 C -3.128906 -4.582031 -3.105469 -5.757812 -2.957031 -7.03125 C -2.816406 -8.242188 -2.601562 -9.433594 -2.308594 -10.609375 L 0.015625 -19.816406 C 0.699219 -22.484375 1.429688 -24.546875 2.203125 -26.003906 C 2.6875 -26.921875 3.253906 -27.652344 3.902344 -28.195312 C 4.6875 -28.855469 5.5625 -29.226562 6.53125 -29.316406 C 7.332031 -29.390625 8.050781 -29.277344 8.683594 -28.976562 C 9.453125 -28.605469 10.011719 -28.019531 10.359375 -27.214844 C 10.640625 -26.566406 10.734375 -25.820312 10.640625 -24.976562 C 10.574219 -24.359375 10.402344 -23.664062 10.132812 -22.890625 C 9.753906 -21.757812 9.320312 -20.644531 8.835938 -19.546875 C 8.464844 -18.695312 8.222656 -17.933594 8.113281 -17.261719 C 8.09375 -17.148438 8.085938 -17.058594 8.082031 -16.988281 C 8.078125 -16.976562 8.078125 -16.96875 8.078125 -16.96875 C 8.078125 -16.992188 8.078125 -17.019531 8.070312 -17.050781 C 8.042969 -17.257812 7.96875 -17.46875 7.84375 -17.675781 C 7.578125 -18.121094 7.191406 -18.425781 6.6875 -18.585938 C 6.378906 -18.683594 6.070312 -18.703125 5.757812 -18.644531 C 5.550781 -18.605469 5.371094 -18.539062 5.207031 -18.445312 C 5.136719 -18.402344 5.082031 -18.363281 5.042969 -18.328125 C 5.046875 -18.332031 5.0625 -18.347656 5.082031 -18.375 C 5.875 -19.292969 6.71875 -20.03125 7.613281 -20.585938 C 8.617188 -21.210938 9.703125 -21.578125 10.867188 -21.6875 C 11.722656 -21.765625 12.503906 -21.699219 13.21875 -21.488281 C 14.03125 -21.25 14.730469 -20.835938 15.308594 -20.246094 C 16.289062 -19.246094 16.847656 -18.007812 16.984375 -16.539062 C 17.070312 -15.628906 17 -14.769531 16.78125 -13.960938 C 16.632812 -13.410156 16.484375 -12.871094 16.332031 -12.34375 C 16.265625 -12.109375 16.246094 -11.835938 16.277344 -11.519531 C 16.28125 -11.46875 16.285156 -11.429688 16.292969 -11.398438 L 16.289062 -11.40625 C 16.246094 -11.511719 16.171875 -11.609375 16.0625 -11.707031 C 15.933594 -11.824219 15.792969 -11.902344 15.644531 -11.941406 C 15.605469 -11.949219 15.574219 -11.957031 15.546875 -11.957031 C 15.550781 -11.957031 15.5625 -11.960938 15.582031 -11.960938 L 15.59375 -11.960938 C 15.574219 -11.957031 15.558594 -11.949219 15.535156 -11.9375 C 15.484375 -11.914062 15.441406 -11.882812 15.410156 -11.847656 C 15.636719 -12.105469 15.867188 -12.441406 16.097656 -12.859375 C 16.402344 -13.417969 16.828125 -13.839844 17.375 -14.125 C 17.960938 -14.425781 18.59375 -14.519531 19.265625 -14.402344 C 20.066406 -14.265625 20.753906 -13.917969 21.328125 -13.355469 C 21.773438 -12.921875 22.058594 -12.417969 22.183594 -11.84375 C 22.324219 -11.199219 22.25 -10.574219 21.957031 -9.960938 C 21.78125 -9.617188 21.574219 -9.105469 21.335938 -8.425781 C 21.042969 -7.59375 20.6875 -6.707031 20.265625 -5.769531 C 19.8125 -4.761719 19.269531 -3.792969 18.632812 -2.859375 C 17.929688 -1.824219 17.101562 -0.949219 16.152344 -0.238281 C 15.058594 0.585938 13.792969 1.0625 12.363281 1.195312 C 11.433594 1.28125 10.597656 1.195312 9.847656 0.933594 C 8.972656 0.632812 8.257812 0.121094 7.703125 -0.605469 C 6.890625 -1.667969 6.414062 -2.933594 6.277344 -4.394531 C 6.167969 -5.578125 6.253906 -6.730469 6.527344 -7.847656 C 6.75 -8.746094 6.976562 -9.574219 7.203125 -10.328125 C 7.332031 -10.753906 7.386719 -11.0625 7.367188 -11.246094 C 7.378906 -11.152344 7.410156 -11.046875 7.472656 -10.929688 C 7.566406 -10.746094 7.699219 -10.59375 7.871094 -10.472656 C 7.984375 -10.390625 8.109375 -10.335938 8.238281 -10.304688 C 8.304688 -10.289062 8.363281 -10.285156 8.402344 -10.289062 C 8.339844 -10.28125 8.242188 -10.203125 8.117188 -10.046875 C 7.785156 -9.652344 7.527344 -9.121094 7.34375 -8.460938 C 7.144531 -7.757812 7.082031 -7.003906 7.15625 -6.203125 L 7.308594 -4.566406 C 7.382812 -3.773438 7.359375 -2.980469 7.242188 -2.1875 C 7.082031 -1.125 6.664062 -0.207031 5.984375 0.5625 C 5.199219 1.449219 4.101562 1.957031 2.6875 2.089844 Z M 2.257812 -2.546875 C 2.417969 -2.5625 2.53125 -2.585938 2.601562 -2.613281 C 2.574219 -2.601562 2.535156 -2.570312 2.492188 -2.519531 C 2.566406 -2.601562 2.613281 -2.71875 2.636719 -2.871094 C 2.699219 -3.292969 2.710938 -3.714844 2.671875 -4.136719 L 2.519531 -5.773438 C 2.390625 -7.148438 2.503906 -8.46875 2.859375 -9.722656 C 3.226562 -11.019531 3.78125 -12.121094 4.53125 -13.023438 C 5.484375 -14.167969 6.628906 -14.800781 7.972656 -14.925781 C 8.957031 -15.015625 9.820312 -14.796875 10.5625 -14.269531 C 11.011719 -13.957031 11.359375 -13.554688 11.609375 -13.066406 C 11.828125 -12.644531 11.960938 -12.183594 12.007812 -11.675781 C 12.078125 -10.890625 11.964844 -9.996094 11.664062 -8.988281 C 11.457031 -8.308594 11.253906 -7.554688 11.050781 -6.730469 C 10.898438 -6.121094 10.855469 -5.484375 10.914062 -4.824219 C 10.96875 -4.253906 11.128906 -3.789062 11.402344 -3.4375 C 11.386719 -3.453125 11.378906 -3.464844 11.367188 -3.46875 C 11.484375 -3.425781 11.671875 -3.417969 11.933594 -3.441406 C 12.488281 -3.496094 12.964844 -3.667969 13.355469 -3.960938 C 13.894531 -4.363281 14.367188 -4.871094 14.785156 -5.480469 C 15.265625 -6.1875 15.675781 -6.921875 16.015625 -7.675781 C 16.386719 -8.496094 16.695312 -9.261719 16.945312 -9.972656 C 17.246094 -10.835938 17.519531 -11.507812 17.757812 -11.980469 C 17.585938 -11.625 17.546875 -11.246094 17.636719 -10.84375 C 17.707031 -10.511719 17.855469 -10.238281 18.070312 -10.027344 C 18.1875 -9.910156 18.324219 -9.839844 18.476562 -9.816406 C 18.828125 -9.753906 19.171875 -9.8125 19.515625 -9.988281 C 19.816406 -10.144531 20.035156 -10.347656 20.171875 -10.601562 C 19.773438 -9.882812 19.347656 -9.265625 18.890625 -8.753906 C 18.140625 -7.90625 17.179688 -7.433594 16.011719 -7.324219 C 14.777344 -7.210938 13.753906 -7.519531 12.941406 -8.253906 C 12.183594 -8.9375 11.75 -9.882812 11.636719 -11.089844 C 11.554688 -11.988281 11.628906 -12.835938 11.855469 -13.628906 C 12 -14.132812 12.144531 -14.648438 12.289062 -15.175781 C 12.359375 -15.445312 12.378906 -15.757812 12.347656 -16.109375 C 12.3125 -16.480469 12.191406 -16.773438 11.984375 -16.984375 C 11.972656 -16.996094 11.945312 -17.011719 11.90625 -17.023438 C 11.761719 -17.0625 11.558594 -17.074219 11.296875 -17.046875 C 10.863281 -17.007812 10.453125 -16.867188 10.070312 -16.632812 C 9.578125 -16.324219 9.109375 -15.914062 8.664062 -15.398438 C 8.316406 -14.976562 7.949219 -14.65625 7.570312 -14.429688 C 7.257812 -14.25 6.933594 -14.125 6.597656 -14.0625 C 6.152344 -13.980469 5.714844 -14.007812 5.285156 -14.144531 C 4.660156 -14.339844 4.179688 -14.722656 3.839844 -15.292969 C 3.640625 -15.628906 3.515625 -16.003906 3.457031 -16.425781 C 3.398438 -16.863281 3.417969 -17.390625 3.515625 -18 C 3.6875 -19.066406 4.039062 -20.207031 4.574219 -21.421875 C 5 -22.390625 5.390625 -23.394531 5.738281 -24.433594 C 5.890625 -24.871094 5.984375 -25.21875 6.011719 -25.480469 C 6.019531 -25.542969 6.019531 -25.582031 6.019531 -25.597656 C 6.023438 -25.535156 6.046875 -25.457031 6.085938 -25.367188 C 6.199219 -25.105469 6.394531 -24.90625 6.671875 -24.773438 C 6.773438 -24.726562 6.863281 -24.699219 6.953125 -24.6875 C 6.96875 -24.683594 6.984375 -24.683594 6.992188 -24.683594 C 6.984375 -24.683594 6.976562 -24.683594 6.960938 -24.679688 C 6.964844 -24.679688 6.972656 -24.683594 6.976562 -24.683594 C 6.957031 -24.675781 6.929688 -24.65625 6.890625 -24.625 C 6.710938 -24.472656 6.519531 -24.207031 6.320312 -23.828125 C 5.71875 -22.691406 5.121094 -20.972656 4.53125 -18.679688 L 2.210938 -9.484375 C 1.96875 -8.503906 1.785156 -7.507812 1.667969 -6.496094 C 1.558594 -5.542969 1.539062 -4.6875 1.609375 -3.925781 C 1.667969 -3.285156 1.816406 -2.796875 2.058594 -2.464844 C 2.03125 -2.503906 1.992188 -2.53125 1.941406 -2.550781 C 1.988281 -2.535156 2.09375 -2.53125 2.257812 -2.546875 Z M 2.257812 -2.546875 "/></g></g></g><g fill="#cb7f00" fill-opacity="1"><g transform="translate(105.736879, 39.061077)"><g><path d="M 7.050781 1.6875 C 5.109375 1.867188 3.429688 1.550781 2.007812 0.738281 C 0.625 -0.0546875 -0.449219 -1.167969 -1.207031 -2.605469 C -1.90625 -3.921875 -2.320312 -5.386719 -2.453125 -7.003906 C -2.582031 -8.546875 -2.460938 -10.109375 -2.085938 -11.6875 C -1.710938 -13.273438 -1.09375 -14.753906 -0.234375 -16.125 C 0.664062 -17.554688 1.800781 -18.742188 3.183594 -19.6875 C 4.632812 -20.679688 6.296875 -21.261719 8.175781 -21.4375 C 9.742188 -21.582031 11.09375 -21.382812 12.230469 -20.84375 C 13.410156 -20.285156 14.320312 -19.46875 14.964844 -18.394531 C 15.554688 -17.417969 15.902344 -16.355469 16.007812 -15.199219 C 16.125 -13.925781 15.902344 -12.648438 15.335938 -11.363281 C 14.777344 -10.09375 13.9375 -9.011719 12.816406 -8.125 C 11.632812 -7.1875 10.21875 -6.640625 8.570312 -6.488281 C 7.945312 -6.429688 7.328125 -6.417969 6.722656 -6.453125 C 5.929688 -6.496094 5.179688 -6.6875 4.472656 -7.019531 C 4.75 -6.886719 5.050781 -6.828125 5.378906 -6.839844 C 5.65625 -6.855469 5.914062 -6.925781 6.152344 -7.050781 C 6.605469 -7.289062 6.921875 -7.648438 7.097656 -8.125 C 7.191406 -8.375 7.226562 -8.617188 7.207031 -8.847656 C 7.1875 -9.058594 7.097656 -9.246094 6.945312 -9.414062 C 6.898438 -9.464844 6.851562 -9.503906 6.808594 -9.527344 C 6.8125 -9.527344 6.835938 -9.519531 6.871094 -9.503906 C 7.332031 -9.351562 7.917969 -9.308594 8.632812 -9.375 C 9.519531 -9.457031 10.445312 -9.78125 11.40625 -10.355469 C 12.292969 -10.886719 12.992188 -11.628906 13.496094 -12.578125 C 13.8125 -13.167969 14.246094 -13.601562 14.792969 -13.886719 C 15.378906 -14.1875 16.007812 -14.28125 16.683594 -14.164062 C 17.484375 -14.027344 18.171875 -13.679688 18.742188 -13.117188 C 19.191406 -12.679688 19.476562 -12.175781 19.601562 -11.605469 C 19.742188 -10.960938 19.667969 -10.335938 19.375 -9.722656 L 17.273438 -10.734375 L 19.417969 -9.816406 C 17.96875 -6.425781 16.25 -3.765625 14.269531 -1.832031 C 12.113281 0.265625 9.707031 1.441406 7.050781 1.6875 Z M 6.625 -2.953125 C 8.1875 -3.097656 9.652344 -3.835938 11.019531 -5.167969 C 12.558594 -6.667969 13.929688 -8.828125 15.132812 -11.648438 L 15.152344 -11.695312 L 15.175781 -11.742188 C 15.003906 -11.386719 14.964844 -11.007812 15.054688 -10.605469 C 15.125 -10.269531 15.273438 -10 15.488281 -9.785156 C 15.605469 -9.671875 15.742188 -9.601562 15.894531 -9.574219 C 16.246094 -9.515625 16.589844 -9.574219 16.933594 -9.75 C 17.234375 -9.90625 17.460938 -10.121094 17.613281 -10.402344 C 16.699219 -8.679688 15.425781 -7.332031 13.789062 -6.355469 C 12.222656 -5.421875 10.648438 -4.882812 9.0625 -4.734375 C 7.691406 -4.609375 6.46875 -4.726562 5.386719 -5.089844 C 4.628906 -5.347656 4.011719 -5.730469 3.539062 -6.238281 C 2.96875 -6.847656 2.644531 -7.574219 2.566406 -8.417969 C 2.523438 -8.890625 2.578125 -9.332031 2.730469 -9.742188 C 2.964844 -10.375 3.378906 -10.851562 3.972656 -11.164062 C 4.351562 -11.363281 4.746094 -11.472656 5.160156 -11.492188 C 5.617188 -11.515625 6.050781 -11.429688 6.457031 -11.234375 C 6.617188 -11.15625 6.792969 -11.113281 6.984375 -11.101562 C 7.363281 -11.082031 7.746094 -11.089844 8.140625 -11.125 C 8.871094 -11.191406 9.460938 -11.410156 9.921875 -11.773438 C 10.441406 -12.183594 10.824219 -12.671875 11.074219 -13.238281 C 11.316406 -13.789062 11.414062 -14.300781 11.371094 -14.773438 C 11.328125 -15.21875 11.199219 -15.625 10.976562 -15.992188 C 10.8125 -16.261719 10.566406 -16.476562 10.234375 -16.636719 C 9.863281 -16.8125 9.320312 -16.867188 8.605469 -16.800781 C 7.527344 -16.699219 6.597656 -16.382812 5.816406 -15.847656 C 4.964844 -15.265625 4.265625 -14.535156 3.710938 -13.652344 C 3.125 -12.714844 2.703125 -11.703125 2.445312 -10.613281 C 2.183594 -9.515625 2.097656 -8.441406 2.1875 -7.386719 C 2.269531 -6.40625 2.507812 -5.535156 2.910156 -4.78125 C 3.246094 -4.140625 3.71875 -3.648438 4.320312 -3.304688 C 4.886719 -2.980469 5.65625 -2.863281 6.625 -2.953125 Z M 6.941406 -13.765625 C 6.980469 -13.769531 7.011719 -13.773438 7.035156 -13.78125 C 7.03125 -13.777344 7.023438 -13.777344 7.011719 -13.769531 C 6.957031 -13.742188 6.910156 -13.703125 6.875 -13.65625 C 6.902344 -13.6875 6.917969 -13.714844 6.929688 -13.738281 C 6.933594 -13.742188 6.933594 -13.746094 6.933594 -13.746094 C 6.933594 -13.742188 6.929688 -13.738281 6.929688 -13.730469 C 6.90625 -13.65625 6.898438 -13.574219 6.90625 -13.476562 C 6.925781 -13.269531 7.015625 -13.09375 7.183594 -12.949219 C 7.3125 -12.835938 7.449219 -12.761719 7.597656 -12.726562 C 7.628906 -12.71875 7.65625 -12.714844 7.679688 -12.714844 C 7.667969 -12.714844 7.652344 -12.710938 7.628906 -12.710938 C 7.585938 -12.707031 7.550781 -12.699219 7.523438 -12.695312 L 7.527344 -12.695312 C 7.570312 -12.71875 7.605469 -12.746094 7.632812 -12.785156 C 7.613281 -12.757812 7.601562 -12.738281 7.589844 -12.722656 C 7.59375 -12.726562 7.597656 -12.738281 7.601562 -12.753906 C 7.628906 -12.828125 7.636719 -12.90625 7.628906 -12.996094 C 7.609375 -13.210938 7.527344 -13.382812 7.386719 -13.511719 C 7.25 -13.628906 7.109375 -13.710938 6.957031 -13.75 C 6.921875 -13.757812 6.898438 -13.761719 6.878906 -13.761719 C 6.890625 -13.761719 6.914062 -13.761719 6.941406 -13.765625 Z M 7.371094 -9.128906 C 6.113281 -9.011719 5.074219 -9.320312 4.261719 -10.054688 C 3.507812 -10.738281 3.082031 -11.574219 2.992188 -12.566406 C 2.890625 -13.664062 3.214844 -14.695312 3.96875 -15.65625 C 4.75 -16.65625 5.828125 -17.222656 7.199219 -17.347656 C 8.414062 -17.460938 9.425781 -17.167969 10.234375 -16.46875 C 11.011719 -15.792969 11.445312 -14.941406 11.542969 -13.90625 C 11.640625 -12.855469 11.332031 -11.851562 10.625 -10.890625 C 10.230469 -10.355469 9.742188 -9.9375 9.15625 -9.636719 C 8.621094 -9.359375 8.027344 -9.1875 7.371094 -9.128906 Z M 7.371094 -9.128906 "/></g></g></g><g fill="#cb7f00" fill-opacity="1"><g transform="translate(121.376345, 37.61372)"><g><path d="M 12.234375 -12.480469 C 12.542969 -13.054688 12.972656 -13.484375 13.519531 -13.769531 C 14.105469 -14.070312 14.738281 -14.164062 15.410156 -14.046875 C 16.210938 -13.910156 16.898438 -13.558594 17.472656 -13 C 17.917969 -12.5625 18.203125 -12.058594 18.328125 -11.488281 C 18.46875 -10.84375 18.394531 -10.214844 18.101562 -9.605469 C 17.925781 -9.257812 17.71875 -8.746094 17.480469 -8.070312 C 17.1875 -7.238281 16.832031 -6.351562 16.410156 -5.410156 C 15.957031 -4.40625 15.414062 -3.4375 14.777344 -2.5 C 14.074219 -1.464844 13.246094 -0.59375 12.296875 0.121094 C 11.203125 0.941406 9.9375 1.417969 8.507812 1.550781 C 7.058594 1.683594 5.820312 1.484375 4.796875 0.953125 C 3.761719 0.410156 2.976562 -0.355469 2.441406 -1.339844 C 1.980469 -2.191406 1.707031 -3.078125 1.621094 -4 C 1.519531 -5.082031 1.582031 -6.164062 1.808594 -7.238281 C 2.007812 -8.183594 2.257812 -9.089844 2.558594 -9.964844 C 2.820312 -10.71875 3.042969 -11.410156 3.230469 -12.03125 C 3.339844 -12.398438 3.386719 -12.648438 3.375 -12.785156 C 3.398438 -12.523438 3.464844 -12.308594 3.566406 -12.136719 C 3.558594 -12.152344 3.523438 -12.191406 3.460938 -12.261719 C 3.488281 -12.230469 3.515625 -12.207031 3.535156 -12.191406 C 3.53125 -12.195312 3.515625 -12.203125 3.492188 -12.214844 C 3.378906 -12.273438 3.214844 -12.332031 3 -12.386719 L 3.597656 -14.640625 L 5.800781 -13.882812 C 5.621094 -13.363281 5.410156 -12.765625 5.160156 -12.082031 C 4.914062 -11.398438 4.664062 -10.730469 4.414062 -10.070312 C 4.171875 -9.4375 3.976562 -8.910156 3.824219 -8.492188 C 3.585938 -7.816406 3.171875 -7.300781 2.585938 -6.945312 C 1.984375 -6.578125 1.316406 -6.457031 0.582031 -6.574219 C -0.253906 -6.710938 -0.96875 -7.082031 -1.566406 -7.691406 C -1.988281 -8.117188 -2.265625 -8.601562 -2.398438 -9.132812 C -2.570312 -9.835938 -2.480469 -10.507812 -2.132812 -11.152344 L -2.121094 -11.175781 L -2.109375 -11.195312 C -1.890625 -11.582031 -1.640625 -12.1875 -1.363281 -13.015625 C -1.050781 -13.949219 -0.777344 -14.824219 -0.550781 -15.640625 L 1.691406 -15.011719 L 1.164062 -12.746094 C 0.316406 -12.941406 -0.394531 -13.355469 -0.964844 -13.988281 C -1.558594 -14.640625 -1.90625 -15.554688 -2.015625 -16.722656 C -2.097656 -17.621094 -1.953125 -18.511719 -1.582031 -19.390625 C -1.214844 -20.253906 -0.667969 -20.996094 0.0703125 -21.621094 C 0.894531 -22.320312 1.878906 -22.722656 3.023438 -22.832031 C 4.46875 -22.964844 5.886719 -22.816406 7.277344 -22.386719 C 8.660156 -21.957031 9.839844 -21.347656 10.816406 -20.550781 C 12.058594 -19.535156 12.742188 -18.378906 12.863281 -17.074219 C 12.957031 -16.082031 12.855469 -15.125 12.5625 -14.195312 L 11.949219 -12.265625 C 11.835938 -11.910156 11.800781 -11.511719 11.839844 -11.074219 C 11.828125 -11.203125 11.761719 -11.320312 11.636719 -11.425781 C 11.515625 -11.523438 11.410156 -11.582031 11.320312 -11.601562 C 11.402344 -11.585938 11.535156 -11.585938 11.726562 -11.605469 L 11.738281 -11.605469 C 11.71875 -11.601562 11.703125 -11.59375 11.679688 -11.582031 C 11.628906 -11.558594 11.585938 -11.527344 11.554688 -11.488281 C 11.78125 -11.746094 12.011719 -12.085938 12.246094 -12.5 Z M 16.316406 -10.242188 C 15.917969 -9.527344 15.492188 -8.910156 15.035156 -8.394531 C 14.285156 -7.550781 13.324219 -7.074219 12.15625 -6.964844 C 10.691406 -6.832031 9.527344 -7.121094 8.664062 -7.84375 C 7.796875 -8.5625 7.3125 -9.496094 7.203125 -10.644531 C 7.105469 -11.710938 7.207031 -12.71875 7.511719 -13.671875 L 8.121094 -15.597656 C 8.226562 -15.929688 8.261719 -16.277344 8.226562 -16.644531 C 8.230469 -16.613281 8.234375 -16.582031 8.246094 -16.558594 C 8.246094 -16.554688 8.246094 -16.550781 8.246094 -16.550781 C 8.246094 -16.554688 8.242188 -16.5625 8.234375 -16.570312 C 8.167969 -16.675781 8.046875 -16.800781 7.871094 -16.941406 C 7.363281 -17.355469 6.707031 -17.6875 5.902344 -17.9375 C 5.101562 -18.183594 4.285156 -18.269531 3.453125 -18.191406 C 3.285156 -18.175781 3.160156 -18.136719 3.082031 -18.066406 C 2.910156 -17.921875 2.785156 -17.757812 2.707031 -17.578125 C 2.640625 -17.414062 2.609375 -17.273438 2.621094 -17.152344 C 2.636719 -17 2.652344 -16.894531 2.675781 -16.832031 C 2.648438 -16.910156 2.585938 -17.003906 2.488281 -17.113281 C 2.40625 -17.203125 2.320312 -17.257812 2.222656 -17.28125 L 4.589844 -16.726562 L 3.933594 -14.386719 C 3.683594 -13.492188 3.390625 -12.542969 3.050781 -11.535156 C 2.679688 -10.417969 2.304688 -9.539062 1.9375 -8.890625 L -0.0859375 -10.042969 L 1.960938 -8.933594 C 2.183594 -9.347656 2.238281 -9.785156 2.125 -10.246094 C 2.054688 -10.542969 1.925781 -10.777344 1.75 -10.960938 C 1.636719 -11.074219 1.496094 -11.144531 1.332031 -11.171875 C 0.933594 -11.238281 0.546875 -11.15625 0.171875 -10.925781 C -0.191406 -10.707031 -0.429688 -10.425781 -0.554688 -10.078125 C -0.394531 -10.519531 -0.1875 -11.070312 0.0625 -11.726562 C 0.304688 -12.363281 0.542969 -13.011719 0.785156 -13.671875 C 1.023438 -14.328125 1.226562 -14.902344 1.394531 -15.394531 L 2.097656 -17.445312 L 4.195312 -16.890625 C 5.394531 -16.570312 6.308594 -16.066406 6.929688 -15.367188 C 7.585938 -14.636719 7.945312 -13.917969 8.011719 -13.214844 C 8.082031 -12.476562 7.972656 -11.636719 7.691406 -10.695312 C 7.484375 -10.011719 7.242188 -9.261719 6.960938 -8.449219 C 6.722656 -7.757812 6.523438 -7.035156 6.367188 -6.28125 C 6.238281 -5.664062 6.199219 -5.046875 6.257812 -4.429688 C 6.285156 -4.140625 6.375 -3.851562 6.535156 -3.5625 C 6.617188 -3.40625 6.757812 -3.277344 6.953125 -3.175781 C 7.164062 -3.066406 7.539062 -3.035156 8.078125 -3.085938 C 8.632812 -3.136719 9.109375 -3.308594 9.5 -3.605469 C 10.039062 -4.007812 10.511719 -4.515625 10.929688 -5.121094 C 11.410156 -5.832031 11.820312 -6.5625 12.160156 -7.320312 C 12.53125 -8.140625 12.839844 -8.90625 13.089844 -9.613281 C 13.390625 -10.480469 13.664062 -11.148438 13.902344 -11.625 C 13.730469 -11.269531 13.691406 -10.890625 13.78125 -10.484375 C 13.851562 -10.152344 14 -9.878906 14.214844 -9.667969 C 14.332031 -9.554688 14.46875 -9.484375 14.621094 -9.457031 C 14.972656 -9.398438 15.320312 -9.453125 15.660156 -9.628906 C 15.960938 -9.785156 16.183594 -10 16.328125 -10.265625 Z M 16.316406 -10.242188 "/></g></g></g><g fill="#cb7f00" fill-opacity="1"><g transform="translate(135.742829, 36.284171)"><g><path d="M 10.761719 5.304688 C 8.609375 5.503906 6.585938 5.210938 4.691406 4.421875 C 2.710938 3.597656 1.082031 2.214844 -0.1875 0.269531 C -1.410156 -1.597656 -2.160156 -4 -2.429688 -6.929688 C -2.570312 -8.460938 -2.460938 -10.015625 -2.101562 -11.59375 C -1.742188 -13.179688 -1.128906 -14.667969 -0.269531 -16.058594 C 0.621094 -17.496094 1.757812 -18.699219 3.136719 -19.65625 C 4.585938 -20.667969 6.265625 -21.257812 8.175781 -21.4375 C 9.742188 -21.582031 11.09375 -21.382812 12.230469 -20.84375 C 13.410156 -20.285156 14.320312 -19.46875 14.964844 -18.394531 C 15.554688 -17.417969 15.902344 -16.355469 16.007812 -15.199219 C 16.136719 -13.824219 15.914062 -12.5 15.339844 -11.222656 C 14.761719 -9.929688 13.867188 -8.851562 12.648438 -7.988281 C 11.4375 -7.128906 9.980469 -6.617188 8.277344 -6.460938 C 7.792969 -6.417969 7.257812 -6.414062 6.667969 -6.449219 C 5.90625 -6.5 5.175781 -6.6875 4.472656 -7.019531 C 4.75 -6.886719 5.050781 -6.828125 5.378906 -6.839844 C 5.6875 -6.855469 5.972656 -6.9375 6.234375 -7.085938 C 6.636719 -7.316406 6.921875 -7.640625 7.09375 -8.054688 C 7.171875 -8.253906 7.214844 -8.4375 7.214844 -8.617188 L 4.886719 -8.632812 L 7.214844 -8.726562 C 7.222656 -8.527344 7.246094 -8.371094 7.289062 -8.269531 C 7.296875 -8.253906 7.300781 -8.242188 7.304688 -8.238281 C 7.300781 -8.242188 7.296875 -8.246094 7.292969 -8.25 C 7.507812 -8.0625 7.800781 -7.941406 8.171875 -7.878906 C 8.78125 -7.777344 9.375 -7.753906 9.953125 -7.808594 C 10.71875 -7.878906 11.3125 -8.015625 11.730469 -8.214844 C 12.152344 -8.414062 12.476562 -8.628906 12.699219 -8.855469 C 13.007812 -9.167969 13.261719 -9.46875 13.457031 -9.761719 C 13.792969 -10.261719 14.113281 -10.6875 14.421875 -11.042969 C 15.074219 -11.789062 15.878906 -12.207031 16.835938 -12.296875 C 17.660156 -12.375 18.417969 -12.183594 19.109375 -11.722656 C 19.652344 -11.363281 20.113281 -10.851562 20.484375 -10.1875 C 21.03125 -9.226562 21.363281 -8.082031 21.484375 -6.757812 C 21.609375 -5.417969 21.46875 -4.070312 21.066406 -2.714844 C 20.667969 -1.355469 20.011719 -0.105469 19.101562 1.039062 C 18.179688 2.203125 17.011719 3.164062 15.597656 3.921875 C 14.191406 4.675781 12.578125 5.136719 10.761719 5.304688 Z M 10.332031 0.667969 C 11.523438 0.558594 12.542969 0.273438 13.398438 -0.183594 C 14.246094 -0.636719 14.929688 -1.195312 15.453125 -1.855469 C 15.988281 -2.53125 16.371094 -3.257812 16.601562 -4.039062 C 16.835938 -4.820312 16.917969 -5.582031 16.847656 -6.328125 C 16.785156 -6.992188 16.648438 -7.515625 16.429688 -7.902344 C 16.410156 -7.933594 16.398438 -7.957031 16.390625 -7.960938 C 16.425781 -7.921875 16.472656 -7.882812 16.535156 -7.84375 C 16.753906 -7.695312 17 -7.636719 17.265625 -7.660156 C 17.546875 -7.683594 17.769531 -7.792969 17.933594 -7.984375 C 17.753906 -7.777344 17.554688 -7.507812 17.328125 -7.171875 C 16.964844 -6.632812 16.527344 -6.097656 16.007812 -5.578125 C 15.402344 -4.96875 14.644531 -4.445312 13.734375 -4.011719 C 12.816406 -3.574219 11.699219 -3.292969 10.382812 -3.171875 C 9.40625 -3.082031 8.417969 -3.117188 7.414062 -3.285156 C 6.171875 -3.488281 5.109375 -3.972656 4.234375 -4.738281 C 3.183594 -5.652344 2.625 -6.917969 2.558594 -8.535156 L 2.558594 -8.648438 C 2.5625 -9.070312 2.636719 -9.457031 2.78125 -9.8125 C 3.015625 -10.390625 3.398438 -10.828125 3.925781 -11.132812 C 4.316406 -11.351562 4.730469 -11.472656 5.167969 -11.496094 C 5.621094 -11.515625 6.050781 -11.425781 6.457031 -11.234375 C 6.625 -11.15625 6.792969 -11.109375 6.96875 -11.097656 C 7.3125 -11.074219 7.609375 -11.074219 7.851562 -11.097656 C 8.71875 -11.179688 9.421875 -11.40625 9.953125 -11.785156 C 10.480469 -12.160156 10.859375 -12.605469 11.089844 -13.125 C 11.328125 -13.65625 11.421875 -14.207031 11.371094 -14.773438 C 11.328125 -15.21875 11.199219 -15.625 10.976562 -15.992188 C 10.8125 -16.261719 10.566406 -16.476562 10.234375 -16.636719 C 9.863281 -16.8125 9.320312 -16.867188 8.605469 -16.800781 C 7.511719 -16.699219 6.574219 -16.375 5.796875 -15.835938 C 4.945312 -15.242188 4.242188 -14.5 3.6875 -13.605469 C 3.101562 -12.65625 2.683594 -11.640625 2.4375 -10.558594 C 2.1875 -9.464844 2.113281 -8.394531 2.207031 -7.355469 C 2.40625 -5.195312 2.90625 -3.503906 3.707031 -2.28125 C 4.457031 -1.136719 5.378906 -0.335938 6.480469 0.121094 C 7.660156 0.613281 8.945312 0.796875 10.332031 0.667969 Z M 6.941406 -13.765625 C 6.980469 -13.769531 7.011719 -13.773438 7.035156 -13.78125 C 7.03125 -13.777344 7.023438 -13.777344 7.011719 -13.769531 C 6.957031 -13.742188 6.910156 -13.703125 6.875 -13.65625 C 6.902344 -13.6875 6.917969 -13.714844 6.929688 -13.738281 C 6.933594 -13.742188 6.933594 -13.746094 6.933594 -13.746094 C 6.933594 -13.742188 6.929688 -13.738281 6.929688 -13.730469 C 6.90625 -13.65625 6.898438 -13.574219 6.90625 -13.476562 C 6.925781 -13.269531 7.015625 -13.09375 7.183594 -12.949219 C 7.3125 -12.835938 7.449219 -12.761719 7.597656 -12.726562 C 7.628906 -12.71875 7.65625 -12.714844 7.679688 -12.714844 C 7.667969 -12.714844 7.652344 -12.710938 7.628906 -12.710938 C 7.585938 -12.707031 7.550781 -12.699219 7.523438 -12.695312 L 7.527344 -12.695312 C 7.570312 -12.71875 7.605469 -12.746094 7.632812 -12.785156 C 7.613281 -12.757812 7.601562 -12.738281 7.589844 -12.722656 C 7.59375 -12.726562 7.597656 -12.738281 7.601562 -12.753906 C 7.628906 -12.828125 7.636719 -12.90625 7.628906 -12.996094 C 7.609375 -13.210938 7.527344 -13.382812 7.386719 -13.511719 C 7.25 -13.628906 7.109375 -13.710938 6.957031 -13.75 C 6.921875 -13.757812 6.898438 -13.761719 6.878906 -13.761719 C 6.890625 -13.761719 6.914062 -13.761719 6.941406 -13.765625 Z M 7.371094 -9.128906 C 6.113281 -9.011719 5.074219 -9.320312 4.261719 -10.054688 C 3.507812 -10.738281 3.082031 -11.574219 2.992188 -12.566406 C 2.890625 -13.664062 3.214844 -14.695312 3.96875 -15.65625 C 4.75 -16.65625 5.828125 -17.222656 7.199219 -17.347656 C 8.414062 -17.460938 9.425781 -17.167969 10.234375 -16.46875 C 11.011719 -15.792969 11.445312 -14.941406 11.542969 -13.90625 C 11.640625 -12.855469 11.332031 -11.851562 10.625 -10.890625 C 10.230469 -10.355469 9.742188 -9.9375 9.15625 -9.636719 C 8.621094 -9.359375 8.027344 -9.1875 7.371094 -9.128906 Z M 7.371094 -9.128906 "/></g></g></g><g fill="#cb7f00" fill-opacity="1"><g transform="translate(154.657453, 34.533714)"><g/></g></g><g fill="#fed5ff" fill-opacity="1"><g transform="translate(6.589925, 48.236649)"><g><path d="M 3.09375 -0.28125 C 1.8125 -0.164062 0.878906 -0.441406 0.296875 -1.109375 C -0.273438 -1.773438 -0.609375 -2.644531 -0.703125 -3.71875 C -0.785156 -4.644531 -0.765625 -5.660156 -0.640625 -6.765625 C -0.515625 -7.878906 -0.316406 -8.972656 -0.046875 -10.046875 C 0.859375 -13.703125 1.628906 -16.769531 2.265625 -19.25 C 2.910156 -21.726562 3.578125 -23.617188 4.265625 -24.921875 C 4.953125 -26.222656 5.773438 -26.914062 6.734375 -27 C 7.492188 -27.070312 7.992188 -26.828125 8.234375 -26.265625 C 8.484375 -25.710938 8.378906 -24.84375 7.921875 -23.65625 C 7.117188 -21.5625 6.4375 -19.625 5.875 -17.84375 C 5.320312 -16.070312 4.910156 -14.398438 4.640625 -12.828125 C 4.503906 -12.109375 4.425781 -11.421875 4.40625 -10.765625 C 4.394531 -10.117188 4.523438 -9.601562 4.796875 -9.21875 C 5.066406 -8.84375 5.570312 -8.691406 6.3125 -8.765625 C 6.9375 -8.816406 7.46875 -9.03125 7.90625 -9.40625 C 8.351562 -9.78125 8.742188 -10.273438 9.078125 -10.890625 C 9.242188 -11.203125 9.488281 -11.328125 9.8125 -11.265625 C 10.132812 -11.210938 10.410156 -11.070312 10.640625 -10.84375 C 10.867188 -10.625 10.921875 -10.390625 10.796875 -10.140625 C 10.597656 -9.734375 10.359375 -9.140625 10.078125 -8.359375 C 9.804688 -7.585938 9.472656 -6.757812 9.078125 -5.875 C 8.691406 -5 8.21875 -4.148438 7.65625 -3.328125 C 7.09375 -2.515625 6.441406 -1.828125 5.703125 -1.265625 C 4.960938 -0.703125 4.09375 -0.375 3.09375 -0.28125 Z M 3.09375 -0.28125 "/></g></g></g><g fill="#fed5ff" fill-opacity="1"><g transform="translate(15.755383, 47.38843)"><g><path d="M 17.234375 -11.65625 C 17.359375 -11.882812 17.578125 -11.976562 17.890625 -11.9375 C 18.210938 -11.90625 18.5 -11.796875 18.75 -11.609375 C 19.007812 -11.429688 19.078125 -11.191406 18.953125 -10.890625 C 18.679688 -10.128906 18.304688 -9.332031 17.828125 -8.5 C 17.359375 -7.664062 16.738281 -6.953125 15.96875 -6.359375 C 15.207031 -5.773438 14.234375 -5.429688 13.046875 -5.328125 L 12.609375 -5.28125 C 11.828125 -3.957031 10.84375 -2.867188 9.65625 -2.015625 C 8.476562 -1.160156 7.207031 -0.671875 5.84375 -0.546875 C 4.226562 -0.390625 2.835938 -0.804688 1.671875 -1.796875 C 0.503906 -2.785156 -0.164062 -4.226562 -0.34375 -6.125 C -0.46875 -7.488281 -0.347656 -8.898438 0.015625 -10.359375 C 0.390625 -11.828125 0.96875 -13.203125 1.75 -14.484375 C 2.53125 -15.773438 3.492188 -16.835938 4.640625 -17.671875 C 5.785156 -18.515625 7.082031 -19.003906 8.53125 -19.140625 C 9.53125 -19.222656 10.445312 -19.101562 11.28125 -18.78125 C 12.113281 -18.457031 12.8125 -17.851562 13.375 -16.96875 C 13.9375 -16.09375 14.285156 -14.894531 14.421875 -13.375 C 14.546875 -12.082031 14.484375 -10.816406 14.234375 -9.578125 L 14.5 -9.59375 C 15.03125 -9.644531 15.523438 -9.832031 15.984375 -10.15625 C 16.441406 -10.488281 16.859375 -10.988281 17.234375 -11.65625 Z M 7.234375 -8.265625 C 7.835938 -8.316406 8.351562 -8.546875 8.78125 -8.953125 C 9.207031 -9.367188 9.53125 -9.847656 9.75 -10.390625 C 9.96875 -10.929688 10.050781 -11.457031 10 -11.96875 C 9.945312 -12.5 9.75 -12.9375 9.40625 -13.28125 C 9.0625 -13.632812 8.539062 -13.773438 7.84375 -13.703125 C 7.257812 -13.648438 6.753906 -13.429688 6.328125 -13.046875 C 5.910156 -12.671875 5.597656 -12.210938 5.390625 -11.671875 C 5.179688 -11.128906 5.101562 -10.585938 5.15625 -10.046875 C 5.195312 -9.523438 5.378906 -9.082031 5.703125 -8.71875 C 6.035156 -8.351562 6.546875 -8.203125 7.234375 -8.265625 Z M 7.234375 -8.265625 "/></g></g></g><g fill="#fed5ff" fill-opacity="1"><g transform="translate(33.067907, 45.786239)"><g><path d="M 17.234375 -11.65625 C 17.359375 -11.882812 17.578125 -11.976562 17.890625 -11.9375 C 18.210938 -11.90625 18.5 -11.796875 18.75 -11.609375 C 19.007812 -11.429688 19.078125 -11.191406 18.953125 -10.890625 C 18.679688 -10.128906 18.304688 -9.332031 17.828125 -8.5 C 17.359375 -7.664062 16.738281 -6.953125 15.96875 -6.359375 C 15.207031 -5.773438 14.234375 -5.429688 13.046875 -5.328125 L 12.609375 -5.28125 C 11.828125 -3.957031 10.84375 -2.867188 9.65625 -2.015625 C 8.476562 -1.160156 7.207031 -0.671875 5.84375 -0.546875 C 4.226562 -0.390625 2.835938 -0.804688 1.671875 -1.796875 C 0.503906 -2.785156 -0.164062 -4.226562 -0.34375 -6.125 C -0.46875 -7.488281 -0.347656 -8.898438 0.015625 -10.359375 C 0.390625 -11.828125 0.96875 -13.203125 1.75 -14.484375 C 2.53125 -15.773438 3.492188 -16.835938 4.640625 -17.671875 C 5.785156 -18.515625 7.082031 -19.003906 8.53125 -19.140625 C 9.53125 -19.222656 10.445312 -19.101562 11.28125 -18.78125 C 12.113281 -18.457031 12.8125 -17.851562 13.375 -16.96875 C 13.9375 -16.09375 14.285156 -14.894531 14.421875 -13.375 C 14.546875 -12.082031 14.484375 -10.816406 14.234375 -9.578125 L 14.5 -9.59375 C 15.03125 -9.644531 15.523438 -9.832031 15.984375 -10.15625 C 16.441406 -10.488281 16.859375 -10.988281 17.234375 -11.65625 Z M 7.234375 -8.265625 C 7.835938 -8.316406 8.351562 -8.546875 8.78125 -8.953125 C 9.207031 -9.367188 9.53125 -9.847656 9.75 -10.390625 C 9.96875 -10.929688 10.050781 -11.457031 10 -11.96875 C 9.945312 -12.5 9.75 -12.9375 9.40625 -13.28125 C 9.0625 -13.632812 8.539062 -13.773438 7.84375 -13.703125 C 7.257812 -13.648438 6.753906 -13.429688 6.328125 -13.046875 C 5.910156 -12.671875 5.597656 -12.210938 5.390625 -11.671875 C 5.179688 -11.128906 5.101562 -10.585938 5.15625 -10.046875 C 5.195312 -9.523438 5.378906 -9.082031 5.703125 -8.71875 C 6.035156 -8.351562 6.546875 -8.203125 7.234375 -8.265625 Z M 7.234375 -8.265625 "/></g></g></g><g fill="#fed5ff" fill-opacity="1"><g transform="translate(50.380432, 44.184049)"><g><path d="M 16.46875 1.953125 C 14.28125 2.160156 12.359375 1.492188 10.703125 -0.046875 C 9.054688 -1.585938 7.804688 -4.195312 6.953125 -7.875 C 6.816406 -8.488281 6.550781 -8.859375 6.15625 -8.984375 C 5.757812 -9.117188 5.40625 -9.03125 5.09375 -8.71875 C 4.789062 -8.40625 4.675781 -7.875 4.75 -7.125 L 5 -4.359375 C 5.0625 -3.742188 5.046875 -3.132812 4.953125 -2.53125 C 4.859375 -1.925781 4.617188 -1.410156 4.234375 -0.984375 C 3.859375 -0.554688 3.269531 -0.304688 2.46875 -0.234375 C 1.425781 -0.128906 0.660156 -0.414062 0.171875 -1.09375 C -0.316406 -1.769531 -0.609375 -2.644531 -0.703125 -3.71875 C -0.785156 -4.644531 -0.765625 -5.660156 -0.640625 -6.765625 C -0.515625 -7.878906 -0.316406 -8.972656 -0.046875 -10.046875 C 0.859375 -13.703125 1.628906 -16.769531 2.265625 -19.25 C 2.910156 -21.726562 3.578125 -23.617188 4.265625 -24.921875 C 4.953125 -26.222656 5.773438 -26.914062 6.734375 -27 C 7.492188 -27.070312 7.988281 -26.832031 8.21875 -26.28125 C 8.457031 -25.738281 8.359375 -24.863281 7.921875 -23.65625 C 7.410156 -22.125 6.84375 -20.503906 6.21875 -18.796875 C 5.601562 -17.085938 5.203125 -15.34375 5.015625 -13.5625 C 4.984375 -13.164062 5.113281 -12.90625 5.40625 -12.78125 C 5.695312 -12.664062 6.007812 -12.675781 6.34375 -12.8125 C 6.6875 -12.957031 6.914062 -13.203125 7.03125 -13.546875 C 7.625 -15.296875 8.328125 -16.691406 9.140625 -17.734375 C 9.953125 -18.773438 11.007812 -19.359375 12.3125 -19.484375 C 13.40625 -19.585938 14.238281 -19.363281 14.8125 -18.8125 C 15.394531 -18.269531 15.722656 -17.613281 15.796875 -16.84375 C 15.878906 -15.882812 15.578125 -15.007812 14.890625 -14.21875 C 14.210938 -13.425781 13.125 -12.957031 11.625 -12.8125 C 11.019531 -12.738281 10.59375 -12.53125 10.34375 -12.1875 C 10.09375 -11.84375 9.988281 -11.453125 10.03125 -11.015625 C 10.113281 -10.078125 10.425781 -9.285156 10.96875 -8.640625 C 11.519531 -8.003906 12.21875 -7.546875 13.0625 -7.265625 C 13.90625 -6.992188 14.789062 -6.898438 15.71875 -6.984375 C 16.507812 -7.054688 17.132812 -7.238281 17.59375 -7.53125 C 18.0625 -7.820312 18.414062 -8.160156 18.65625 -8.546875 C 18.894531 -8.941406 19.078125 -9.320312 19.203125 -9.6875 C 19.335938 -10.0625 19.488281 -10.375 19.65625 -10.625 C 19.832031 -10.882812 20.078125 -11.03125 20.390625 -11.0625 C 21.054688 -11.125 21.660156 -10.738281 22.203125 -9.90625 C 22.742188 -9.070312 23.070312 -8.039062 23.1875 -6.8125 C 23.257812 -5.9375 23.207031 -5.007812 23.03125 -4.03125 C 22.851562 -3.0625 22.5 -2.148438 21.96875 -1.296875 C 21.445312 -0.441406 20.738281 0.28125 19.84375 0.875 C 18.945312 1.46875 17.820312 1.828125 16.46875 1.953125 Z M 16.46875 1.953125 "/></g></g></g><g fill="#fed5ff" fill-opacity="1"><g transform="translate(74.421571, 41.959158)"><g/></g></g><g fill="#fed5ff" fill-opacity="1"><g transform="translate(87.515072, 40.747417)"><g><path d="M 2.46875 -0.234375 C 1.425781 -0.128906 0.660156 -0.414062 0.171875 -1.09375 C -0.316406 -1.769531 -0.609375 -2.644531 -0.703125 -3.71875 C -0.785156 -4.644531 -0.765625 -5.660156 -0.640625 -6.765625 C -0.515625 -7.878906 -0.316406 -8.972656 -0.046875 -10.046875 C 0.859375 -13.703125 1.628906 -16.769531 2.265625 -19.25 C 2.910156 -21.726562 3.578125 -23.617188 4.265625 -24.921875 C 4.953125 -26.222656 5.773438 -26.914062 6.734375 -27 C 7.492188 -27.070312 7.988281 -26.832031 8.21875 -26.28125 C 8.457031 -25.738281 8.359375 -24.863281 7.921875 -23.65625 C 7.566406 -22.570312 7.160156 -21.515625 6.703125 -20.484375 C 6.253906 -19.453125 5.960938 -18.503906 5.828125 -17.640625 C 5.691406 -16.867188 5.742188 -16.441406 5.984375 -16.359375 C 6.222656 -16.285156 6.523438 -16.46875 6.890625 -16.90625 C 7.492188 -17.613281 8.140625 -18.179688 8.828125 -18.609375 C 9.523438 -19.035156 10.28125 -19.289062 11.09375 -19.375 C 12.195312 -19.476562 13.046875 -19.226562 13.640625 -18.625 C 14.242188 -18.019531 14.585938 -17.253906 14.671875 -16.328125 C 14.734375 -15.691406 14.691406 -15.109375 14.546875 -14.578125 C 14.398438 -14.046875 14.25 -13.519531 14.09375 -13 C 13.945312 -12.476562 13.898438 -11.910156 13.953125 -11.296875 C 14.066406 -10.085938 14.679688 -9.535156 15.796875 -9.640625 C 16.359375 -9.691406 16.8125 -9.910156 17.15625 -10.296875 C 17.5 -10.679688 17.828125 -11.160156 18.140625 -11.734375 C 18.304688 -12.046875 18.550781 -12.171875 18.875 -12.109375 C 19.195312 -12.046875 19.46875 -11.90625 19.6875 -11.6875 C 19.914062 -11.46875 19.96875 -11.234375 19.84375 -10.984375 C 19.644531 -10.566406 19.410156 -9.96875 19.140625 -9.1875 C 18.867188 -8.414062 18.535156 -7.59375 18.140625 -6.71875 C 17.742188 -5.84375 17.265625 -4.992188 16.703125 -4.171875 C 16.148438 -3.359375 15.5 -2.671875 14.75 -2.109375 C 14.007812 -1.546875 13.144531 -1.21875 12.15625 -1.125 C 10.957031 -1.007812 10.085938 -1.304688 9.546875 -2.015625 C 9.015625 -2.722656 8.703125 -3.585938 8.609375 -4.609375 C 8.515625 -5.535156 8.570312 -6.425781 8.78125 -7.28125 C 9 -8.144531 9.210938 -8.9375 9.421875 -9.65625 C 9.640625 -10.375 9.726562 -10.972656 9.6875 -11.453125 C 9.644531 -11.867188 9.484375 -12.175781 9.203125 -12.375 C 8.929688 -12.570312 8.585938 -12.648438 8.171875 -12.609375 C 7.472656 -12.546875 6.851562 -12.1875 6.3125 -11.53125 C 5.78125 -10.882812 5.378906 -10.070312 5.109375 -9.09375 C 4.835938 -8.113281 4.75 -7.078125 4.84375 -5.984375 L 5 -4.359375 C 5.0625 -3.742188 5.046875 -3.132812 4.953125 -2.53125 C 4.859375 -1.925781 4.617188 -1.410156 4.234375 -0.984375 C 3.859375 -0.554688 3.269531 -0.304688 2.46875 -0.234375 Z M 2.46875 -0.234375 "/></g></g></g><g fill="#fed5ff" fill-opacity="1"><g transform="translate(105.736879, 39.061077)"><g><path d="M 6.84375 -0.640625 C 5.382812 -0.503906 4.15625 -0.71875 3.15625 -1.28125 C 2.15625 -1.84375 1.382812 -2.644531 0.84375 -3.6875 C 0.300781 -4.726562 -0.0195312 -5.894531 -0.125 -7.1875 C -0.238281 -8.488281 -0.140625 -9.804688 0.171875 -11.140625 C 0.484375 -12.484375 1.003906 -13.734375 1.734375 -14.890625 C 2.460938 -16.054688 3.382812 -17.019531 4.5 -17.78125 C 5.613281 -18.539062 6.910156 -18.988281 8.390625 -19.125 C 9.535156 -19.226562 10.484375 -19.097656 11.234375 -18.734375 C 11.984375 -18.367188 12.5625 -17.851562 12.96875 -17.1875 C 13.375 -16.53125 13.613281 -15.796875 13.6875 -14.984375 C 13.769531 -14.117188 13.609375 -13.222656 13.203125 -12.296875 C 12.796875 -11.378906 12.179688 -10.59375 11.359375 -9.9375 C 10.546875 -9.289062 9.546875 -8.914062 8.359375 -8.8125 C 7.847656 -8.757812 7.347656 -8.75 6.859375 -8.78125 C 6.367188 -8.8125 5.898438 -8.925781 5.453125 -9.125 C 5.328125 -9.1875 5.191406 -9.179688 5.046875 -9.109375 C 4.910156 -9.035156 4.851562 -8.875 4.875 -8.625 C 4.9375 -8 5.351562 -7.554688 6.125 -7.296875 C 6.894531 -7.035156 7.800781 -6.953125 8.84375 -7.046875 C 10.082031 -7.160156 11.332031 -7.59375 12.59375 -8.34375 C 13.863281 -9.101562 14.847656 -10.15625 15.546875 -11.5 C 15.710938 -11.800781 15.957031 -11.921875 16.28125 -11.859375 C 16.613281 -11.804688 16.890625 -11.671875 17.109375 -11.453125 C 17.335938 -11.234375 17.390625 -10.992188 17.265625 -10.734375 C 15.953125 -7.628906 14.410156 -5.21875 12.640625 -3.5 C 10.878906 -1.78125 8.945312 -0.828125 6.84375 -0.640625 Z M 7.171875 -11.4375 C 7.867188 -11.507812 8.394531 -11.789062 8.75 -12.28125 C 9.113281 -12.769531 9.273438 -13.242188 9.234375 -13.703125 C 9.191406 -14.109375 9.015625 -14.441406 8.703125 -14.703125 C 8.398438 -14.972656 7.972656 -15.082031 7.421875 -15.03125 C 6.710938 -14.957031 6.171875 -14.679688 5.796875 -14.203125 C 5.429688 -13.734375 5.269531 -13.257812 5.3125 -12.78125 C 5.34375 -12.394531 5.515625 -12.0625 5.828125 -11.78125 C 6.140625 -11.5 6.585938 -11.382812 7.171875 -11.4375 Z M 7.171875 -11.4375 "/></g></g></g><g fill="#fed5ff" fill-opacity="1"><g transform="translate(121.376345, 37.61372)"><g><path d="M 14.28125 -11.375 C 14.445312 -11.6875 14.691406 -11.8125 15.015625 -11.75 C 15.347656 -11.6875 15.625 -11.546875 15.84375 -11.328125 C 16.070312 -11.109375 16.117188 -10.875 15.984375 -10.625 C 15.785156 -10.21875 15.550781 -9.625 15.28125 -8.84375 C 15.019531 -8.070312 14.6875 -7.242188 14.28125 -6.359375 C 13.882812 -5.484375 13.40625 -4.632812 12.84375 -3.8125 C 12.289062 -3 11.640625 -2.3125 10.890625 -1.75 C 10.148438 -1.1875 9.285156 -0.859375 8.296875 -0.765625 C 7.296875 -0.671875 6.488281 -0.785156 5.875 -1.109375 C 5.257812 -1.429688 4.796875 -1.875 4.484375 -2.4375 C 4.179688 -3.007812 4 -3.597656 3.9375 -4.203125 C 3.863281 -5.054688 3.914062 -5.90625 4.09375 -6.75 C 4.269531 -7.601562 4.488281 -8.421875 4.75 -9.203125 C 5.019531 -9.984375 5.253906 -10.703125 5.453125 -11.359375 C 5.660156 -12.023438 5.742188 -12.578125 5.703125 -13.015625 C 5.679688 -13.210938 5.507812 -13.484375 5.1875 -13.828125 C 4.875 -14.171875 4.347656 -14.441406 3.609375 -14.640625 C 3.429688 -14.128906 3.21875 -13.539062 2.96875 -12.875 C 2.726562 -12.207031 2.484375 -11.546875 2.234375 -10.890625 C 1.992188 -10.242188 1.789062 -9.710938 1.625 -9.296875 C 1.507812 -8.960938 1.285156 -8.820312 0.953125 -8.875 C 0.628906 -8.9375 0.34375 -9.085938 0.09375 -9.328125 C -0.144531 -9.578125 -0.203125 -9.816406 -0.078125 -10.046875 C 0.222656 -10.554688 0.53125 -11.296875 0.84375 -12.265625 C 1.164062 -13.234375 1.445312 -14.148438 1.6875 -15.015625 C 1.3125 -15.109375 1 -15.289062 0.75 -15.5625 C 0.5 -15.832031 0.347656 -16.289062 0.296875 -16.9375 C 0.242188 -17.445312 0.328125 -17.960938 0.546875 -18.484375 C 0.773438 -19.015625 1.113281 -19.46875 1.5625 -19.84375 C 2.019531 -20.226562 2.578125 -20.453125 3.234375 -20.515625 C 4.367188 -20.617188 5.484375 -20.5 6.578125 -20.15625 C 7.679688 -19.820312 8.601562 -19.347656 9.34375 -18.734375 C 10.09375 -18.128906 10.5 -17.503906 10.5625 -16.859375 C 10.625 -16.179688 10.550781 -15.523438 10.34375 -14.890625 C 10.144531 -14.265625 9.941406 -13.625 9.734375 -12.96875 C 9.523438 -12.3125 9.453125 -11.609375 9.515625 -10.859375 C 9.566406 -10.359375 9.773438 -9.953125 10.140625 -9.640625 C 10.515625 -9.328125 11.117188 -9.207031 11.953125 -9.28125 C 12.503906 -9.332031 12.953125 -9.550781 13.296875 -9.9375 C 13.640625 -10.320312 13.96875 -10.800781 14.28125 -11.375 Z M 14.28125 -11.375 "/></g></g></g><g fill="#fed5ff" fill-opacity="1"><g transform="translate(135.742829, 36.284171)"><g><path d="M 10.546875 3 C 8.773438 3.15625 7.117188 2.910156 5.578125 2.265625 C 4.035156 1.628906 2.757812 0.539062 1.75 -1 C 0.75 -2.539062 0.128906 -4.585938 -0.109375 -7.140625 C -0.222656 -8.429688 -0.128906 -9.742188 0.171875 -11.078125 C 0.484375 -12.410156 1 -13.660156 1.71875 -14.828125 C 2.4375 -15.992188 3.351562 -16.960938 4.46875 -17.734375 C 5.582031 -18.515625 6.890625 -18.976562 8.390625 -19.125 C 9.535156 -19.226562 10.484375 -19.097656 11.234375 -18.734375 C 11.984375 -18.367188 12.5625 -17.851562 12.96875 -17.1875 C 13.375 -16.53125 13.613281 -15.796875 13.6875 -14.984375 C 13.78125 -14.023438 13.617188 -13.085938 13.203125 -12.171875 C 12.796875 -11.265625 12.160156 -10.503906 11.296875 -9.890625 C 10.429688 -9.273438 9.359375 -8.90625 8.078125 -8.78125 C 7.710938 -8.75 7.296875 -8.75 6.828125 -8.78125 C 6.359375 -8.8125 5.898438 -8.925781 5.453125 -9.125 C 5.328125 -9.1875 5.203125 -9.179688 5.078125 -9.109375 C 4.953125 -9.046875 4.882812 -8.882812 4.875 -8.625 C 4.914062 -7.675781 5.210938 -6.96875 5.765625 -6.5 C 6.316406 -6.03125 6.992188 -5.726562 7.796875 -5.59375 C 8.597656 -5.457031 9.382812 -5.425781 10.15625 -5.5 C 11.207031 -5.59375 12.066406 -5.796875 12.734375 -6.109375 C 13.398438 -6.429688 13.941406 -6.796875 14.359375 -7.203125 C 14.773438 -7.617188 15.117188 -8.035156 15.390625 -8.453125 C 15.660156 -8.878906 15.921875 -9.234375 16.171875 -9.515625 C 16.421875 -9.796875 16.71875 -9.953125 17.0625 -9.984375 C 17.613281 -10.023438 18.078125 -9.707031 18.453125 -9.03125 C 18.835938 -8.363281 19.078125 -7.535156 19.171875 -6.546875 C 19.265625 -5.492188 19.15625 -4.4375 18.84375 -3.375 C 18.53125 -2.3125 18.007812 -1.320312 17.28125 -0.40625 C 16.550781 0.5 15.625 1.253906 14.5 1.859375 C 13.375 2.472656 12.054688 2.851562 10.546875 3 Z M 7.171875 -11.4375 C 7.867188 -11.507812 8.394531 -11.789062 8.75 -12.28125 C 9.113281 -12.769531 9.273438 -13.242188 9.234375 -13.703125 C 9.191406 -14.109375 9.015625 -14.441406 8.703125 -14.703125 C 8.398438 -14.972656 7.972656 -15.082031 7.421875 -15.03125 C 6.710938 -14.957031 6.171875 -14.679688 5.796875 -14.203125 C 5.429688 -13.734375 5.269531 -13.257812 5.3125 -12.78125 C 5.34375 -12.394531 5.515625 -12.0625 5.828125 -11.78125 C 6.140625 -11.5 6.585938 -11.382812 7.171875 -11.4375 Z M 7.171875 -11.4375 "/></g></g></g><g fill="#fed5ff" fill-opacity="1"><g transform="translate(154.657453, 34.533714)"><g/></g></g></g></g></g></g></g></svg>